<svg width="51" height="50" viewBox="0 0 51 50" fill="none" xmlns="http://www.w3.org/2000/svg">
<g clip-path="url(#clip0_531_39352)">
<path d="M25.793 50C39.6001 50 50.793 38.8071 50.793 25C50.793 11.1929 39.6001 0 25.793 0C11.9858 0 0.792969 11.1929 0.792969 25C0.792969 38.8071 11.9858 50 25.793 50Z" fill="#BF004A"/>
<path fill-rule="evenodd" clip-rule="evenodd" d="M44.8096 32.0506C44.5959 32.478 44.5959 32.6916 44.5959 32.6916C44.5959 32.6916 44.5959 32.9053 44.3822 33.119L42.6728 37.1788C42.4592 37.8198 41.8181 38.2472 41.1771 38.2472C40.9634 38.2472 40.7497 38.2472 40.5361 38.0335H40.3224V37.8198C40.5361 37.3925 40.7498 37.1788 41.1771 37.1788C41.3908 37.1788 41.6045 36.9651 41.6045 36.5378V36.3241L40.1087 32.9053C40.1087 32.6916 39.895 32.478 39.895 32.478C39.895 32.2643 39.6814 32.2643 39.6814 32.0506V31.8369H40.3224C40.7497 31.8369 40.9634 32.0506 41.1771 32.478C41.1771 32.478 42.0318 34.401 42.0318 34.6147C42.0318 34.8284 42.2455 35.0421 42.2455 35.0421C42.2455 35.0421 42.2455 34.8284 42.4592 34.6147C42.4592 34.401 43.3139 32.478 43.3139 32.478C43.5275 32.0506 43.7412 31.8369 44.1686 31.8369L44.8096 32.0506ZM31.7754 35.6831C31.5617 35.6831 31.5617 35.6831 31.348 35.8968C31.1344 36.1104 30.707 36.1104 30.4933 36.1104C29.8523 36.1104 29.2113 35.6831 28.9976 34.8284H32.4164C32.4164 34.6147 32.4164 34.401 32.4164 34.401C32.4164 33.119 31.5617 32.2643 30.2797 32.2643C28.7839 32.2643 27.9292 33.3327 27.9292 34.8284C27.9292 36.3241 28.9976 37.3925 30.4933 37.3925C31.7754 37.3925 32.4164 36.7515 32.4164 36.7515C32.2027 35.8968 31.9891 35.6831 31.7754 35.6831ZM30.2797 33.119C30.707 33.119 31.348 33.3327 31.348 33.9737H28.9976C28.9976 33.5463 29.6386 33.119 30.2797 33.119ZM21.3053 35.8968L20.4506 34.401L21.3053 33.119C21.519 32.9053 21.519 32.6916 21.7327 32.478C21.7327 32.2643 21.9463 32.2643 21.9463 32.0506H21.0916C20.6643 32.0506 20.4506 32.0506 20.2369 32.6916L19.8096 33.3327L19.5959 33.76C19.5959 33.76 19.3822 33.5463 19.3822 33.3327C19.3822 33.119 18.9549 32.6916 18.9549 32.6916C18.5275 32.2643 18.5275 32.0506 17.8865 32.0506H17.0318L17.2455 32.2643C17.4592 32.478 17.6728 32.6916 17.6728 32.9053L18.5275 34.1874L17.8865 35.8968C17.6728 36.1104 17.6728 36.3241 17.4592 36.5378C17.4592 36.7515 17.2455 36.7515 17.2455 36.9651L17.0318 37.1788H17.8865C18.3139 37.1788 18.5275 37.1788 18.7412 36.5378L19.1686 35.8968L19.3822 35.4694C19.3822 35.4694 19.5959 35.6831 19.5959 35.8968C19.8096 35.8968 20.0233 36.3241 20.0233 36.3241C20.2369 36.7515 20.4506 36.9651 20.878 36.9651H21.7327L21.519 36.7515C21.519 36.3241 21.3053 36.3241 21.3053 35.8968ZM24.9378 32.2643C24.2968 32.2643 23.8694 32.478 23.6557 32.6916C23.6557 32.6916 23.6557 32.478 23.6557 32.2643V31.4096C23.6557 30.9822 23.4421 30.7686 23.0147 30.7686H22.5874V34.8284C22.5874 36.3241 23.6557 37.1788 24.9378 37.1788C26.2198 37.1788 27.2882 36.1104 27.2882 34.6147C27.2882 33.3327 26.2198 32.2643 24.9378 32.2643ZM24.7241 36.1104C24.0831 36.1104 23.4421 35.4694 23.4421 34.6147C23.4421 33.5463 24.0831 33.119 24.7241 33.119C25.3651 33.119 26.0062 33.76 26.0062 34.6147C26.2198 35.4694 25.3651 36.1104 24.7241 36.1104ZM9.33949 32.2643C8.69847 32.2643 8.27112 32.478 8.05744 32.6916C8.05744 32.6916 8.05744 32.478 8.05744 32.2643V31.4096C8.05744 30.9822 7.84377 30.7686 7.41642 30.7686H6.77539V34.8284C6.77539 36.3241 7.84377 37.1788 9.12582 37.1788C10.4079 37.1788 11.4762 36.1104 11.4762 34.6147C11.6899 33.3327 10.6215 32.2643 9.33949 32.2643ZM9.12582 36.1104C8.48479 36.1104 7.84377 35.4694 7.84377 34.6147C7.84377 33.5463 8.48479 33.119 9.12582 33.119C9.76684 33.119 10.4079 33.76 10.4079 34.6147C10.4079 35.4694 9.76684 36.1104 9.12582 36.1104ZM14.6814 32.2643C16.1771 32.2643 17.2455 33.3327 17.2455 34.8284C17.2455 36.3241 16.1771 37.3925 14.6814 37.3925C13.1856 37.3925 12.1173 36.3241 12.1173 34.8284C12.1173 33.3327 13.1856 32.2643 14.6814 32.2643ZM14.6814 36.1104C15.5361 36.1104 15.9634 35.4694 15.9634 34.6147C15.9634 33.76 15.3224 33.119 14.6814 33.119C13.8267 33.119 13.3993 33.76 13.3993 34.6147C13.1856 35.4694 13.8267 36.1104 14.6814 36.1104ZM39.0403 32.0506C38.613 32.0506 37.972 32.478 37.7583 33.119V32.6916C37.7583 32.478 37.5446 32.0506 37.1173 32.0506H36.6899V36.7515H37.7583V34.8284C37.7583 34.6147 37.7583 34.1874 37.7583 33.9737C37.972 33.3327 38.3993 33.119 38.8267 33.119C39.0403 33.119 39.0403 33.119 39.0403 33.119H39.254V32.0506H39.0403ZM35.6215 32.0506C35.1942 32.0506 34.5532 32.478 34.3395 33.119V32.6916C34.3395 32.478 34.1258 32.0506 33.6985 32.0506H33.2711V36.7515H34.3395V34.8284C34.3395 34.6147 34.3395 34.1874 34.3395 33.9737C34.5532 33.3327 34.9805 33.119 35.4079 33.119C35.6215 33.119 35.6215 33.119 35.6215 33.119H35.8352V32.0506H35.6215Z" fill="white"/>
<path fill-rule="evenodd" clip-rule="evenodd" d="M24.0831 23.5043C24.9378 22.6496 26.2198 22.6496 26.8608 23.5043C27.7155 24.359 27.7155 25.6411 26.8608 26.2821C26.0061 27.1368 24.7241 27.1368 24.0831 26.2821C23.442 25.4274 23.442 24.1453 24.0831 23.5043Z" fill="white"/>
<path fill-rule="evenodd" clip-rule="evenodd" d="M27.5019 20.0854C26.6472 20.9401 26.6472 22.2221 27.5019 22.8631C28.3566 23.7178 29.6386 23.7178 30.2796 22.8631C31.1343 22.0084 31.1343 20.7264 30.2796 20.0854C29.6386 19.2307 28.3566 19.2307 27.5019 20.0854Z" fill="white"/>
<path fill-rule="evenodd" clip-rule="evenodd" d="M30.9211 16.6663C30.0664 17.521 30.0664 18.8031 30.9211 19.4441C31.7758 20.2988 33.0578 20.2988 33.6988 19.4441C34.5535 18.5894 34.5535 17.3073 33.6988 16.6663C33.0578 16.0253 31.7758 16.0253 30.9211 16.6663Z" fill="white"/>
<path fill-rule="evenodd" clip-rule="evenodd" d="M20.8778 20.0854C20.0231 20.9401 20.0231 22.2221 20.8778 22.8631C21.7325 23.7178 23.0146 23.7178 23.6556 22.8631C24.5103 22.0084 24.5103 20.7264 23.6556 20.0854C22.8009 19.2307 21.5189 19.2307 20.8778 20.0854Z" fill="white"/>
<path fill-rule="evenodd" clip-rule="evenodd" d="M17.4591 16.6663C16.6044 17.521 16.6044 18.8031 17.4591 19.4441C18.3138 20.2988 19.5959 20.2988 20.2369 19.4441C21.0916 18.5894 21.0916 17.3073 20.2369 16.6663C19.3822 16.0253 18.3138 16.0253 17.4591 16.6663Z" fill="white"/>
<path fill-rule="evenodd" clip-rule="evenodd" d="M24.0832 16.6663C23.2285 17.521 23.2285 18.8031 24.0832 19.4441C24.9379 20.2988 26.2199 20.2988 26.8609 19.4441C27.7156 18.5894 27.7156 17.3073 26.8609 16.6663C26.2199 16.0253 24.9379 16.0253 24.0832 16.6663Z" fill="white"/>
<path fill-rule="evenodd" clip-rule="evenodd" d="M20.8781 13.2479C20.0234 14.1026 20.0234 15.3847 20.8781 16.2394C21.7328 17.0941 23.0148 17.0941 23.6559 16.2394C24.5106 15.3847 24.5106 14.1026 23.6559 13.4616C22.8012 12.6069 21.5191 12.6069 20.8781 13.2479Z" fill="white"/>
<path fill-rule="evenodd" clip-rule="evenodd" d="M27.5019 13.2474C26.6472 14.1021 26.6472 15.3841 27.5019 16.0251C28.3566 16.8798 29.6386 16.8798 30.2796 16.0251C31.1343 15.1704 31.1343 13.8884 30.2796 13.2474C29.6386 12.6063 28.3566 12.6063 27.5019 13.2474Z" fill="white"/>
<path fill-rule="evenodd" clip-rule="evenodd" d="M24.0831 10.0424C24.9378 9.18769 26.2198 9.18769 26.8608 10.0424C27.7155 10.8971 27.7155 12.1791 26.8608 12.8202C26.0061 13.6749 24.7241 13.6749 24.0831 12.8202C23.442 11.9655 23.442 10.6834 24.0831 10.0424Z" fill="#AACD37"/>
</g>
<defs>
<clipPath id="clip0_531_39352">
<rect width="50" height="50" fill="white" transform="translate(0.792969)"/>
</clipPath>
</defs>
</svg>
