<svg width="105" height="50" viewBox="0 0 105 50" fill="none" xmlns="http://www.w3.org/2000/svg">
<g clip-path="url(#clip0_531_39158)">
<path d="M0.792969 50.0344H51.0221V0H0.792969V50.0344Z" fill="#2C3B8E"/>
<path d="M102.943 0.0341797H54.2344V50.0342H104.429V0.0341797H102.943Z" fill="#2C3B8E"/>
<path d="M57.2402 47.0407H101.424V3.02832H57.2402V47.0407Z" fill="white"/>
<path d="M7.04563 28.9059H7.21836C7.66745 28.9059 7.97836 29.1468 8.22018 29.6286C8.462 30.1104 8.56563 30.833 8.56563 31.8653C8.56563 32.4159 8.49654 32.8633 8.32382 33.1386C8.18563 33.4483 7.97836 33.5859 7.77109 33.5859C7.56382 33.5859 7.39109 33.4483 7.25291 33.173C7.11472 32.8977 7.01109 32.5192 7.01109 32.0374V28.9059H7.04563ZM5.38745 27.4262V37.8529H7.11472V34.8247C7.46018 35.1 7.84018 35.3065 8.22018 35.3065C8.80745 35.3065 9.25654 34.9968 9.63654 34.4118C10.0511 33.758 10.2584 32.76 10.2584 31.4868C10.2584 30.5921 10.0856 29.7662 9.77472 29.1124L9.70563 29.0092L9.63654 28.9059L9.602 28.8027L9.53291 28.7339L9.46382 28.6307L9.39472 28.5274L9.32563 28.4586L9.25654 28.3898L9.18745 28.321L9.11836 28.2521L9.04927 28.1833L8.98018 28.1145L8.91109 28.0457L8.842 27.9768L8.77291 27.908L8.70382 27.8392L8.60018 27.8048L8.53109 27.736L8.462 27.7015L8.35836 27.6671L8.25472 27.6327L8.15109 27.5983L8.04745 27.5639L7.94381 27.5295L7.84018 27.4951L7.73654 27.4607L7.63291 27.4262H7.52927L7.42563 27.3918H7.322L7.21836 27.3574H7.11472H5.38745V27.4262Z" fill="white"/>
<path d="M46.0129 26.9102L45.8747 27.0478C45.8747 27.0478 42.282 30.7987 42.0056 31.074V27.3919H40.2783V37.853H41.971V33.5516C42.0056 33.4828 44.182 31.2116 44.4238 30.9363C44.4238 31.3148 44.6656 37.8186 44.6656 37.8186H46.3929L46.0129 26.9102Z" fill="white"/>
<path d="M37.7562 27.0478L37.7216 27.0822L37.6871 27.1166L37.6525 27.151L37.618 27.1854L37.5834 27.2199L37.5489 27.2543L37.5143 27.2887L37.4798 27.3575L37.4107 27.4263L37.3416 27.4952L37.2725 27.564L37.2034 27.6328L37.1343 27.7016L36.9962 27.8393L36.858 27.9769L36.7198 28.149L36.5471 28.321L36.3743 28.4931L36.2016 28.6652L36.0289 28.8372L35.8562 29.0093L35.5107 29.3878L35.338 29.5599L35.1652 29.7319L34.9925 29.904L34.8198 30.076L34.6471 30.2481L34.5089 30.3857L34.3707 30.5234L34.3016 30.5922L34.2325 30.661L34.1634 30.7299L34.0943 30.7987L34.0252 30.8675L33.9907 30.9363L33.9562 30.9707L34.0598 30.9363L34.0252 30.9707L33.9907 31.0051L33.9562 31.0395L33.9216 31.074H33.8871V31.1084V27.4263H32.1943V37.8875H33.8871V33.586C33.9216 33.5172 36.098 31.246 36.3398 30.9707C36.3398 31.3492 36.5816 37.853 36.5816 37.853H38.3089L37.8943 26.9102L37.7562 27.0478Z" fill="white"/>
<path d="M27.9458 35.2715L27.8421 35.1339L27.7385 34.9962L27.6349 34.8586L27.5658 34.7209L27.4967 34.5833L27.4276 34.4456L27.3585 34.2736L27.2894 34.1015L27.2549 33.9295L27.2203 33.7574L27.1858 33.5854L27.1512 33.4133L27.1167 33.2412V33.0692V32.8627V32.6562C27.1167 31.5551 27.393 30.6948 27.9112 30.041C28.4985 29.3527 29.3276 28.9742 30.433 28.9742H30.5021V27.1504H30.433C28.7058 27.1504 27.393 27.6666 26.5294 28.7333C25.7349 29.6968 25.3203 31.0045 25.3203 32.6562C25.3203 34.2392 25.7694 35.5812 26.633 36.5792C27.5658 37.6115 28.8439 38.1621 30.4676 38.1621H30.5367V36.3383H30.4676C29.3967 36.3383 28.5676 35.9942 27.9458 35.2715Z" fill="white"/>
<path d="M14.4038 28.8365C14.8874 28.8365 15.2329 29.1806 15.4401 29.8689C15.6474 30.4883 15.751 31.383 15.751 32.553C15.751 33.6886 15.6474 34.6177 15.4056 35.3403L15.371 35.4091L15.3365 35.478L15.302 35.5468L15.2674 35.6156L15.2329 35.6844L15.1983 35.7532L15.1638 35.8221L15.1292 35.8565L15.0947 35.9253L15.0601 35.9597L15.0256 36.0285L14.991 36.063L14.9565 36.0974L14.922 36.1318L14.8874 36.1662L14.8529 36.2006L14.8183 36.235L14.7838 36.2694L14.7492 36.3038L14.7147 36.3382L14.6801 36.3726L14.6456 36.4071L14.611 36.4415L14.5765 36.4759H14.542L14.5074 36.5103L14.4729 36.5447H14.4383L14.4038 36.5791H14.3692H14.3347H14.2656C13.851 36.5791 13.5401 36.235 13.2983 35.5468C13.0565 34.8241 12.9529 33.895 12.9529 32.7939C12.9529 31.6927 13.0565 30.7636 13.2983 30.0753C13.6438 29.1806 13.9547 28.8365 14.4038 28.8365ZM14.4038 27.1503C13.5056 27.1503 12.7801 27.6665 12.262 28.6645C11.7438 29.6624 11.502 30.97 11.502 32.553C11.502 34.2047 11.7438 35.5468 12.2274 36.5447C12.711 37.5426 13.471 38.0588 14.4383 38.0588C15.4056 38.0588 16.2001 37.5082 16.7529 36.4759C17.271 35.5124 17.5129 34.1703 17.5129 32.553C17.5129 30.97 17.2365 29.6624 16.7183 28.6645L16.6492 28.5612L16.5801 28.458L16.5456 28.3548L16.442 28.3204L16.4074 28.2515L16.3383 28.1827L16.2692 28.1139L16.2001 28.045L16.131 27.9762L16.0965 27.873L16.0274 27.8042L15.9583 27.7354L15.8892 27.6665L15.8201 27.5977L15.751 27.5289L15.682 27.4601L15.6129 27.4256L15.5438 27.3912L15.4747 27.3568L15.4056 27.3224L15.3365 27.288L15.2674 27.2536L15.1983 27.2192L15.0947 27.1848L15.0256 27.1503L14.922 27.1159L14.8529 27.0815H14.7838L14.6801 27.0471L14.5765 27.0127H14.4729H14.4038V27.1503Z" fill="white"/>
<path d="M21.4513 35.2715L21.4167 35.2027L21.3476 35.1339L21.244 34.9962L21.1749 34.8586L21.1058 34.7209L21.0367 34.5833L20.9676 34.4456L20.8985 34.2736L20.8294 34.1015L20.7949 33.9295L20.7604 33.7574L20.7258 33.5854L20.6913 33.4133L20.6567 33.2412V33.0692V32.8627V32.6562C20.6567 31.5551 20.9331 30.6948 21.4513 30.041C22.0385 29.3527 22.8676 28.9742 23.9731 28.9742H24.0767V27.1504H23.9731C22.2804 27.1504 20.9331 27.6666 20.0694 28.7333C19.2404 29.6968 18.8604 31.0045 18.8604 32.6562C18.8604 34.2392 19.3094 35.5812 20.1731 36.5792C21.1058 37.6115 22.384 38.1621 24.0076 38.1621H24.0422V36.3383H23.9731C22.9022 36.3383 22.0385 35.9942 21.4513 35.2715Z" fill="white"/>
<path d="M5.42188 12.0781V22.6081H7.35642V13.8331H9.7746V22.6081H11.7091V12.0781H5.42188Z" fill="white"/>
<path d="M17.6859 13.5921C18.2041 13.5921 18.5841 13.9362 18.8259 14.5901C19.0677 15.2095 19.1713 16.1042 19.1713 17.2742C19.1713 18.3753 19.0331 19.3044 18.7913 20.0271C18.5495 20.7153 18.1695 21.025 17.7204 21.025H17.6168H17.5822H17.5477H17.5131H17.4786L17.4441 20.9906H17.375L17.3404 20.9562H17.3059L17.2713 20.9218L17.2368 20.8874L17.2022 20.853L17.1677 20.8185L17.1331 20.853L17.0986 20.8185L17.0641 20.7841L17.0295 20.7497L16.995 20.7153L16.9604 20.6809L16.9259 20.6465L16.8913 20.6121L16.8568 20.5433L16.8222 20.5089L16.7877 20.4744V20.4056L16.7531 20.3368L16.7186 20.3024L16.6841 20.2336L16.6495 20.1647L16.615 20.0959L16.5804 20.0271L16.5459 19.9583C16.2695 19.2356 16.1659 18.3065 16.1659 17.2398C16.1659 16.1386 16.3041 15.2095 16.5459 14.5212C16.8568 13.9362 17.2022 13.5921 17.6859 13.5921ZM17.6513 11.8027C16.615 11.8027 15.7859 12.3189 15.1986 13.3513C14.6113 14.3492 14.335 15.6568 14.335 17.2742C14.335 18.9259 14.6113 20.3024 15.1641 21.3003C15.7168 22.2983 16.5459 22.8144 17.6513 22.8144C18.7568 22.8144 19.6204 22.2982 20.2422 21.2315C20.8295 20.2336 21.1404 18.9259 21.1404 17.2742C21.1404 15.6568 20.8295 14.3492 20.2422 13.3513L20.1731 13.248L20.1041 13.1448L20.035 13.0415L19.9659 12.9727L19.8968 12.8695L19.8277 12.8007L19.7586 12.7318L19.6895 12.663L19.6204 12.5942L19.5513 12.5254L19.4822 12.4565L19.4131 12.3877L19.3441 12.3533L19.275 12.2845L19.2059 12.2501L19.1368 12.2157L19.0677 12.1468L18.9986 12.1124L18.8604 12.078L18.7913 12.0436L18.6877 12.0092L18.5841 11.9748L18.515 11.9404L18.4113 11.906L18.3077 11.8715L18.2041 11.8371L18.1695 11.8715L18.0659 11.8371H17.9622H17.8586L17.755 11.8027H17.6513Z" fill="white"/>
<path d="M31.6768 12.0781V13.8331H33.3004V22.6081H35.2349V13.8331H36.8931V12.0781H31.6768Z" fill="white"/>
<path d="M27.4271 15.7607H26.3562C25.9071 15.7607 25.5962 15.6574 25.3889 15.4854C25.2507 15.3477 25.1816 15.1757 25.1816 14.9348V12.1475H23.2471V15.1412C23.2471 15.8295 23.5234 16.4145 24.0762 16.8963C24.5943 17.3436 25.2853 17.5845 26.0107 17.5845H27.4271V22.643H29.3616V12.1475H27.4271V15.7607Z" fill="white"/>
<path d="M41.2802 13.8334H41.9712C42.4893 13.8334 42.8002 14.0054 43.0075 14.3151C43.1802 14.556 43.2839 15.0722 43.353 15.726H41.2112V15.6916V15.6572V15.6228V15.5884V15.5539V15.5195V15.4851V15.4163V15.3475V15.2786L41.2457 15.2098V15.141V15.0722V15.0034V15.1066V15.0378V14.9689V14.7625V14.6248L41.2802 14.556V14.4872V14.4184V14.3495V14.2807V14.2119V14.1431V14.0742V14.0054L41.3148 13.971V13.9366V13.9022V13.8678V13.8334H41.2802ZM39.4148 12.1128L39.0693 22.6083H40.9693C40.9693 22.6083 41.1421 17.6875 41.1421 17.481H43.5602C43.5948 17.6875 44.113 22.6083 44.113 22.6083H46.0475L45.1493 14.9345V14.8313V14.7281V14.6248L45.1148 14.5216V14.4184L45.0802 14.3495V14.2463L45.0457 14.1775L45.0112 14.0742L44.9766 14.0054L44.9421 13.9366L44.9075 13.8678L44.873 13.7989L44.8384 13.7301L44.8039 13.6613L44.7693 13.5925L44.7348 13.5237L44.7002 13.4548L44.6657 13.386L44.6312 13.3172L44.5966 13.2483L44.5621 13.1795L44.493 13.1107L44.4584 13.0419L44.4239 13.0075L44.3548 12.9387L44.3202 12.9042L44.2512 12.8354L44.1821 12.7666L44.113 12.7322L44.0784 12.6634L44.0093 12.5945C43.5257 12.216 42.8693 12.0439 42.0057 12.0439H39.4148V12.1128Z" fill="white"/>
<path d="M69.4347 16.1738L69.5038 16.3459L69.5729 16.4835L69.642 16.6556L69.7456 16.8277L69.8147 16.8965L69.8838 16.9653L69.9529 17.0341L70.022 17.1029L70.091 17.1718L70.1601 17.2406L70.2292 17.3094L70.2983 17.3782L70.3674 17.4815L70.4365 17.5503L70.5056 17.6535L70.6092 17.7568L70.7129 17.86L70.8165 17.9632L70.9201 18.0665L71.0238 18.1697L71.1274 18.2729L71.231 18.3762L71.3347 18.4794L71.4729 18.5826L71.611 18.6859L71.7492 18.7891L71.8874 18.8924L72.0256 18.9956C72.4056 19.2365 72.8201 19.7871 72.5092 20.5097C72.1983 21.2668 71.611 22.2991 71.9565 22.712C72.302 23.125 73.5456 23.3314 74.582 22.9185C74.582 22.9185 74.7892 23.5723 75.1692 23.9853C75.1692 23.9853 74.9965 24.3294 74.4092 24.1573C74.4092 24.1573 74.6165 24.6735 74.3401 25.2585C74.3401 25.2585 73.6492 25.1553 73.3729 24.5014C73.3729 24.5014 73.0965 24.9832 72.5438 25.1553C72.5438 25.1553 72.0947 24.9144 72.1983 24.0197C72.1983 24.0197 71.8529 24.8111 70.851 24.9488C70.851 24.9488 70.2638 24.2261 71.0238 23.2282C71.0238 23.2282 70.471 23.71 69.4692 23.4691C69.4692 23.4691 69.2965 22.9529 70.1947 22.2647C70.1947 22.2647 69.1583 22.2303 68.7783 21.37C68.7783 21.37 69.1929 20.8538 70.2638 20.957C70.2638 20.957 69.2965 20.7506 69.0547 19.5806C69.0547 19.5806 69.7456 19.1332 70.8856 19.8559C70.8856 19.8559 70.6783 19.4773 70.2292 19.0988C69.8147 18.7547 69.262 17.7223 69.4347 16.1738Z" fill="#2C3B8E"/>
<path d="M73.5454 27.9422L73.5109 27.9078L73.4763 27.8734L73.4418 27.8389L73.4072 27.8045L73.3727 27.7701L73.3381 27.7357L73.3036 27.7013L73.269 27.6669L73.2345 27.6325L73.1999 27.5981V27.5637L73.1654 27.5292V27.4948L73.1309 27.4604V27.426V27.3916C73.3036 28.8025 73.3727 29.766 74.1327 30.6951C74.1327 30.6951 74.6163 30.0757 74.3054 28.596C74.2018 28.5616 74.029 28.4928 73.8909 28.3895C73.8909 28.3895 74.0636 29.0089 73.9599 29.5939C74.029 29.5939 73.7527 29.3875 73.5454 27.9422Z" fill="#2C3B8E"/>
<path d="M72.1988 27.8045L72.1642 27.7701V27.7357L72.1297 27.7013L72.0952 27.6669L72.0606 27.6325L72.0261 27.5981L71.9915 27.5637L71.957 27.5292L71.9224 27.4948L71.8879 27.4604L71.8533 27.426V27.3916C71.7842 28.2175 71.577 30.3854 72.3024 31.0736C72.3024 31.0736 72.7861 30.6951 72.9933 27.5292C72.8897 27.7013 72.717 27.9078 72.6133 28.011C72.6133 28.011 72.717 29.0089 72.3715 29.7316C72.337 29.5939 71.9915 29.3187 72.1988 27.8045Z" fill="#2C3B8E"/>
<path d="M70.471 29.4562L70.5401 29.3874L70.6092 29.3185L70.6783 29.2153L70.7474 29.1121L70.782 29.0088L70.8165 28.9056L70.851 28.8024L70.8856 28.6991L70.9201 28.5959L70.9547 28.4927L70.9892 28.3894L71.0238 28.2518L71.0929 28.0109L71.1274 27.9077L71.162 27.8044L71.1965 27.7012V27.598L71.231 27.4947V27.3915V27.2883V27.185V27.0818V27.013V26.9442V26.8753V26.8409V26.8065V26.7721V26.7377V26.7033V26.6688C71.3001 26.6 71.4038 26.5656 71.4729 26.4968C71.5074 26.4624 71.542 26.428 71.5765 26.3936C71.5765 26.4624 71.5765 26.5656 71.5765 26.6344C71.4729 27.9421 71.3692 29.3185 70.9547 30.0068C70.5401 30.6606 69.8147 31.0047 69.8147 31.0047C69.1238 29.7659 69.9529 28.1141 70.6783 26.9442C70.782 26.9097 70.851 26.8753 70.9547 26.8409C70.7474 27.598 70.2983 28.6647 70.471 29.4562Z" fill="#2C3B8E"/>
<path d="M68.744 25.6711V25.7399V25.7744V25.8088V25.8432V25.8776V25.912C68.744 25.912 68.744 25.9808 68.7785 26.0152C68.1912 26.5658 67.7421 27.1164 66.8785 28.3208C66.0149 29.5252 64.6331 29.5596 64.6331 29.5596C64.7712 28.5961 65.0476 27.8046 65.7731 27.0132C66.4985 26.1873 67.4312 25.4302 68.1222 24.9141C68.2949 24.9829 68.5367 25.0517 68.8131 25.0173C68.8131 25.0173 68.8476 25.0173 68.8821 25.0173C68.7785 25.1205 68.744 25.2582 68.7094 25.3614C68.1912 25.6711 66.6712 26.4282 66.0494 27.667C66.1185 27.7358 67.0858 27.4261 68.744 25.6711Z" fill="#2C3B8E"/>
<path d="M67.6382 24.4662L67.7073 24.363C67.7073 24.3286 67.7419 24.2942 67.7764 24.2598C67.1891 24.4662 65.1855 25.2233 64.5291 25.5674C63.8728 25.9115 62.9401 26.6686 62.4219 28.2171C62.4219 28.2171 63.7691 28.3203 64.9091 27.4256C66.0146 26.4965 67.3273 25.2233 67.8801 24.8104C67.811 24.776 67.7764 24.7071 67.7419 24.6727C67.7419 24.6727 66.2219 26.0148 64.6328 26.5998C64.6328 26.5998 64.9782 25.9803 65.6001 25.533C66.3946 24.948 66.9819 24.776 67.6382 24.4662Z" fill="#2C3B8E"/>
<path d="M66.4985 23.5371V23.5027V23.4682V23.4338V23.3994C65.8421 23.5371 64.1839 23.7435 63.4239 23.95C62.6985 24.1909 61.3512 24.7071 60.5566 26.2212C60.5566 26.2212 61.7312 26.5653 63.9421 25.5329C66.153 24.5006 66.8439 24.2941 67.2585 24.1565C66.913 24.1221 66.6712 24.0188 66.5676 23.95C65.7039 24.3285 64.5294 24.8103 63.3548 24.8447C63.3548 24.8447 63.9421 24.4318 64.5294 24.1909C65.2548 23.9156 65.9457 23.6747 66.4985 23.5371Z" fill="#2C3B8E"/>
<path d="M66.5672 22.4363L66.6017 22.4707H66.6363H66.6708L66.7053 22.5051H66.7399H66.7744H66.809H66.8435H66.8781H66.9126H66.9472H66.9817H67.0163H67.0508H67.0853H67.1199H67.1544H67.189H67.2235H67.2581C67.1199 22.6084 66.9817 22.746 66.8435 22.8837C66.049 23.1245 64.7363 23.331 62.5599 23.5031C60.3835 23.6751 59.209 23.2622 59.209 23.2622C59.969 22.8149 61.1781 22.3331 62.0072 22.161C62.8363 21.989 64.9781 22.0234 65.9108 21.8857C65.9108 21.8857 66.049 21.989 66.2217 22.0922C65.4272 22.161 63.7344 22.2299 62.8363 22.6772C62.8363 22.8493 64.4253 23.0557 66.5672 22.4363Z" fill="#2C3B8E"/>
<path d="M66.3953 21.1976L66.4298 21.1632H66.4644H66.4989H66.5335H66.568H66.6026H66.6371H66.6716H66.7062H66.7407H66.7753H66.8098H66.8444H66.8789H66.9135C65.808 20.819 64.288 20.3029 62.008 20.1308C60.3498 20.0276 59.1062 20.1308 58.4844 20.2685C58.4844 20.2685 60.0044 21.3352 61.7662 21.7137C63.4935 22.0923 64.9098 21.8514 65.9462 21.8514C66.0153 21.7481 66.0844 21.6449 66.2226 21.5073C65.0135 21.5073 63.0098 21.1976 62.2844 20.9567C62.1807 20.8535 63.9426 20.5093 66.3953 21.1976Z" fill="#2C3B8E"/>
<path d="M66.3948 19.8901V19.9245V19.9589V19.9934V20.0278V20.0622V20.0966V20.131V20.1654V20.1998V20.2343L66.4293 20.2687L66.4639 20.3031L66.4984 20.3375L66.533 20.3719L66.5675 20.4063L66.6021 20.4407L66.6366 20.4751L66.6712 20.5095L66.7057 20.5439L66.7403 20.5784L66.7748 20.6128L66.8093 20.6472L66.8784 20.6816L66.9475 20.716L67.0166 20.7504L67.0857 20.7848L67.1548 20.8192L67.2239 20.8537C65.6693 20.1654 62.5948 19.7869 60.9712 19.0987C58.7602 18.1695 58.3457 17.034 58.3457 17.034C60.2802 16.9651 61.8348 17.4469 63.0093 17.8254C64.4257 18.2384 66.5675 19.0299 67.293 19.374C67.0166 19.374 66.7057 19.4428 66.4639 19.6493C65.4275 19.2363 64.9439 19.0643 63.9766 18.8234C63.2166 18.6169 62.6639 18.5825 62.2148 18.5481C62.2148 18.5481 62.8712 18.9954 63.9421 19.3395C65.0475 19.6837 65.5312 19.7525 66.3948 19.8901Z" fill="#2C3B8E"/>
<path d="M66.2912 18.2037L66.3257 18.2381V18.2725L66.3603 18.3069L66.3948 18.3413L66.4293 18.3757L66.4639 18.4101V18.4445C64.0112 18.0316 61.3166 16.1734 60.4875 15.0378C59.6584 13.9022 59.9003 12.1816 59.9003 12.1816C60.6948 12.3537 62.4566 13.8678 62.9057 14.3152C63.3548 14.7625 64.7366 16.1045 65.7039 16.8616L65.9803 17.7219C65.1857 17.0681 64.2184 16.3454 63.5966 15.8981C63.1475 15.554 62.4221 15.0722 61.7657 14.8313C61.7657 14.8313 62.3875 15.6572 62.9057 16.0701C63.493 16.5519 64.1148 16.9304 64.5984 17.2057C65.1512 17.6531 65.393 17.7907 66.2912 18.2037Z" fill="#2C3B8E"/>
<path d="M73.2007 25.052L73.2352 25.0176C73.3389 25.1552 73.7189 25.637 73.9261 26.1188C74.0643 26.5317 74.2025 27.0479 74.3061 27.3576C74.3752 27.6673 74.5825 28.3211 74.7552 28.562C74.7552 28.562 74.168 28.6308 73.7189 28.1146C73.2698 27.5984 73.1316 27.1167 73.0625 26.5661C73.1316 26.0155 73.1316 25.4305 73.2007 25.052Z" fill="#2C3B8E"/>
<path d="M72.233 25.1203L72.2676 25.1548L72.3712 25.1892L72.4403 25.1548C72.5094 25.1204 72.5785 25.0859 72.6476 25.0859C72.7512 25.3268 72.7512 25.43 72.7857 25.6365C72.8203 25.9118 72.8548 26.3247 72.7512 26.6689C72.613 27.0818 72.3712 27.3571 72.233 27.5292C72.233 27.5292 71.853 27.0818 71.7148 26.7377C71.6112 26.3592 71.5421 25.9462 71.7148 25.4989C72.0257 25.4645 72.1294 25.258 72.233 25.1203Z" fill="#2C3B8E"/>
<path d="M70.9202 25.1891H70.9547H70.9893H71.0238H71.0584H71.1274H71.1965L71.2656 25.1547H71.3347L71.4038 25.1202L71.4729 25.0858L71.542 25.0514L71.6111 25.017L71.6802 24.9826L71.7147 24.9482L71.7838 24.9138L71.8184 24.8794L71.8529 24.845L71.8874 24.8105C71.9565 24.9482 72.0256 25.1547 71.9565 25.3955C71.8874 25.6708 71.7147 25.9805 71.4384 26.187C71.0238 26.4967 70.5056 26.8064 69.8838 26.7032C69.8493 26.7032 69.7111 26.2558 70.9202 25.1891Z" fill="#2C3B8E"/>
<path d="M70.4368 24.4326V24.467V24.5014V24.5359V24.5703V24.6047V24.6391V24.6735V24.7079V24.7423V24.7767V24.8112V24.8456V24.88V24.9144V24.9488V24.9832V25.0176V25.052V25.0864C70.2986 25.2585 69.7804 26.1188 68.744 25.9811C68.744 25.9811 68.4677 25.3961 69.1586 24.9144C69.884 24.6047 70.1259 24.5359 70.4368 24.4326Z" fill="#2C3B8E"/>
<path d="M70.5407 23.7099H70.4716H70.4026H70.3335H70.2644H70.1953H70.1262H70.0571H69.988H69.9189H69.8498H69.8153H69.7807H69.7462H69.7116H69.6771H69.6426H69.608H69.5735H69.5389H69.5044L69.4007 23.6755L69.3662 23.5723C68.848 24.0196 68.1916 24.0885 67.9844 24.467C67.9844 24.467 68.2607 24.9487 68.9516 24.8799C69.6426 24.8111 70.1607 24.467 70.5407 24.0196C70.4717 23.9164 70.5062 23.7787 70.5407 23.7099Z" fill="#2C3B8E"/>
<path d="M69.3311 23.0901L69.3657 23.0212V22.9868V22.9524L69.4002 22.918V22.8836L69.4348 22.8492V22.8148L69.4693 22.7804L69.5039 22.746V22.7115V22.6771V22.6427V22.6083V22.5739V22.5395L69.5384 22.5051V22.4707L69.573 22.4362C69.1239 22.3674 68.7093 22.333 68.1566 22.4362C67.5002 22.5395 66.8439 22.7116 66.533 23.6751C66.533 23.6751 66.9475 24.0192 67.7075 23.8815C68.4675 23.8127 69.0202 23.5374 69.3311 23.0901Z" fill="#2C3B8E"/>
<path d="M69.0545 22.0233L68.9854 21.9544L68.9509 21.92L68.9163 21.8856L68.8818 21.8512L68.8473 21.8168L68.8127 21.7824L68.7782 21.748L68.7436 21.7136L68.7091 21.6791L68.6745 21.6447L68.64 21.6103L68.6054 21.5759L68.5709 21.5415L68.5363 21.5071L68.5018 21.4727L68.4327 21.3694C67.88 21.1286 67.2927 21.0253 66.7054 21.2318C66.1527 21.4383 65.98 21.6791 65.8418 21.92C65.8418 21.92 66.4636 22.4362 67.1891 22.4706C68.0872 22.4362 68.7782 22.2297 69.0545 22.0233Z" fill="#2C3B8E"/>
<path d="M69.2276 20.8881H69.2622H69.2967H69.3313H69.3658H69.4004H69.4349H69.4694H69.504H69.5385H69.5731H69.6076C69.3658 20.6816 69.124 20.3375 68.9858 19.8557C68.744 19.9246 68.1222 19.9246 67.8458 19.8213C67.5694 19.7181 67.0513 19.7181 66.6367 19.9934C66.6367 19.9934 66.7749 20.716 67.7076 20.9569C68.5367 21.0601 68.8822 20.9913 69.2276 20.8881Z" fill="#2C3B8E"/>
<path d="M68.8818 19.4773L68.9854 19.4084C68.9854 19.4084 69.2273 19.2708 69.5727 19.2364C69.2618 18.9955 68.5363 18.4105 68.0527 18.1352C67.5 17.8255 66.6018 17.4126 66.1182 17.3438C66.1182 17.3438 66.5673 18.4793 67.0509 18.9611C67.6036 19.4429 67.9836 19.6149 68.8818 19.4773Z" fill="#2C3B8E"/>
<path d="M69.815 18.9612L69.7805 18.8924L69.746 18.8235L69.7114 18.7547L69.6769 18.6859L69.6423 18.6171L69.6078 18.5483L69.5732 18.4794L69.5387 18.4106L69.5041 18.3418L69.4696 18.273L69.435 18.2041L69.4005 18.1353L69.366 18.0665L69.3314 17.9977L69.2969 17.8944L69.2623 17.8256C69.1587 17.4471 68.9169 16.4836 68.7787 16.2427C68.6405 16.0018 68.1223 15.1415 67.1205 14.8662C67.1205 14.8662 66.8441 15.9674 67.3623 16.8621C67.8114 17.6191 68.7096 18.4106 69.815 18.9612Z" fill="#2C3B8E"/>
<path d="M75.4112 24.1567L75.4803 24.1911L75.5149 24.2255H75.5494L75.584 24.2599H75.6185L75.6531 24.2943H75.6876H75.7221L75.7567 24.3287H75.7912H75.8258H75.8603C75.8603 24.3287 76.1712 24.9481 75.7912 25.6708C75.4112 26.3934 75.0658 27.1505 74.9276 27.5978C74.9276 27.5978 74.7203 27.5634 74.4785 26.3934C74.3058 25.6019 74.1331 25.4299 73.9258 25.1546C74.1676 25.2578 74.3403 25.2922 74.3403 25.2922L74.4785 25.3267L74.5476 25.189C74.6858 24.9137 74.7203 24.6728 74.7203 24.4664C74.7203 24.3975 74.7203 24.3287 74.7203 24.2599C75.0658 24.2599 75.2731 24.0878 75.3421 23.9846C75.3421 23.9846 75.3421 23.9846 75.3421 23.9502L75.4112 24.1567Z" fill="#2C3B8E"/>
<path d="M66.8782 15.3135V15.3479V15.3823V15.4167V15.4511V15.4855V15.52V15.5544V15.5888V15.6576V15.692L66.9128 15.9673C66.3255 15.2103 65.6 14.3156 64.9091 13.4553C64.46 12.8703 64.0455 12.5262 63.5964 12.2509C63.9764 13.3176 64.6328 14.1779 65.0818 14.5909C65.5309 15.0038 66.2218 15.7264 66.8782 16.1738L66.9473 16.3803C67.0164 16.5867 67.0855 16.7932 67.1891 16.9653C67.3618 17.2405 67.5346 17.4814 67.7764 17.7567C67.6037 17.6535 67.3618 17.5503 67.1546 17.4814L66.9473 17.3782C65.1509 16.4147 63.3546 14.4532 62.6291 13.0767C61.9037 11.7003 62.2146 10.0829 62.3873 9.22266C63.2164 9.91089 64.3909 11.2873 64.9091 12.01C65.5655 12.9391 66.36 14.2467 66.8782 15.3135Z" fill="#2C3B8E"/>
<path d="M92.2694 21.1976L92.2349 21.1632H92.2003H92.1658H92.1312H92.0967H92.0621H92.0276H91.993H91.9585H91.9239H91.8894H91.8549H91.8203H91.7858H91.7512C92.8567 20.819 94.3767 20.3029 96.6567 20.1308C98.3149 20.0276 99.5239 20.1308 100.146 20.2685C100.146 20.2685 98.6258 21.3352 96.8639 21.7137C95.1367 22.0923 93.7203 21.8514 92.6839 21.8514C92.6149 21.7481 92.5458 21.6449 92.4076 21.5073C93.6167 21.5073 95.6203 21.1976 96.3458 20.9567C96.5185 20.8535 94.7567 20.5093 92.2694 21.1976Z" fill="#2C3B8E"/>
<path d="M92.3038 19.8901V19.9245V19.9589V19.9934V20.0278V20.0622V20.0966V20.131V20.1654V20.1998L92.2693 20.2343V20.2687L92.2347 20.3031L92.2002 20.3375L92.1656 20.3719L92.1311 20.4063L92.0965 20.4407L92.062 20.4751L92.0275 20.5095L91.9929 20.5439L91.9584 20.5784L91.9238 20.6128L91.8893 20.6472L91.8547 20.6816L91.7856 20.716L91.7165 20.7504L91.6475 20.7848L91.5784 20.8192L91.5093 20.8537C93.0638 20.1654 96.1038 19.7869 97.762 19.0987C99.9729 18.1695 100.387 17.034 100.387 17.034C98.4529 16.9651 96.8984 17.4469 95.7238 17.8254C94.3075 18.2384 92.2002 19.0299 91.4402 19.374C91.7165 19.374 92.0275 19.4428 92.3038 19.6493C93.3402 19.2363 93.8238 19.0643 94.7911 18.8234C95.5511 18.6169 96.1038 18.5825 96.5529 18.5481C96.5529 18.5481 95.8965 18.9954 94.8256 19.3395C93.6165 19.6837 93.1675 19.7525 92.3038 19.8901Z" fill="#2C3B8E"/>
<path d="M92.4071 18.2037V18.2381L92.3726 18.2725L92.338 18.3069L92.3035 18.3413L92.2689 18.3757L92.2344 18.4101V18.4445C94.6871 18.0316 97.3816 16.1734 98.2107 15.0378C99.0398 13.9022 98.798 12.1816 98.798 12.1816C98.0035 12.3537 96.2417 13.8678 95.758 14.3152C95.3089 14.7625 93.9271 16.1045 92.9598 16.8616L92.6835 17.7219C93.478 17.0681 94.4453 16.3454 95.0671 15.8981C95.5507 15.554 96.2071 15.0722 96.9326 14.8313C96.9326 14.8313 96.3107 15.6572 95.7926 16.0701C95.2053 16.5519 94.5835 16.9304 94.0998 17.2057C93.5126 17.6531 93.3053 17.7907 92.4071 18.2037Z" fill="#2C3B8E"/>
<path d="M91.8202 15.313V15.3474V15.3818V15.4162V15.4506V15.485V15.5195V15.5883V15.6227L91.7856 15.898C92.3729 15.1409 93.0984 14.2462 93.7547 13.3859C94.2384 12.8009 94.6184 12.4568 95.0675 12.1815C94.6875 13.2483 94.0311 14.1086 93.582 14.5215C93.1329 14.9345 92.442 15.6571 91.7856 16.1045L91.7165 16.3109C91.6474 16.5174 91.5784 16.7239 91.4747 16.8959C91.302 17.1712 91.1293 17.4121 90.8875 17.6874C91.0602 17.5841 91.302 17.4809 91.5093 17.4121L91.7165 17.3089C93.5129 16.3453 95.3093 14.3839 96.0347 13.0074C96.7602 11.631 96.4838 10.0136 96.2765 9.15332C95.4475 9.84155 94.2729 11.218 93.7547 11.9406C93.1329 12.9386 92.3038 14.2462 91.8202 15.313Z" fill="#2C3B8E"/>
<path d="M69.1933 26.2214L69.1242 26.2902L69.0551 26.359L68.9861 26.4279L68.917 26.5311L68.8133 26.6343L68.7097 26.7376L68.6061 26.8408L68.5024 26.944L68.3988 27.0473L68.2952 27.1505L68.1915 27.2537L68.0879 27.357L67.9842 27.4946L67.8806 27.6323L67.777 27.7699L67.6733 27.9076L67.6042 28.0452L67.5351 28.1829L67.4661 28.3205L67.397 28.4581L67.3279 28.5958L67.2588 28.7679L67.1897 28.9055L67.1206 29.0775L67.0861 29.2496L67.0515 29.4217L67.017 29.5937L66.9824 29.7658V29.9378V30.1099V30.282V30.454C66.9824 30.454 68.4333 30.0067 69.0551 28.9399C69.6424 27.8732 70.0224 27.1849 70.2642 26.944C70.0915 26.9785 69.9188 26.9785 69.7806 26.944L69.6424 26.9096C69.2624 27.5979 68.537 28.699 67.8806 29.0775C67.8806 29.0775 67.7079 28.1829 69.6424 26.359C69.677 26.2902 69.7115 26.187 69.7461 26.1182C69.6424 26.187 69.4351 26.2214 69.1933 26.2214Z" fill="#2C3B8E"/>
<path d="M89.2297 16.1738L89.1606 16.3459L89.0915 16.4835L89.0224 16.6556L88.9188 16.8277L88.8497 16.8965L88.7806 16.9653L88.7115 17.0341L88.6424 17.1029L88.5733 17.1718L88.5042 17.2406L88.4351 17.3094L88.366 17.3782L88.2969 17.4815L88.2278 17.5503L88.1588 17.6535L88.0551 17.7568L87.9515 17.86L87.8478 17.9632L87.7442 18.0665L87.6406 18.1697L87.5369 18.2729L87.4333 18.3762L87.3297 18.4794L87.1915 18.5826L87.0533 18.6859L86.9151 18.7891L86.7769 18.8924L86.6388 18.9956C86.2588 19.2365 85.8442 19.7871 86.1551 20.5097C86.466 21.2668 87.0533 22.2991 86.7078 22.712C86.3624 23.125 85.1188 23.3314 84.0824 22.9185C84.0824 22.9185 83.8751 23.5723 83.4951 23.9853C83.4951 23.9853 83.6678 24.3294 84.2551 24.1573C84.2551 24.1573 84.0478 24.6735 84.3242 25.2585C84.3242 25.2585 85.0151 25.1553 85.2915 24.5014C85.2915 24.5014 85.5678 24.9832 86.1206 25.1553C86.1206 25.1553 86.5697 24.9144 86.466 24.0197C86.466 24.0197 86.8115 24.8111 87.8133 24.9488C87.8133 24.9488 88.4006 24.2261 87.6406 23.2282C87.6406 23.2282 88.1933 23.71 89.1951 23.4691C89.1951 23.4691 89.3678 22.9529 88.4351 22.2647C88.4351 22.2647 89.4715 22.2303 89.8515 21.37C89.8515 21.37 89.4024 20.8538 88.366 20.957C88.366 20.957 89.3333 20.7506 89.5751 19.5806C89.5751 19.5806 88.8842 19.1332 87.7442 19.8559C87.7442 19.8559 87.9515 19.4773 88.4006 19.0988C88.8497 18.7547 89.4369 17.7223 89.2297 16.1738Z" fill="#2C3B8E"/>
<path d="M85.153 27.9422L85.1875 27.9078L85.2221 27.8734L85.2566 27.8389L85.2912 27.8045L85.3257 27.7701L85.3603 27.7357L85.3948 27.7013L85.4294 27.6669L85.4639 27.6325V27.5981L85.4984 27.5637V27.5292L85.533 27.4948V27.4604V27.426V27.3916C85.3603 28.8025 85.2912 29.766 84.5312 30.6951C84.5312 30.6951 84.0821 30.0757 84.3584 28.596C84.4966 28.5616 84.6348 28.4928 84.773 28.3895C84.773 28.3895 84.6003 29.0089 84.7039 29.5939C84.6348 29.5939 84.9112 29.3875 85.153 27.9422Z" fill="#2C3B8E"/>
<path d="M86.4654 27.8045L86.5 27.7701V27.7357L86.5345 27.7013L86.5691 27.6669L86.6036 27.6325L86.6382 27.5981L86.6727 27.5637L86.7073 27.5292L86.7418 27.4948L86.7764 27.4604L86.8109 27.426V27.3916C86.88 28.2175 87.0873 30.3854 86.3618 31.0736C86.3618 31.0736 85.8436 30.6951 85.6709 27.5292C85.7745 27.7013 85.9473 27.9078 86.0509 28.011C86.0509 28.011 85.9473 29.0089 86.2927 29.7316C86.3273 29.5939 86.6727 29.3187 86.4654 27.8045Z" fill="#2C3B8E"/>
<path d="M88.1926 29.4567L88.1235 29.3878L88.0544 29.319L87.9853 29.2158L87.9508 29.1125L87.8817 29.0093L87.8472 28.9061L87.8126 28.8028L87.7781 28.6996L87.7435 28.5964L87.709 28.4931L87.6744 28.3899L87.6399 28.2523L87.5708 28.0114L87.6053 27.8393L87.5708 27.7361L87.5363 27.6329V27.5296L87.5017 27.4264V27.3231V27.2199V27.1167V27.0134V26.9446V26.8758V26.807V26.7726V26.7381V26.7037V26.6693V26.6349V26.6005C87.3981 26.5317 87.329 26.4973 87.2599 26.4284C87.2253 26.394 87.1908 26.3596 87.1562 26.3252C87.1562 26.394 87.1562 26.4973 87.1562 26.5661C87.2599 27.8737 87.3635 29.2502 87.7781 29.9384C88.1926 30.5922 88.9181 30.9364 88.9181 30.9364C89.609 29.6975 88.7799 28.0458 88.0544 26.8758C87.9508 26.8414 87.8817 26.807 87.7781 26.7726C87.9163 27.5984 88.3999 28.6652 88.1926 29.4567Z" fill="#2C3B8E"/>
<path d="M89.9546 25.6713V25.7402V25.7746V25.809V25.8434V25.8778C89.9546 25.8778 89.9546 25.9466 89.92 25.981C90.5073 26.5316 90.9564 27.0822 91.82 28.2866C92.6837 29.491 94.0655 29.5254 94.0655 29.5254C93.9273 28.5619 93.651 27.7704 92.9255 26.979C92.2 26.1531 91.2673 25.3961 90.5764 24.8799C90.4037 24.9487 90.1619 25.0175 89.8855 24.9831C89.851 24.9831 89.851 24.9831 89.8164 24.9831C89.92 25.0863 89.9546 25.224 89.9891 25.3272C90.5073 25.6369 92.0273 26.394 92.6491 27.6328C92.5455 27.736 91.6128 27.4263 89.9546 25.6713Z" fill="#2C3B8E"/>
<path d="M91.0254 24.4662L90.9563 24.363C90.9563 24.3286 90.9217 24.2942 90.8872 24.2598C91.4399 24.4662 93.4781 25.2233 94.0999 25.5674C94.7563 25.9115 95.689 26.6686 96.2072 28.2171C96.2072 28.2171 94.8599 28.3203 93.7199 27.4256C92.6145 26.4965 91.3018 25.2233 90.749 24.8104C90.8181 24.776 90.8527 24.7071 90.8872 24.6727C90.8872 24.6727 92.4072 26.0148 93.9963 26.5998C93.9963 26.5998 93.6508 25.9803 93.029 25.533C92.269 24.948 91.7163 24.776 91.0254 24.4662Z" fill="#2C3B8E"/>
<path d="M92.1653 23.5373V23.5029V23.4685V23.4341V23.3996V23.3652C92.8216 23.5029 94.4798 23.7093 95.2398 23.9158C95.9653 24.1567 97.3125 24.6729 98.1071 26.187C98.1071 26.187 96.9325 26.5311 94.7216 25.4988C92.5107 24.4664 91.8198 24.2599 91.4053 24.1223C91.7507 24.0879 91.9925 23.9846 92.0962 23.9158C92.9598 24.2943 94.1344 24.7761 95.3089 24.8105C95.3089 24.8105 94.7216 24.3976 94.1344 24.1567C93.4435 23.9158 92.718 23.6749 92.1653 23.5373Z" fill="#2C3B8E"/>
<path d="M92.1312 22.4363L92.0967 22.4707H92.0621H92.0276L91.993 22.5051H91.9585H91.9239H91.8894H91.8549H91.8203H91.7858H91.7512H91.7167H91.6821H91.6476H91.613H91.5785H91.5439H91.5094H91.4749C91.613 22.6084 91.7858 22.746 91.9239 22.8837C92.6839 23.1245 94.0312 23.331 96.2076 23.5031C98.3839 23.6751 99.5585 23.2622 99.5585 23.2622C98.7985 22.8149 97.5894 22.3331 96.7603 22.161C95.9312 21.989 93.7894 22.0234 92.8567 21.8857C92.8567 21.8857 92.753 21.989 92.5458 22.0922C93.3403 22.161 95.033 22.2299 95.8967 22.6772C95.8621 22.8493 94.2385 23.0557 92.1312 22.4363Z" fill="#2C3B8E"/>
<path d="M85.4985 25.052L85.464 25.0176C85.3603 25.1552 84.9803 25.637 84.7731 26.1188C84.6349 26.5317 84.4967 27.0479 84.4276 27.3576C84.3585 27.6673 84.1167 28.3211 83.9785 28.562C83.9785 28.562 84.5658 28.6308 85.0149 28.1146C85.464 27.5984 85.6022 27.1167 85.6712 26.5661C85.5676 26.0155 85.5331 25.4305 85.4985 25.052Z" fill="#2C3B8E"/>
<path d="M86.4313 25.1203L86.3967 25.1548L86.3276 25.1892L86.224 25.1548C86.1549 25.1204 86.0858 25.0859 86.0167 25.0859C85.9476 25.3268 85.9131 25.43 85.8785 25.6365C85.844 25.9118 85.8094 26.3247 85.9131 26.6689C86.0513 27.0818 86.2931 27.3571 86.4313 27.5292C86.4313 27.5292 86.8113 27.0818 86.9495 26.7377C87.0531 26.3592 87.1222 25.9462 86.9495 25.4989C86.6731 25.4645 86.5349 25.258 86.4313 25.1203Z" fill="#2C3B8E"/>
<path d="M87.7785 25.1891H87.7439H87.7094H87.6748H87.6403H87.5712H87.5021L87.433 25.1547H87.3639L87.2948 25.1202L87.2258 25.0858L87.1567 25.0514L87.0876 25.017L87.0185 24.9826L86.9494 24.9482L86.9148 24.9138L86.8458 24.8794L86.8112 24.845L86.7767 24.8105C86.7076 24.9482 86.6385 25.1547 86.7076 25.3955C86.7767 25.6708 86.9494 25.9805 87.2258 26.187C87.6058 26.4967 88.1585 26.8064 88.7458 26.7032C88.8148 26.7032 88.953 26.2558 87.7785 25.1891Z" fill="#2C3B8E"/>
<path d="M88.2275 24.4326V24.467V24.5014V24.5359V24.5703V24.6047V24.6391V24.6735V24.7079V24.7423V24.7767V24.8112V24.8456V24.88V24.9144V24.9488V24.9832V25.0176V25.052V25.0864C88.3657 25.2585 88.8839 26.1188 89.9203 25.9811C89.9203 25.9811 90.1966 25.3961 89.5057 24.9144C88.7803 24.6047 88.5384 24.5359 88.2275 24.4326Z" fill="#2C3B8E"/>
<path d="M88.124 23.7099H88.1931H88.2622H88.3313H88.4004H88.4695H88.5386H88.6077H88.6768H88.7458H88.8149H88.884H88.9531H88.9877H89.0222H89.0567H89.0913H89.1258H89.1604H89.1949H89.2295L89.3331 23.6755L89.3677 23.5723C89.8858 24.0196 90.5422 24.0885 90.7495 24.467C90.7495 24.467 90.4731 24.9487 89.7822 24.8799C89.0913 24.8111 88.5731 24.467 88.1931 24.0196C88.1931 23.9164 88.1586 23.7787 88.124 23.7099Z" fill="#2C3B8E"/>
<path d="M89.3326 23.0901L89.2981 23.0212V22.9868V22.9524L89.2635 22.918V22.8836L89.229 22.8492L89.1945 22.8148V22.7804L89.1599 22.746V22.7115V22.6771V22.6427V22.6083V22.5739V22.5395L89.1254 22.5051V22.4707L89.0908 22.4362C89.5399 22.3674 89.9545 22.333 90.5072 22.4362C91.1635 22.5395 91.8199 22.7116 92.1308 23.6751C92.1308 23.6751 91.7163 24.0192 90.9563 23.8815C90.2308 23.8127 89.6435 23.5374 89.3326 23.0901Z" fill="#2C3B8E"/>
<path d="M89.6094 22.0233L89.6785 21.9544L89.713 21.92L89.7476 21.8856L89.7821 21.8512L89.8166 21.8168L89.8512 21.7824L89.8857 21.748L89.9203 21.7136L89.9548 21.6791L89.9894 21.6447L90.0239 21.6103L90.0585 21.5759L90.093 21.5415L90.1276 21.5071L90.1621 21.4727L90.2312 21.3694C90.7839 21.1286 91.3712 21.0253 91.9585 21.2318C92.5457 21.4383 92.6839 21.6791 92.8221 21.92C92.8221 21.92 92.2003 22.4362 91.4748 22.4706C90.5766 22.4362 89.9203 22.2297 89.6094 22.0233Z" fill="#2C3B8E"/>
<path d="M89.437 20.8881H89.4025H89.3679H89.3334H89.2988H89.2643H89.2297H89.1952H89.1606H89.1261H89.0916H89.057H89.0225C89.2643 20.6816 89.5061 20.3375 89.6443 19.8557C89.9206 19.9246 90.5079 19.9246 90.7843 19.8213C91.0606 19.7181 91.5788 19.7181 91.9934 19.9934C91.9934 19.9934 91.8552 20.716 90.9225 20.9569C90.1279 21.0601 89.817 20.9913 89.437 20.8881Z" fill="#2C3B8E"/>
<path d="M89.7817 19.4773L89.6781 19.4084C89.6781 19.4084 89.4363 19.2708 89.0908 19.2364C89.4017 18.9955 90.0926 18.4105 90.6108 18.1352C91.1635 17.8255 92.0963 17.4126 92.5454 17.3438C92.5454 17.3438 92.0963 18.4793 91.6126 18.9611C91.0599 19.4429 90.6799 19.6149 89.7817 19.4773Z" fill="#2C3B8E"/>
<path d="M88.8496 18.9612L88.8842 18.8924L88.9187 18.8235L88.9532 18.7547L88.9878 18.6859L89.0223 18.6171L89.0569 18.5483L89.0914 18.4794L89.126 18.4106L89.1605 18.3418L89.1951 18.273L89.2296 18.2041L89.2642 18.1353L89.2987 18.0665L89.3332 17.9977L89.3678 17.8944L89.4023 17.8256C89.506 17.4471 89.7478 16.4836 89.886 16.2427C90.0242 16.0018 90.5423 15.1415 91.5442 14.8662C91.5442 14.8662 91.8205 15.9674 91.3023 16.8621C90.8532 17.6191 89.9551 18.4106 88.8496 18.9612Z" fill="#2C3B8E"/>
<path d="M83.2528 24.1567L83.1837 24.1911L83.1492 24.2255H83.1146L83.0801 24.2599H83.0456L83.011 24.2943H82.9765H82.9419L82.9074 24.3287H82.8728H82.8383H82.8037H82.7692C82.7692 24.3287 82.4583 24.9481 82.8383 25.6708C83.2183 26.3934 83.5637 27.1505 83.7019 27.5978C83.7019 27.5978 83.9092 27.5634 84.151 26.3934C84.3237 25.6019 84.4965 25.4299 84.7037 25.1546C84.4619 25.2578 84.2892 25.2922 84.2892 25.2922L84.151 25.3267L84.0819 25.189C83.9437 24.9137 83.9092 24.6728 83.9092 24.4664C83.9092 24.3975 83.9092 24.3287 83.9092 24.2599C83.5637 24.2599 83.3565 24.0878 83.2874 23.9846C83.2874 23.9846 83.2874 23.9846 83.2528 23.9502V24.1567Z" fill="#2C3B8E"/>
<path d="M89.5057 26.2214L89.5748 26.2902L89.6439 26.359L89.713 26.4279L89.7821 26.5311L89.8857 26.6343L89.9548 26.7376L90.0585 26.8408L90.1621 26.944L90.2657 27.0473L90.3694 27.1505L90.473 27.2537L90.5766 27.357L90.6803 27.4946L90.7839 27.6323L90.8875 27.7699L90.9566 27.9076L91.0603 28.0452L91.1294 28.1829L91.1985 28.3205L91.2675 28.4581L91.3366 28.5958L91.4057 28.7679L91.4748 28.9055L91.5439 29.0775L91.613 29.2496L91.6475 29.4217L91.6821 29.5937L91.7166 29.7658V29.9378V30.1099V30.282V30.454C91.7166 30.454 90.2657 30.0067 89.6439 28.9399C89.0566 27.8732 88.6766 27.1849 88.4348 26.944C88.6075 26.9785 88.7457 26.9785 88.9185 26.944L89.0566 26.9096C89.4366 27.5979 90.1621 28.699 90.8185 29.0775C90.8185 29.0775 90.9912 28.1829 89.0566 26.359C89.0221 26.2902 88.9875 26.187 88.9185 26.1182C89.0221 26.187 89.2294 26.2214 89.5057 26.2214Z" fill="#2C3B8E"/>
<path d="M78.209 11.7688V11.7344H78.2435H78.2781H78.3126H78.3472H78.3817H78.4163H78.4508H78.4853H78.5199H78.5544H78.589H78.6235H78.6581H78.6926H78.7617H78.7963H78.8653H78.9344H79.0035H79.0726H79.1417H79.2108H79.2799H79.349H79.4181C80.0399 11.7344 80.5581 11.8376 80.5581 11.9753C80.5581 12.1129 80.0399 12.2161 79.4181 12.2161C78.7963 12.2161 78.209 11.9064 78.209 11.7688Z" fill="#2C3B8E"/>
<path d="M74.3057 13.0764L74.3402 13.042H74.3748H74.4093H74.4438H74.4784H74.5129H74.5475H74.582H74.6166H74.6511H74.6857H74.7202H74.7548H74.7893H74.8238H74.8584H74.8929H74.9275H74.962H74.9966H75.0311C75.4457 13.042 75.7566 13.1108 75.7566 13.1796C75.7566 13.2485 75.4111 13.3173 75.0311 13.3173C74.6511 13.214 74.3057 13.1452 74.3057 13.0764Z" fill="#2C3B8E"/>
<path d="M79.5563 12.285V12.3194C79.4526 12.3194 79.3145 12.2162 79.3145 12.0786C79.3145 11.9753 79.4181 11.8721 79.5563 11.8721C79.4526 12.0785 79.5563 12.1818 79.5563 12.285Z" fill="#2C3B8E"/>
<path d="M78.1062 11.5275L78.0716 11.4243L78.0371 11.3554L78.0026 11.2866L77.968 11.2178L77.9335 11.149L77.8989 11.0802L77.8644 11.0113L77.8298 10.9425L77.7953 10.8737L77.7607 10.8049L77.7262 10.736L77.6916 10.6672L77.6571 10.5984L77.6226 10.5296L77.588 10.4608L77.5535 10.3919L77.5189 10.3231V10.2543V10.1855L77.4844 10.1166V10.0822V10.0478V10.0134V9.97898V9.94458V9.91018V9.87575V9.84135V9.80693V9.77252V9.73812V9.7037C77.4844 9.56605 77.6571 9.46282 77.7953 9.42841C77.968 9.394 78.0716 9.35958 78.1753 9.42841C78.3826 9.60046 78.5553 10.8049 78.6244 11.321C78.4516 11.3899 78.348 11.4243 78.1062 11.5275Z" fill="#2C3B8E"/>
<path d="M78.7965 11.3559H78.8656H78.9001H78.9347H78.9692H79.0038H79.0729C79.0038 10.8741 78.831 10.0827 78.7274 9.73857C78.6238 9.42886 78.4856 9.18796 78.2783 9.11914C78.2783 9.11914 78.451 9.5665 78.5201 10.0139C78.6929 10.4612 78.7274 10.9085 78.7965 11.3559Z" fill="#2C3B8E"/>
<path d="M77.5879 12.9383H77.6224H77.657H77.6915H77.7261H77.7606L77.7952 12.9039H77.8297L77.8643 12.8695L77.8988 12.8351L77.9333 12.8006L77.9679 12.7662L78.0024 12.7318L78.037 12.6974L78.0715 12.663L78.1061 12.6286L78.1406 12.5942L78.1752 12.5598L78.2097 12.5253L78.2443 12.4909H78.2788L78.3133 12.4565L78.3479 12.4221H78.3824L78.417 12.3877C77.7606 12.4909 77.5879 12.9383 77.5879 12.9383Z" fill="#2C3B8E"/>
<path d="M78.2438 12.9039L78.1747 12.9383L78.1056 12.9727L78.0365 13.0071L77.9674 13.0415L77.8983 13.0759L77.8292 13.1104H77.7601L77.691 13.1448H77.6219H77.5528H77.4838H77.4147H77.3801H77.311H77.2765H77.2419H77.2074H77.1728H77.1383H77.1038H77.0692H77.0347H77.0001H76.9656H76.931H76.8965C77.0347 12.9039 77.1383 12.6974 77.5183 12.4565C77.8983 12.1812 78.4856 12.1124 78.7274 12.1468C78.7274 12.3877 78.5201 12.7662 78.2438 12.9039Z" fill="#2C3B8E"/>
<path d="M76.0333 13.8332V13.9021C76.0333 13.9021 75.1006 13.9021 75.066 14.3838C74.9278 14.2806 74.8242 14.1085 74.7897 13.9021C74.7897 13.8676 75.4806 13.9021 76.0333 13.8332ZM78.106 13.2138C77.6569 13.4203 76.3097 13.4547 75.5842 13.4891H75.5151H75.446H75.3769H75.3078H75.2388H75.1697H75.1006L75.0315 13.4547H74.9624L74.8933 13.4203H74.8242L74.7551 13.3859L74.686 13.3515H74.6169L74.5478 13.3171H74.4788L74.4097 13.2827H74.3751L74.306 13.2482L74.2715 13.2138H74.2369L74.2024 13.1794L74.1678 13.145H74.1333H74.0987L74.0642 13.1106H74.0297L73.9951 13.0762H74.1333C74.2024 14.6591 75.3078 14.7623 75.3078 14.7623C75.3078 14.6247 75.3078 14.4182 75.3078 14.4182C75.6533 14.7279 76.3442 14.9688 76.3442 14.9688C76.3442 14.7623 76.2751 14.6247 76.2751 14.6247C76.5515 14.7967 76.7588 14.7967 76.7588 14.7967C76.7242 14.5559 76.586 14.315 76.586 14.315C76.7933 14.5903 77.0351 14.5903 77.0351 14.5903C77.0697 14.4526 77.0006 14.1429 77.0006 14.1429C77.1042 14.2806 77.3115 14.5903 77.8987 14.7279C78.5206 14.8656 78.7969 14.4871 78.7969 14.4871C78.2097 14.5215 77.6569 13.9709 77.6569 13.9709C77.9678 13.8677 78.0715 13.6268 78.0715 13.6268C77.8987 13.4547 77.6915 13.4547 77.6915 13.4547C78.0024 13.4891 78.106 13.2138 78.106 13.2138Z" fill="#2C3B8E"/>
<path d="M73.9951 13.3518V13.4206V13.4894V13.5582V13.6271V13.6959V13.7647V13.8335V13.9023V13.9712V14.04V14.1088L74.0297 14.1776V14.2465L74.0642 14.3153L74.0988 14.3497L74.1333 14.3841C74.1333 14.3841 73.7188 14.0744 73.6151 13.7991C73.5806 13.4206 73.5461 13.2485 73.9951 13.3518Z" fill="#2C3B8E"/>
<path d="M73.1309 14.3149C73.2345 14.3149 73.3036 14.4181 73.3036 14.4869V14.5213V14.5557H73.2691V14.5901V14.6245H73.2345V14.659V14.6934H73.2V14.7278H73.1655V14.7622H73.1309H73.0964V14.7966H73.0618H73.0273L72.9927 14.831H72.9582C72.8545 14.831 72.7855 14.7278 72.7855 14.659C72.9582 14.3837 73.0273 14.3149 73.1309 14.3149ZM72.7164 13.661C72.5436 13.6954 72.3709 13.7643 72.2327 13.9363C72.0255 14.246 72.0945 14.8654 72.5436 15.1407C72.5436 15.1407 73.2345 14.5557 74.0636 15.1063C74.0636 15.1063 74.2364 15.0031 74.6855 14.8999V14.8654H74.6509V14.831L74.6164 14.7966L74.5818 14.7622H74.5473V14.7278L74.5127 14.6934L74.4782 14.659L74.4436 14.6245L74.4091 14.5901L74.3745 14.5557H74.34L74.3055 14.5213H74.4782L74.4436 14.4869H74.4091L74.3745 14.4525L74.34 14.4181L74.3055 14.3837L74.2709 14.3493L74.2364 14.3149L74.2018 14.2804L74.1673 14.246L74.1327 14.2116H74.0982L74.0636 14.1772L74.0291 14.1428C73.7873 14.0396 73.2345 13.8675 73.0964 13.3857C73.0964 13.661 72.9236 13.661 72.7164 13.661Z" fill="#2C3B8E"/>
<path d="M74.7891 15.0039L74.8236 15.0383V15.0727V15.1071V15.1415H74.8582V15.176L74.8927 15.2104V15.2448L74.9272 15.2792L74.9618 15.3136L74.9963 15.348L75.0309 15.4168L75.0654 15.4513L75.1 15.4857L75.1345 15.5201L75.1691 15.5545H75.2036L75.2382 15.5889H75.2727L75.3072 15.6233C75.3072 15.6233 74.1672 15.6233 73.8909 16.5868C73.8909 16.5868 73.5109 16.0018 73.7872 15.6233C74.1327 15.1415 74.4091 15.1071 74.7891 15.0039Z" fill="#2C3B8E"/>
<path d="M76.033 15.2443H76.0675H76.102H76.1366H76.1711H76.2057H76.2402H76.2748H76.3093H76.3439C76.3439 15.2443 76.3439 15.0378 76.3439 14.9346C76.4475 14.969 76.5857 15.0034 76.6893 15.0034C76.6893 15.0034 77.0348 15.7949 77.3457 16.1046C77.3457 16.1046 77.3457 16.2766 77.2075 16.5519C77.2075 16.5519 77.0002 16.1046 76.6202 15.6916C76.5857 15.6572 76.4475 15.554 76.033 15.2443Z" fill="#2C3B8E"/>
<path d="M75.1006 15.0723H75.1351H75.1697H75.2042H75.2388H75.2733H75.3079H75.3424H75.377H75.4115H75.446H75.4806H75.5151H75.5497L75.6188 15.1067L75.6879 15.1411L75.7569 15.1755L75.826 15.2099L75.8606 15.2443H75.8951H75.9297L75.9642 15.2787H75.9988H76.0333L76.0679 15.3131H76.1024C76.4479 15.554 76.6897 15.8637 76.6551 16.3455C76.6551 16.3455 76.3788 15.9326 76.0679 15.7605C75.757 15.7949 75.3079 15.4164 75.1006 15.0723Z" fill="#2C3B8E"/>
<path d="M75.1007 11.4587H75.1352C75.1352 11.6307 74.8589 12.0436 74.7898 12.2157C74.7207 12.0436 74.4443 11.6307 74.4443 11.4587C74.4443 11.2866 74.6516 11.2178 74.7552 11.2178H75.1007V11.4587Z" fill="#2C3B8E"/>
<path d="M74.8585 12.7664V12.6976V12.6632V12.6288V12.5944V12.56V12.5256V12.4911V12.4567V12.3879L74.8239 12.3191V12.2503V12.1814V12.147V12.1126V12.0782V12.0438V12.0094V11.975V11.9406V11.9061V11.8717V11.8373V11.8029V11.7685C74.6857 11.6308 74.4785 11.6309 74.3748 11.6309C74.2712 11.6309 74.1675 11.7341 74.2021 11.8717C74.2366 12.0094 74.7203 12.6976 74.7894 12.8008C74.6166 12.8008 74.5821 12.8008 74.8585 12.7664Z" fill="#2C3B8E"/>
<path d="M75.2734 12.7664V12.6976V12.6632V12.6288V12.5944V12.56V12.5256V12.4911V12.4567V12.3879V12.3191V12.2503L75.308 12.1814V12.147V12.1126V12.0782V12.0438V12.0094V11.975V11.9406V11.9061V11.8717V11.8373V11.8029V11.7685C75.4462 11.6308 75.6534 11.6309 75.7571 11.6309C75.8607 11.6309 75.9643 11.7341 75.9298 11.8717C75.8953 12.0094 75.4116 12.6976 75.3771 12.8008C75.5153 12.8008 75.5153 12.8008 75.2734 12.7664Z" fill="#2C3B8E"/>
<path d="M75.5497 10.5992H75.2042V10.2207H74.9279V10.5992H74.5479V10.8745H74.9279V11.3219H75.2042V10.8745H75.5497V10.5992Z" fill="#2C3B8E"/>
<path d="M71.1969 13.1797V13.1109V13.0764V13.042V13.0076V12.9732C71.2314 12.7667 71.2314 12.5947 71.1969 12.457C70.9205 12.5603 70.7478 12.6291 70.4023 13.1797C70.4023 13.1797 70.9896 12.8356 71.1969 13.1797Z" fill="#2C3B8E"/>
<path d="M71.68 14.074V14.0396V14.0052V13.9708V13.9364V13.902V13.8675V13.8331V13.7987V13.7643V13.7299V13.6955V13.6611V13.6267V13.5578V13.489L71.7145 13.4202V13.3514L71.7491 13.2825L71.7836 13.2137L71.8182 13.1449V13.1105V13.0761C71.9563 12.6975 71.8872 12.1125 71.7145 11.7684C71.5418 11.4243 71.4382 11.1146 71.4727 10.7705C71.4727 10.7705 71.1272 10.8737 70.9545 11.0114C70.92 11.4243 71.1618 11.8028 71.2654 12.0437C71.4036 12.319 71.3691 12.6631 71.3345 12.8696C71.3691 13.3514 71.4382 13.7299 71.68 14.074Z" fill="#2C3B8E"/>
<path d="M71.7148 11.0466V11.0122C71.7148 11.0122 72.233 10.496 72.6821 10.3928C72.9585 10.324 73.1312 10.4616 73.2348 10.5304C73.2348 10.5304 73.0621 10.5304 72.8203 10.7025C72.5785 10.8746 72.3021 11.1154 72.0603 11.1842C71.8876 11.0466 71.8185 11.0466 71.7148 11.0466Z" fill="#2C3B8E"/>
<path d="M73.3035 10.3926L73.338 10.427L73.3726 10.4614L73.4071 10.4958L73.4417 10.5302L73.4762 10.5646L73.5108 10.5991V10.6335V10.6679V10.7023V10.7367V10.7711V10.8055V10.8399V10.8743V10.9088C73.5108 11.0808 73.269 11.5626 73.1653 11.769C73.0617 11.9411 72.8889 12.182 72.8889 12.4573C72.8889 12.5949 72.9926 12.767 73.1308 12.8702C73.1308 12.8702 72.4744 12.6982 72.4053 12.3196C72.3362 11.9755 72.4744 11.7002 72.578 11.4938C72.6817 11.3217 72.9926 10.8743 73.0617 10.7023C73.3035 10.5991 73.3035 10.4958 73.3035 10.3926Z" fill="#2C3B8E"/>
<path d="M77.1035 14.9004L77.1381 14.9692L77.1726 15.0724L77.2071 15.1413L77.2417 15.2101L77.2762 15.2789L77.3108 15.3477L77.3453 15.4166L77.3799 15.4854L77.4144 15.5542L77.449 15.623L77.4835 15.6919L77.5181 15.7607L77.5526 15.8295L77.5871 15.8983L77.6217 15.9671L77.6562 16.036C77.8635 16.3457 77.9672 16.8618 77.9672 17.0339C77.9672 17.0339 78.2435 16.3801 78.1053 15.9327C78.0017 15.6574 77.6908 15.1413 77.1035 14.9004Z" fill="#2C3B8E"/>
<path d="M77.8293 15.0381H77.8639H77.8984H77.933H77.9675H78.0021H78.0366H78.0712H78.1057H78.1403H78.1748H78.2093H78.2439H78.2784H78.313H78.3475H78.3821H78.4166H78.4512H78.4857H78.5203H78.5548H78.5893H78.6239H78.6584C78.9348 15.2101 79.1766 15.5887 79.2803 16.0704C79.2803 16.0704 78.8312 16.0016 78.5893 15.7607C78.2093 15.6919 77.933 15.3822 77.8293 15.0381Z" fill="#2C3B8E"/>
<path d="M75.5153 15.8633H75.4807H75.4462H75.4116H75.3771H75.3425H75.308H75.2734C75.2734 15.8633 75.6534 15.9665 75.8262 16.1386C75.9989 16.2762 76.1371 16.4827 76.2062 16.8268C76.3098 17.3086 76.5862 17.8247 76.6553 17.9968H76.6898C76.6207 17.6527 76.828 16.9644 76.8971 16.8612C76.8971 16.8612 76.5862 16.6547 76.448 16.4827C76.2062 16.4139 76.0334 16.173 75.5153 15.8633Z" fill="#2C3B8E"/>
<path d="M77.5186 16.8965L77.5531 16.9309V16.9653V16.9997V17.0341V17.0685V17.1029L77.5877 17.1374V17.1718V17.2062L77.6222 17.275L77.6568 17.3438V17.3782V17.4127V17.4471V17.4815V17.5159V17.5503V17.5847V17.6191V17.6535V17.6879V17.7223V17.7568V17.7912V17.8256V17.86V17.8944V17.9288V17.9632C77.5186 18.445 77.2077 18.6515 77.035 19.03C77.035 19.03 76.8968 18.3074 76.9313 17.7568C77.0695 17.3094 77.2422 17.103 77.5186 16.8965Z" fill="#2C3B8E"/>
<path d="M78.382 16.9307V16.9651V16.9995V17.0339V17.0683L78.4165 17.1027V17.1371L78.4511 17.1715L78.4856 17.206L78.5201 17.2404V17.3092L78.5547 17.3436L78.5892 17.378L78.6238 17.4468L78.6583 17.5501L78.6929 17.6533L78.7274 17.7221L78.762 17.7565L78.7965 17.791V17.8598V17.8942V17.9286V17.963V17.9974V18.0318V18.0662C78.8656 18.4104 78.7965 18.6168 78.6583 18.8233C78.5201 19.0298 78.2438 19.2362 78.002 19.6836C78.002 19.6836 77.7256 19.3395 77.6911 19.133C77.6565 18.9265 77.7256 18.4792 77.7601 18.3071C77.7947 18.1351 78.1747 17.5501 78.382 16.9307Z" fill="#2C3B8E"/>
<path d="M78.589 19.6494L78.5544 19.6838H78.5199V19.7182L78.4853 19.7526L78.4508 19.787L78.4162 19.8215L78.3817 19.8559L78.3472 19.8903L78.3126 19.9247L78.2781 19.9591L78.2435 19.9935L78.209 20.0279L78.1399 20.0968L78.0708 20.1656L78.0362 20.2L78.0017 20.2344L77.9672 20.2688L77.9326 20.3032L77.8981 20.3376L77.8635 20.372L77.829 20.4065L77.7944 20.4409L77.7599 20.4753V20.5097V20.5441V20.5785C77.6908 20.7506 77.5872 21.0947 77.7253 21.3356C77.8981 21.5764 78.2435 21.955 78.589 22.1271C78.589 22.1271 78.2435 21.5765 78.2781 21.1291C78.3126 20.8538 78.5199 20.5785 78.5544 20.4065C78.7272 20.2344 78.7272 19.9247 78.589 19.6494Z" fill="#2C3B8E"/>
<path d="M77.5875 19.3047L77.6221 19.3391V19.3735V19.4079V19.4423L77.6566 19.4767V19.5111V19.5456V19.58V19.6144V19.6488V19.6832V19.7176V19.752V19.7864V19.8209V19.8553C77.6566 20.0961 77.6221 20.3026 77.4839 20.7156C77.3111 21.1973 77.0348 21.7135 76.8966 21.9544C76.8966 21.9544 76.6548 21.6103 76.5166 21.3006C76.5166 21.3006 76.8966 20.7844 77.0693 20.4059C77.4148 20.0617 77.4839 19.6488 77.5875 19.3047Z" fill="#2C3B8E"/>
<path d="M77.4148 19.0986V19.1331V19.1675V19.2019V19.2363V19.2707V19.3051V19.3739V19.4427V19.5116V19.5804L77.3803 19.6492V19.7181L77.3458 19.7869L77.3112 19.8557L77.2767 19.9245L77.2421 19.9933L77.2076 20.0966L77.173 20.1654L77.1385 20.2686L77.1039 20.3719L77.0694 20.4751L77.0348 20.5783L76.8967 20.6127L76.8276 20.716L76.793 20.8192L76.7239 20.9225L76.6548 21.0257L76.5858 21.0945L76.5167 21.1978L76.4476 21.301C75.9639 21.9204 75.5494 22.1269 75.3076 22.1269C74.893 22.1269 74.513 21.7827 74.3748 21.4042C74.2367 21.0257 74.2712 20.4407 74.5476 20.2342C74.5476 20.2342 74.7894 20.9569 75.273 20.9913C75.9294 20.9913 76.6548 20.3374 77.4148 19.0986Z" fill="#2C3B8E"/>
<path d="M76.7934 18.582V18.6165V18.6509V18.6853V18.7197V18.7885V18.8573V18.9261V18.995V19.0638V19.1326V19.2015V19.2703V19.3391V19.4079V19.4767V19.5456V19.6144C76.7243 19.8553 76.5862 20.165 76.3098 20.337C76.068 20.4747 75.4807 20.5091 75.2734 19.9929C75.2734 19.8553 76.3443 19.9241 76.7934 18.582Z" fill="#2C3B8E"/>
<path d="M78.5199 23.5371L78.5544 23.6059L78.589 23.6403V23.6748L78.6235 23.7092L78.6581 23.7436L78.6926 23.778L78.7271 23.8124L78.7962 23.8812L78.8653 23.9501L78.9344 24.0189L79.0035 24.0877L79.0726 24.1565L79.1071 24.1909L79.1417 24.2253L79.1762 24.2597L79.2108 24.2942L79.2453 24.3286L79.2799 24.363V24.3974V24.4318V24.4662V24.5006V24.5351V24.5695V24.6039V24.6383C79.2799 25.3953 78.9344 25.8771 78.8653 26.118C78.8653 26.118 78.2435 25.6362 78.1399 25.0856C78.0017 24.8103 78.0362 23.95 78.5199 23.5371Z" fill="#2C3B8E"/>
<path d="M77.8291 24.054V24.0196V23.9852V23.9508V23.9163V23.8819V23.8475V23.8131V23.7787V23.7443V23.7099V23.6755L77.8636 23.6066L77.8982 23.5378L77.9327 23.469L77.9673 23.4002L78.0018 23.3658V23.3314L78.0364 23.2969L78.0709 23.2625L78.1055 23.2281L78.14 23.1937L78.1745 23.1593L78.2091 23.1249L78.2436 23.0905L78.2782 23.056L78.3127 23.0216L78.3473 22.9872C78.3473 22.9872 78.6927 22.0237 77.6218 21.4043C77.6218 21.4043 77.1727 21.9893 77.0691 22.5399C77 23.2625 77.5873 23.5722 77.8291 24.054Z" fill="#2C3B8E"/>
<path d="M76.5163 21.6104L76.4817 21.6448L76.4472 21.6792L76.4126 21.7136L76.3781 21.748L76.3435 21.7824L76.309 21.8168L76.2744 21.8512L76.2399 21.8856L76.2053 21.92L76.1708 21.9545H76.1363H76.1017V21.9889H76.0672H76.0326H75.9981H75.9635H75.929C75.929 21.9889 75.8599 22.4362 75.8944 22.7115C75.9635 23.1244 76.2399 23.5718 76.3435 23.9159C76.3435 23.9159 76.7926 23.2965 76.8617 22.9524C76.9308 22.6083 76.8963 22.2986 76.9308 22.1265C76.8963 22.2986 76.6544 21.8856 76.5163 21.6104Z" fill="#2C3B8E"/>
<path d="M75.2734 23.7091L75.2389 23.6747V23.6403V23.6059L75.2043 23.5715V23.5371L75.1698 23.5027L75.1352 23.4683L75.1007 23.4339L75.0662 23.3994L75.0316 23.365L74.9971 23.2962L74.9625 23.2618L74.928 23.193L74.8934 23.1586L74.8589 23.0897L74.8243 22.9865L74.7898 22.8833L74.7553 22.78V22.7112L74.7207 22.6424V22.5736V22.5047V22.4359V22.3671V22.2983V22.2295V22.1606V22.0918C74.7207 22.0918 75.2389 22.3671 75.688 22.1606C75.688 22.1606 75.7571 22.8489 75.6534 23.0897C75.5843 23.4339 75.4807 23.5371 75.2734 23.7091Z" fill="#2C3B8E"/>
<path d="M75.377 23.8473L75.4115 23.8129L75.446 23.7785L75.4806 23.7441L75.5151 23.7097L75.5497 23.6753L75.5842 23.6408L75.6188 23.6064C75.6188 23.6064 75.9642 24.2603 76.0333 24.4323C76.0333 24.4323 75.8606 24.4667 75.6533 24.3291C75.6188 24.0538 75.5842 24.0194 75.377 23.8473Z" fill="#2C3B8E"/>
<path d="M77.0348 23.4688V23.5032V23.5376V23.572L77.0002 23.6064L76.9657 23.6408L76.9311 23.6752L76.8966 23.7096L76.8621 23.744L76.8275 23.7785L76.793 23.8129L76.7584 23.8473L76.6893 23.9161L76.6202 24.0193L76.5857 24.0538L76.5511 24.0882L76.5166 24.1226L76.4821 24.157L76.4475 24.1914L76.413 24.2258L76.3784 24.2602L76.3439 24.2946V24.329L76.3093 24.3635C76.3093 24.3635 76.3439 24.6388 76.5511 25.0517C76.7584 25.4646 77.0693 25.7399 77.2075 25.8776C77.2075 25.8776 77.553 25.2582 77.6566 25.0173C77.7602 24.7076 77.7602 24.3979 77.7257 24.2946C77.5875 24.1914 77.2075 23.8129 77.0348 23.4688Z" fill="#2C3B8E"/>
<path d="M77.8636 25.499L77.8982 25.5679V25.6023V25.6367L77.9327 25.6711V25.7055L77.9673 25.7399V25.7743L78.0018 25.8087L78.0363 25.8431L78.0709 25.912L78.1054 25.9808L78.14 26.0496L78.1745 26.1184L78.2091 26.1873L78.2436 26.2561V26.2905L78.2782 26.3249V26.3593V26.3937V26.4281V26.4625V26.4969V26.5314V26.5658V26.6002C78.3127 26.8411 78.2782 27.0475 78.2091 27.254C78.14 27.4261 77.8982 27.7702 77.76 28.0455C77.76 28.0455 77.2418 27.5637 77.1382 27.2196C77.0691 26.9443 77.0691 26.6002 77.2072 26.3593C77.4836 26.0152 77.76 25.7399 77.8636 25.499Z" fill="#2C3B8E"/>
<path d="M76.4131 25.4297L76.4476 25.4985V25.5329V25.5673V25.6017V25.6361L76.4821 25.705L76.5167 25.7738L76.5512 25.8426L76.5858 25.9115L76.6203 25.9803L76.6549 26.0491L76.6894 26.1179L76.724 26.1867V26.2211V26.2556V26.29V26.3244V26.3588V26.3932V26.4276V26.462V26.4964V26.5309C76.7931 26.8062 76.8276 27.0126 76.6894 27.3567C76.5512 27.6664 76.4131 27.8385 76.344 28.045C76.344 28.045 75.9294 27.4944 75.8603 27.2879C75.7912 27.047 75.7567 26.7029 75.8603 26.462C76.1367 25.9803 76.3094 25.6706 76.4131 25.4297Z" fill="#2C3B8E"/>
<path d="M78.451 27.4951L78.4165 27.5295L78.382 27.5639L78.3474 27.5983L78.3129 27.6328L78.2783 27.6672L78.2438 27.7016L78.2092 27.736L78.1747 27.7704L78.1401 27.8392L78.1056 27.9081L78.071 27.9769L78.0365 28.0457L78.002 28.1145L77.9674 28.1833L77.9329 28.2522L77.8983 28.321L77.8638 28.3898L77.8292 28.4586L77.7947 28.5275L77.7601 28.5963V28.6651L77.7256 28.7339V28.7683V28.8372V28.8716V28.906V28.9404V28.9748C77.7601 29.5598 78.1401 29.9383 78.1747 30.2824C78.1747 30.2824 78.5547 29.8695 78.6929 29.5598C78.8656 29.2157 78.9692 28.9748 78.9347 28.5963C78.9347 28.1145 78.831 27.8736 78.451 27.4951Z" fill="#2C3B8E"/>
<path d="M77.1385 27.4258L77.1731 27.4602V27.4946V27.529V27.5634V27.5978V27.6323V27.6667L77.2076 27.7011V27.7355V27.7699L77.2422 27.8043V27.8387V27.8731L77.2767 27.942V27.9764V28.0108V28.0452V28.0796V28.114V28.1484V28.1828V28.2172V28.2517V28.2861V28.3205V28.3549V28.3893V28.4237V28.4581V28.4926C77.1731 28.8367 76.8276 29.284 76.6894 29.5249C76.6894 29.5249 76.4131 28.9399 76.344 28.6646C76.5167 28.3893 76.5513 27.942 77.1385 27.4258Z" fill="#2C3B8E"/>
<path d="M84.3581 13.0764L84.3236 13.042H84.289H84.2545H84.22H84.1854H84.1509H84.1163H84.0818H84.0472H84.0127H83.9781H83.9436H83.909H83.8745H83.84H83.8054H83.7709H83.7363H83.7018H83.6672H83.6327C83.2181 13.042 82.9072 13.1108 82.9072 13.1796C82.9072 13.2485 83.2527 13.3173 83.6327 13.3173C84.0127 13.214 84.3581 13.1452 84.3581 13.0764Z" fill="#2C3B8E"/>
<path d="M79.3494 10.8397V10.7709V10.7365V10.7021V10.6677V10.6333V10.5989V10.5644V10.53V10.4956L79.3839 10.3924L79.4184 10.2891L79.453 10.1859L79.4875 10.0827L79.5221 9.97943V9.94503L79.5566 9.91062V9.8762V9.8418V9.80737V9.77297V9.73857V9.70414V9.66974V9.63531V9.60091V9.56651C79.5566 9.32563 79.3494 9.11914 79.1075 9.11914C78.8657 9.11914 78.6584 9.32563 78.6584 9.56651C78.9003 9.80739 79.2803 10.4956 79.3494 10.8397Z" fill="#2C3B8E"/>
<path d="M80.5586 11.5275L80.5931 11.4243L80.6277 11.3554L80.6622 11.2866L80.6968 11.2178L80.7313 11.149L80.7659 11.0802L80.8004 11.0113L80.8349 10.9425L80.8695 10.8737L80.904 10.8049L80.9386 10.736L80.9731 10.6672L81.0077 10.5984L81.0422 10.5296L81.0768 10.4608L81.1113 10.3919V10.3231L81.1459 10.2543V10.1855V10.1166V10.0822V10.0478V10.0134V9.97898V9.94458V9.91018V9.87575V9.84135V9.80693V9.77252V9.73812V9.7037C81.1459 9.56605 80.9731 9.46282 80.8349 9.42841C80.6622 9.394 80.5586 9.35958 80.455 9.42841C80.2477 9.60046 80.075 10.8049 80.0059 11.321C80.2131 11.3899 80.3513 11.4243 80.5586 11.5275Z" fill="#2C3B8E"/>
<path d="M79.8672 11.3559H79.8326H79.7981H79.7635H79.729H79.6945H79.6599H79.6254H79.5908C79.6599 10.8741 79.8326 10.0827 79.9017 9.73857C80.0054 9.42886 80.1435 9.18796 80.3508 9.11914C80.3508 9.11914 80.1781 9.5665 80.109 10.0139C80.0054 10.4612 79.9363 10.9085 79.8672 11.3559Z" fill="#2C3B8E"/>
<path d="M80.2129 12.4229L80.2474 12.4573L80.282 12.4917L80.3165 12.5261L80.3511 12.5605H80.3856L80.4202 12.5949L80.4547 12.6293L80.4893 12.6637L80.5238 12.6981L80.5583 12.7325L80.5929 12.767L80.6274 12.8014L80.662 12.8358L80.6965 12.8702L80.7311 12.9046L80.7656 12.939L80.8002 12.9734H80.8347L80.8693 13.0079H80.9038H80.9383H80.9729H81.0074H81.042C81.0765 12.939 80.9038 12.4917 80.2129 12.4229Z" fill="#2C3B8E"/>
<path d="M79.8672 12.2158H79.9017H79.9363H79.9708H80.0054H80.0399H80.0745H80.109H80.1435H80.1781H80.2126H80.2472H80.2817H80.3163H80.3508H80.3854H80.4199H80.4545H80.489H80.5235H80.5581H80.5926H80.6272H80.6617H80.6963L80.7308 12.2502H80.7654L80.7999 12.2846L80.8345 12.3191H80.869L80.9036 12.3535L80.9381 12.3879C81.3181 12.6288 81.4217 12.8696 81.5599 13.0761C81.5599 13.0761 80.9035 13.1449 80.3163 12.8008C80.1781 12.7664 79.9363 12.3879 79.8672 12.2158Z" fill="#2C3B8E"/>
<path d="M82.6311 13.8333C83.2183 13.9021 83.8747 13.8677 83.8747 13.8677V13.9021H83.8402V13.9365L83.8056 13.9709V14.0053L83.7711 14.0398V14.0742V14.1086L83.8056 14.0742V14.1086V14.143V14.1774L83.7711 14.2118V14.2462L83.7365 14.2806L83.702 14.315V14.3494H83.6674L83.6329 14.3839V14.4183H83.5983L83.5638 14.4527V14.4871H83.5292L83.4947 14.5215L83.4602 14.5559C83.4256 14.1086 82.4929 14.0742 82.4929 14.0742V13.8333H82.6311ZM80.5929 13.2139C80.5929 13.2139 80.662 13.4892 81.0074 13.6268C81.0074 13.6268 80.8347 13.6268 80.662 13.7989C80.662 13.7989 80.7656 14.0053 81.0765 14.143C81.0765 14.143 80.5238 14.6936 79.9365 14.6592C79.9365 14.6592 80.2129 15.0033 80.8347 14.9C81.4565 14.7624 81.6292 14.4183 81.7329 14.315C81.7329 14.315 81.6638 14.6247 81.6983 14.7624C81.6983 14.7624 81.9402 14.728 82.182 14.4871C82.182 14.4871 82.0093 14.7624 82.0093 14.9688C82.0093 14.9688 82.182 14.9688 82.4929 14.7968C82.4929 14.7968 82.4238 14.9688 82.4238 15.1409C82.4238 15.1409 83.1147 14.9 83.4602 14.5903V14.6247V14.6592V14.6936V14.728V14.7624V14.7968V14.8312V14.8656V14.9V14.9344V14.9688V15.0033L83.4256 15.0377V15.0721V15.1065V15.1409V15.1753C83.4256 15.1753 84.4965 15.0721 84.6002 13.4892C84.6002 13.4892 83.8747 13.7645 83.1493 13.73C82.3547 13.4547 81.0074 13.4203 80.5929 13.2139Z" fill="#2C3B8E"/>
<path d="M84.7036 13.3518V13.4206V13.4894V13.5582V13.6271V13.6959V13.7647V13.8335V13.9023V13.9712V14.04L84.6691 14.1088V14.1776L84.6345 14.2465V14.3153L84.6 14.3497L84.5654 14.3841C84.5654 14.3841 84.98 14.0744 85.0836 13.7991C85.1182 13.4206 85.1182 13.2485 84.7036 13.3518Z" fill="#2C3B8E"/>
<path d="M85.5676 14.3154H85.6021H85.6367V14.3498H85.6712H85.7058V14.3843H85.7403L85.7749 14.4187V14.4531H85.8094V14.4875H85.844V14.5219V14.5563V14.5907V14.6251L85.8785 14.6595C85.8785 14.7628 85.7749 14.8316 85.7058 14.8316C85.6022 14.8316 85.5331 14.7284 85.5331 14.6595C85.3949 14.3843 85.464 14.3154 85.5676 14.3154ZM85.6021 13.6616L85.5676 13.696H85.5331L85.4985 13.7304H85.464H85.4294C85.2567 14.2122 84.7385 14.3498 84.4621 14.4875C84.1858 14.6251 83.9094 14.9348 83.9094 14.9348C84.3585 15.0381 84.5312 15.1413 84.5312 15.1413C85.3603 14.5563 86.0512 15.1757 86.0512 15.1757C86.5003 14.9004 86.604 14.3154 86.3621 13.9713L86.3276 13.9369L86.2931 13.9025L86.2585 13.8681L86.224 13.8337L86.1894 13.7993L86.1549 13.7648L86.1203 13.7304H86.224L86.1894 13.696L86.1549 13.6616H86.1203L86.0858 13.6272H86.0512L86.0167 13.5928H85.9822H85.9476H85.9131H85.8785H85.844H85.8094H85.7749H85.7403H85.7058H85.6712H85.6367H85.6021V13.6616Z" fill="#2C3B8E"/>
<path d="M83.8746 15.0039L83.8401 15.0383V15.0727L83.8055 15.1071V15.1415L83.771 15.176V15.2104L83.7364 15.2448V15.2792L83.7019 15.3136L83.6674 15.348L83.6328 15.4168L83.5983 15.4513L83.5637 15.4857L83.5292 15.5201L83.4946 15.5545H83.4601L83.4255 15.5889H83.391L83.3564 15.6233C83.3564 15.6233 84.4619 15.6233 84.7728 16.5868C84.7728 16.5868 85.1528 16.0018 84.8764 15.6233C84.5655 15.1415 84.2892 15.1071 83.8746 15.0039Z" fill="#2C3B8E"/>
<path d="M82.6315 15.2443H82.5969H82.5624H82.5278H82.4933H82.4587H82.4242H82.3896H82.3551H82.3205H82.286C82.286 15.2443 82.286 15.0378 82.286 14.9346C82.1824 14.969 82.0442 15.0034 81.906 15.0034C81.906 15.0034 81.5605 15.7949 81.2842 16.1046C81.2842 16.1046 81.2842 16.2766 81.4224 16.5519C81.4224 16.5519 81.6296 16.1046 81.9751 15.6916C82.0787 15.6572 82.2169 15.554 82.6315 15.2443Z" fill="#2C3B8E"/>
<path d="M83.5985 15.0723H83.5639H83.5294H83.4948H83.4603H83.4257H83.3912H83.3567H83.3221H83.2876H83.253H83.2185H83.1839H83.1494H83.1148L83.0457 15.1067L82.9767 15.1411L82.9076 15.1755L82.8385 15.2099L82.8039 15.2443H82.7694H82.7348L82.7003 15.2787H82.6657H82.6312L82.5967 15.3131H82.5621C82.2167 15.554 81.9748 15.8637 82.0094 16.3455C82.0094 16.3455 82.2857 15.9326 82.5967 15.7605C82.9076 15.7949 83.3567 15.4164 83.5985 15.0723Z" fill="#2C3B8E"/>
<path d="M83.598 11.4587H83.5635C83.5635 11.6307 83.8398 12.0436 83.9089 12.2157C83.978 12.0436 84.2544 11.6307 84.2544 11.4587C84.2544 11.2866 84.0471 11.2178 83.9435 11.2178H83.598V11.4587Z" fill="#2C3B8E"/>
<path d="M83.8398 12.7667V12.6979V12.6635V12.629V12.5946V12.5602V12.5258V12.4914V12.457V12.4226V12.3537V12.2849V12.2161L83.8744 12.1473V12.1129V12.0784V12.044V12.0096V11.9752V11.9408V11.9064V11.872V11.8376V11.8032V11.7687V11.7343C84.0126 11.5967 84.2198 11.5967 84.3235 11.5967C84.4271 11.5967 84.5308 11.6999 84.4962 11.8376C84.4617 11.9752 83.978 12.6634 83.9089 12.7667C84.0817 12.8011 84.0817 12.8011 83.8398 12.7667Z" fill="#2C3B8E"/>
<path d="M83.4256 12.7667V12.6979V12.6635V12.629V12.5946V12.5602V12.5258V12.4914V12.457V12.4226V12.3537V12.2849L83.391 12.2161V12.1473V12.1129V12.0784V12.044V12.0096V11.9752V11.9408V11.9064V11.872V11.8376V11.8032V11.7687V11.7343C83.2529 11.5967 83.0456 11.5967 82.942 11.5967C82.8383 11.5967 82.7347 11.6999 82.7692 11.8376C82.8038 11.9752 83.2874 12.6634 83.322 12.7667C83.1838 12.8011 83.1492 12.8011 83.4256 12.7667Z" fill="#2C3B8E"/>
<path d="M83.1152 10.5992H83.4607V10.2207H83.7716V10.5992H84.1171V10.8745H83.7716V11.3219H83.4607V10.8745H83.1152V10.5992Z" fill="#2C3B8E"/>
<path d="M78.7617 8.25863H79.1417V7.8457H79.4181V8.25863H79.7981V8.49951H79.4181V8.98128H79.1417V8.49951H78.7617V8.25863Z" fill="#2C3B8E"/>
<path d="M87.5025 13.1792V13.1104V13.076V13.0416C87.4679 12.8351 87.4679 12.663 87.5025 12.5254C87.7788 12.6286 87.9516 12.6974 88.297 13.248C88.2625 13.1792 87.6752 12.8351 87.5025 13.1792Z" fill="#2C3B8E"/>
<path d="M86.9838 14.074V14.0396V14.0052V13.9708V13.9364V13.902V13.8675V13.8331V13.7987V13.7643V13.7299V13.6955V13.6611V13.6267V13.5578V13.489V13.4202L86.9492 13.3514V13.2825L86.9147 13.2137L86.8801 13.1449V13.1105V13.0761C86.742 12.6975 86.8111 12.1125 86.9838 11.7684C87.1565 11.4243 87.2601 11.1146 87.2256 10.7705C87.2256 10.7705 87.5711 10.8737 87.7438 11.0114C87.7783 11.4243 87.5365 11.8028 87.4329 12.0437C87.2947 12.319 87.3292 12.6631 87.3638 12.8696C87.3292 13.3514 87.2256 13.7299 86.9838 14.074Z" fill="#2C3B8E"/>
<path d="M86.9493 11.0466V11.0122C86.9493 11.0122 86.3966 10.496 85.982 10.3928C85.7057 10.324 85.533 10.4616 85.4639 10.5304C85.4639 10.5304 85.602 10.5304 85.8439 10.7025C86.0857 10.8746 86.3621 11.1154 86.6039 11.1842C86.8111 11.0466 86.8457 11.0466 86.9493 11.0466Z" fill="#2C3B8E"/>
<path d="M85.3606 10.3926L85.326 10.427L85.2915 10.4614L85.257 10.4958L85.2224 10.5302L85.1879 10.5646L85.1533 10.5991V10.6335V10.6679V10.7023V10.7367V10.7711V10.8055V10.8399V10.8743V10.9088C85.1533 11.0808 85.3951 11.5626 85.4988 11.769C85.6024 11.9411 85.7751 12.182 85.7751 12.4573C85.7751 12.5949 85.6715 12.767 85.5333 12.8702C85.5333 12.8702 86.1897 12.6982 86.2588 12.3196C86.3279 11.9755 86.1897 11.7002 86.0861 11.4938C85.9824 11.3217 85.6715 10.8743 85.6024 10.7023C85.3951 10.5991 85.3606 10.4958 85.3606 10.3926Z" fill="#2C3B8E"/>
<path d="M81.5599 14.9004L81.5254 14.9692L81.4908 15.0724L81.4563 15.1413L81.4217 15.2101L81.3872 15.2789L81.3526 15.3477L81.3181 15.4166L81.2836 15.4854L81.249 15.5542L81.2145 15.623L81.1799 15.6919L81.1454 15.7607L81.1108 15.8295L81.0763 15.8983L81.0417 15.9671L81.0072 16.036C80.7999 16.3457 80.6617 16.8618 80.6963 17.0339C80.6963 17.0339 80.3854 16.3801 80.5581 15.9327C80.6617 15.6574 80.9726 15.1413 81.5599 14.9004Z" fill="#2C3B8E"/>
<path d="M80.8347 15.0381H80.8002H80.7656H80.6965H80.662H80.6274H80.5929H80.5583H80.5238H80.4892H80.4547H80.4202H80.3856H80.3511H80.3165H80.282H80.2474H80.2129H80.1783H80.1438H80.1092H80.0747H80.0402H80.0056C79.7292 15.2101 79.4874 15.5887 79.3838 16.0704C79.3838 16.0704 79.8329 16.0016 80.0747 15.7607C80.4547 15.6919 80.7311 15.3822 80.8347 15.0381Z" fill="#2C3B8E"/>
<path d="M83.1492 15.8633H83.1837H83.2182H83.2528H83.2873H83.3219H83.3564C83.3564 15.8633 82.9764 15.9665 82.7692 16.1386C82.5964 16.2762 82.4582 16.4827 82.4237 16.8268C82.3201 17.3086 82.0437 17.8247 81.9401 17.9968H81.9055C81.9746 17.6527 81.7328 16.9644 81.6982 16.8612C81.6982 16.8612 82.0092 16.6547 82.1473 16.4827C82.4582 16.4139 82.6655 16.173 83.1492 15.8633Z" fill="#2C3B8E"/>
<path d="M81.1798 16.8965L81.1453 16.9309V16.9653V16.9997V17.0341V17.0685V17.1029V17.1374V17.1718V17.2062L81.1107 17.275L81.0762 17.3438V17.3782V17.4127V17.4471V17.4815V17.5159V17.5503V17.5847V17.6191V17.6535V17.6879V17.7223V17.7568V17.7912V17.8256V17.86V17.8944V17.9288V17.9632C81.2144 18.445 81.5253 18.6515 81.7325 19.03C81.7325 19.03 81.8707 18.3074 81.8362 17.7568C81.6289 17.3094 81.4216 17.103 81.1798 16.8965Z" fill="#2C3B8E"/>
<path d="M79.3493 18.2039V18.1351V18.1007V18.0663L79.3838 18.0319V17.9975L79.4184 17.9631L79.4529 17.9286L79.4875 17.8942L79.522 17.8598L79.5565 17.8254L79.5911 17.791L79.6256 17.7566L79.6602 17.7222L79.7293 17.6189L79.7984 17.5157L79.8329 17.4813L79.8675 17.4125L79.902 17.378L79.9365 17.3436L79.9711 17.3092L80.0056 17.2748L80.0402 17.2404V17.206V17.1716V17.1372V17.1028V17.0684V17.0339V16.9995C80.0056 16.6554 79.522 16.3801 79.4184 16.3457C79.3147 16.4145 78.8311 16.6554 78.7965 16.9995C78.6929 17.2748 79.3147 17.9286 79.3493 18.2039Z" fill="#2C3B8E"/>
<path d="M80.3166 16.9307L80.2821 16.9651V16.9995V17.0339L80.2476 17.0683V17.1027L80.213 17.1371V17.1715L80.1785 17.206L80.1439 17.2404L80.1094 17.3092L80.0748 17.3436L80.0403 17.378L80.0057 17.4468L79.9712 17.5501L79.9367 17.6533L79.9021 17.7221V17.7565L79.8676 17.791V17.8598L79.833 17.8942V17.9286V17.963V17.9974V18.0318V18.0662C79.7639 18.4104 79.833 18.6168 79.9712 18.8233C80.1439 19.0298 80.3857 19.2362 80.6276 19.6836C80.6276 19.6836 80.9039 19.3395 80.9385 19.133C80.973 18.9265 80.9385 18.4792 80.8694 18.3071C80.7312 18.1351 80.5239 17.5501 80.3166 16.9307Z" fill="#2C3B8E"/>
<path d="M79.3493 20.2338L79.3838 20.1994L79.4183 20.165L79.4529 20.1306L79.4874 20.0961L79.522 20.0617L79.5565 20.0273L79.5911 19.9929L79.6256 19.9585L79.6602 19.9241L79.6947 19.8897V19.8553V19.8209V19.7864V19.752C79.7638 19.58 79.7638 19.3735 79.6256 19.2015C79.4529 18.995 79.2802 18.7541 79.2456 18.582C79.2456 18.7541 79.0383 18.995 78.8656 19.2015C78.7274 19.3735 78.762 19.6144 78.7965 19.752C78.9693 19.7864 79.142 20.0617 79.3493 20.2338Z" fill="#2C3B8E"/>
<path d="M80.0747 19.6494L80.1092 19.6838V19.7182L80.1437 19.7526L80.1783 19.787L80.2128 19.8215L80.2474 19.8559L80.2819 19.8903L80.3165 19.9247L80.351 19.9591L80.3856 19.9935L80.4201 20.0279L80.4892 20.0968L80.5583 20.1656L80.5928 20.2L80.6274 20.2344L80.6619 20.2688L80.6965 20.3032L80.731 20.3376L80.7656 20.372L80.8001 20.4065V20.4409L80.8347 20.4753V20.5097V20.5441V20.5785C80.9037 20.7506 81.0074 21.0947 80.8692 21.3356C80.6965 21.5764 80.351 21.955 80.0056 22.1271C80.0056 22.1271 80.351 21.5765 80.3165 21.1291C80.2819 20.8538 80.0747 20.5785 80.0401 20.4065C79.9365 20.2344 79.971 19.9247 80.0747 19.6494Z" fill="#2C3B8E"/>
<path d="M81.1111 19.3047L81.0765 19.3391V19.3735V19.4079V19.4423L81.042 19.4767V19.5111V19.5456V19.58V19.6144V19.6488V19.6832V19.7176V19.752V19.7864V19.8209V19.8553C81.042 20.0961 81.0765 20.3026 81.2147 20.7156C81.3874 21.1973 81.6638 21.7135 81.802 21.9544C81.802 21.9544 82.0438 21.6103 82.182 21.3006C82.182 21.3006 81.802 20.7844 81.6293 20.4059C81.2493 20.0617 81.1802 19.6488 81.1111 19.3047Z" fill="#2C3B8E"/>
<path d="M81.2842 19.0986V19.1331V19.1675V19.2019V19.2363V19.2707V19.3051V19.3739V19.4427V19.5116V19.5804V19.6492L81.3187 19.7181L81.3533 19.7869L81.3878 19.8557L81.4224 19.9245L81.4569 19.9933L81.4915 20.0966L81.526 20.1654L81.5605 20.2686L81.5951 20.3719L81.6296 20.4751L81.6642 20.5783L81.6987 20.6816L81.7333 20.7848L81.8024 20.888L81.8715 20.9913L81.9405 21.0945L82.0096 21.1633L82.0787 21.2666L82.1478 21.3698C82.6315 21.9892 83.046 22.1957 83.2878 22.1957C83.7024 22.1957 84.0824 21.8516 84.2205 21.473C84.3587 21.0945 84.3242 20.5095 84.0478 20.303C84.0478 20.303 83.806 21.0257 83.2878 21.0601C82.7696 20.9913 82.0096 20.3374 81.2842 19.0986Z" fill="#2C3B8E"/>
<path d="M81.8711 18.582V18.6165V18.6509V18.6853V18.7197V18.7541V18.8229V18.8917V18.9606V19.0294V19.0982V19.167V19.2359V19.3047V19.3735V19.4423V19.5111V19.58V19.6488C81.9402 19.8897 82.0784 20.1994 82.3547 20.3714C82.5966 20.5091 83.1838 20.5435 83.3911 20.0273C83.3911 19.8553 82.3547 19.9241 81.8711 18.582Z" fill="#2C3B8E"/>
<path d="M79.3496 22.2296L79.4187 22.1952H79.4533H79.4878H79.5224H79.5569V22.1608V22.1264V22.092V22.0576L79.5915 22.0231C79.7296 21.8167 79.8333 21.4381 79.7642 21.1628C79.6606 20.8187 79.4878 20.7155 79.3842 20.4746C79.3151 20.5434 79.246 20.6123 79.1424 20.6811C79.0387 20.6123 78.9696 20.5434 78.9006 20.4746C78.7969 20.6811 78.6242 20.8187 78.5206 21.1628C78.4515 21.4381 78.5896 21.8167 78.6933 22.0231C79.0733 22.092 79.1769 22.1608 79.3496 22.2296Z" fill="#2C3B8E"/>
<path d="M79.3498 24.295L79.3844 24.2262V24.1918V24.1574L79.4189 24.123L79.4535 24.0886L79.488 24.0542L79.5226 24.0198L79.5571 23.9853L79.5916 23.9509L79.6262 23.9165L79.6607 23.8821L79.7298 23.7789L79.7989 23.6756L79.868 23.5724L79.9026 23.538L79.9371 23.5036L79.9716 23.4692L80.0062 23.4348L80.0407 23.4003L80.0753 23.3659L80.1098 23.3315V23.2971V23.2627V23.2283V23.1939V23.1595C80.0062 22.6433 79.6953 22.7465 79.4189 22.54C79.1771 22.7465 78.8316 22.6433 78.728 23.1595C78.5898 23.3315 79.2462 23.9509 79.3498 24.295Z" fill="#2C3B8E"/>
<path d="M80.1438 23.5371L80.1092 23.6059V23.6403L80.0747 23.6748L80.0402 23.7092L80.0056 23.7436L79.9711 23.778L79.9365 23.8124L79.8674 23.8812L79.7983 23.9501L79.7292 24.0189L79.6602 24.0877L79.5911 24.1565L79.5565 24.1909L79.522 24.2253L79.4874 24.2597L79.4529 24.2942L79.4183 24.3286V24.363L79.3838 24.3974V24.4318V24.4662V24.5006V24.5351V24.5695V24.6039V24.6383C79.3838 25.3953 79.7292 25.8771 79.7983 26.118C79.7983 26.118 80.4202 25.6362 80.5238 25.0856C80.6965 24.8103 80.6274 23.95 80.1438 23.5371Z" fill="#2C3B8E"/>
<path d="M80.8344 24.054V24.0196V23.9852V23.9508V23.9163V23.8819V23.8475V23.8131V23.7787V23.7443V23.7099V23.6755L80.7998 23.6066L80.7653 23.5378L80.7307 23.469L80.6962 23.4002L80.6616 23.3658L80.6271 23.3314L80.5926 23.2969L80.558 23.2625L80.5235 23.2281L80.4889 23.1937L80.4544 23.1593L80.4198 23.1249L80.3853 23.0905L80.3507 23.056L80.3162 23.0216L80.2816 22.9872C80.2816 22.9872 79.9362 22.0237 81.0071 21.4043C81.0071 21.4043 81.4562 21.9893 81.5598 22.5399C81.698 23.2625 81.1107 23.5722 80.8344 24.054Z" fill="#2C3B8E"/>
<path d="M82.1825 21.6104L82.217 21.6448L82.2516 21.6792L82.2861 21.7136L82.3207 21.748L82.3552 21.7824L82.3898 21.8168L82.4243 21.8512L82.4589 21.8856L82.4934 21.92L82.5279 21.9545H82.5625L82.597 21.9889H82.6316H82.6661H82.7007H82.7352C82.7352 21.9889 82.8043 22.4362 82.7698 22.7115C82.7007 23.1244 82.4243 23.5718 82.3207 23.9159C82.3207 23.9159 81.837 23.2965 81.8025 22.9524C81.7334 22.6083 81.7334 22.2986 81.7334 22.1265C81.7679 22.2986 82.0443 21.8856 82.1825 21.6104Z" fill="#2C3B8E"/>
<path d="M83.3912 23.7091L83.4258 23.6747V23.6403L83.4603 23.6059V23.5715L83.4948 23.5371L83.5294 23.5027V23.4683L83.5639 23.4339L83.5985 23.3994L83.633 23.365L83.6676 23.2962L83.7021 23.2618L83.7367 23.193L83.7712 23.1586L83.8058 23.0897L83.8403 22.9865L83.8748 22.8833L83.9094 22.78L83.9439 22.7112V22.6424V22.5736V22.5047V22.4359V22.3671V22.2983V22.2295V22.1606V22.0918C83.9439 22.0918 83.4258 22.3671 82.9767 22.1606C82.9767 22.1606 82.9076 22.8489 83.0112 23.0897C83.0803 23.4339 83.1839 23.5371 83.3912 23.7091Z" fill="#2C3B8E"/>
<path d="M83.288 23.8476L83.2534 23.8132L83.1152 23.7099L83.0807 23.6755L83.0461 23.6411L83.0116 23.6067L82.977 23.5723C82.977 23.5723 82.6316 24.2261 82.5625 24.3982C82.5625 24.3982 82.7352 24.4326 82.908 24.2949C83.0461 24.054 83.0807 24.0196 83.288 23.8476Z" fill="#2C3B8E"/>
<path d="M81.664 23.4688V23.5032V23.5376L81.6985 23.572V23.6064L81.7331 23.6408L81.7676 23.6752L81.8021 23.7096L81.8367 23.744L81.8712 23.7785L81.9058 23.8129L81.9403 23.8473L82.0094 23.9161L82.0785 24.0193L82.1131 24.0538L82.1476 24.0882L82.1821 24.1226L82.2167 24.157L82.2512 24.1914L82.2858 24.2258L82.3203 24.2602L82.3549 24.2946L82.3894 24.329V24.3635C82.3894 24.3635 82.3549 24.6388 82.1476 25.0517C81.9403 25.4646 81.6294 25.7399 81.4912 25.8776C81.4912 25.8776 81.1458 25.2582 81.0421 25.0173C80.9385 24.7076 80.9385 24.3979 80.9731 24.2946C81.0767 24.1914 81.4912 23.8129 81.664 23.4688Z" fill="#2C3B8E"/>
<path d="M79.3491 28.1146V28.0802V28.0458V28.0113V27.9769V27.9425V27.9081V27.8737V27.8393L79.3836 27.8049V27.7705L79.4182 27.7361L79.4527 27.6672L79.4873 27.5984L79.5218 27.5296L79.5564 27.4608L79.5909 27.3919L79.6254 27.3575V27.3231L79.66 27.2887V27.2543V27.2199V27.1855V27.1511V27.1167C79.7291 26.9102 79.7291 26.6349 79.66 26.4628C79.5564 26.2564 79.2109 25.7402 79.1418 25.6025C79.1073 25.7402 78.7273 26.2564 78.6236 26.4628C78.52 26.6349 78.52 26.9102 78.6236 27.1167C78.9691 27.6328 79.28 27.8737 79.3491 28.1146Z" fill="#2C3B8E"/>
<path d="M80.8005 25.499L80.766 25.5679V25.6023V25.6367V25.6711L80.7314 25.7055V25.7399L80.6969 25.7743L80.6624 25.8087L80.6278 25.8431L80.5933 25.912L80.5587 25.9808L80.5242 26.0496L80.4896 26.1184L80.4551 26.1873L80.4205 26.2561L80.386 26.2905V26.3249V26.3593L80.3514 26.3937V26.4281V26.4625V26.4969V26.5314V26.5658V26.6002C80.3169 26.8411 80.3514 27.0475 80.4205 27.254C80.4896 27.4261 80.7314 27.7702 80.8696 28.0455C80.8696 28.0455 81.3878 27.5637 81.4914 27.2196C81.5605 26.9443 81.5605 26.6002 81.4224 26.3593C81.2151 26.0152 80.9387 25.7399 80.8005 25.499Z" fill="#2C3B8E"/>
<path d="M82.2862 25.4297L82.2516 25.4985V25.5329V25.5673V25.6017V25.6361L82.2171 25.705L82.1825 25.7738H82.0789L82.0443 25.8426L82.0098 25.9115L81.9752 25.9803L81.9407 26.0491L81.9062 26.1179V26.1523V26.1867V26.2211V26.2556V26.29V26.3244V26.3588V26.3932V26.4276V26.462C81.8371 26.7373 81.8025 26.9438 81.9407 27.2879C82.0789 27.5976 82.2171 27.7697 82.2862 27.9762C82.2862 27.9762 82.7007 27.4256 82.7698 27.2191C82.8389 26.9782 82.8734 26.6341 82.7698 26.3932C82.528 25.9803 82.3898 25.6706 82.2862 25.4297Z" fill="#2C3B8E"/>
<path d="M79.3492 32.2439V32.1751V32.1407V32.1063V32.0719V32.0375V32.003L79.3837 31.9342L79.4183 31.8998L79.4528 31.831L79.4874 31.7622L79.5219 31.6934L79.5565 31.6245L79.591 31.5557L79.6256 31.4869L79.6601 31.4181L79.6947 31.3492L79.7292 31.2804L79.7637 31.2116L79.7983 31.1428L79.8328 31.074L79.8674 31.0051L79.9019 30.9363L79.9365 30.8675L79.971 30.7986V30.7298V30.661V30.5922V30.5234V30.4545V30.3857V30.3169C80.0056 29.8695 79.591 29.1813 79.3837 28.9404C79.1765 29.1813 78.7965 29.8695 78.7965 30.3169C78.7619 31.1772 79.3147 31.9686 79.3492 32.2439Z" fill="#2C3B8E"/>
<path d="M80.2133 27.4951L80.2478 27.5295L80.2824 27.5639L80.3169 27.5983L80.3515 27.6328L80.386 27.6672L80.4205 27.7016L80.4551 27.736L80.4896 27.7704L80.5242 27.8392L80.5587 27.9081L80.5933 27.9769L80.6278 28.0457L80.6624 28.1145L80.6969 28.1833L80.7315 28.2522L80.766 28.321L80.8005 28.3898L80.8351 28.4586L80.8696 28.5275L80.9042 28.5963V28.6651V28.7339V28.7683V28.8372V28.8716V28.906V28.9404V28.9748C80.9042 29.5598 80.4896 29.9383 80.4551 30.2824C80.4551 30.2824 80.0751 29.8695 79.9369 29.5598C79.7642 29.2157 79.6606 28.9748 79.6951 28.5963C79.7296 28.1145 79.8333 27.8736 80.2133 27.4951Z" fill="#2C3B8E"/>
<path d="M81.5603 27.4258L81.5258 27.4602V27.4946V27.529V27.5634V27.5978V27.6323L81.4912 27.6667V27.7011V27.7355V27.7699L81.4567 27.8043V27.8387V27.8731L81.4221 27.942V27.9764V28.0108V28.0452V28.0796V28.114V28.1484V28.1828V28.2172V28.2517V28.2861V28.3205V28.3549V28.3893V28.4237V28.4581V28.4926C81.4912 28.8367 81.8712 29.284 81.9748 29.5249C81.9748 29.5249 82.2512 28.9399 82.3203 28.6646C82.1821 28.3893 82.113 27.942 81.5603 27.4258Z" fill="#2C3B8E"/>
<path d="M79.833 33.6541V33.5852V33.5164V33.4476V33.3788V33.31V33.2411V33.1723V33.1035L79.8675 33.0346V32.9658V32.9314L79.9021 32.8626L79.9366 32.8282V32.7938L79.9712 32.6905L80.0057 32.6217L80.0403 32.5529L80.0748 32.4841L80.1094 32.4152V32.3808V32.3464V32.312V32.2776V32.2432V32.2088V32.1744V32.14C80.1784 31.7614 80.1784 31.3829 79.8675 30.9355C79.6257 31.7614 79.3493 32.3808 79.1421 32.7938C79.1421 32.7938 79.1421 32.8282 79.1075 32.8282V32.7938C78.9003 32.3808 78.6239 31.7614 78.3821 30.9355C78.0712 31.3829 78.0366 31.7614 78.1403 32.14C78.2094 32.4841 78.5893 32.897 78.6239 33.5508C78.6584 34.239 77.8984 34.4799 77.8984 34.4799C78.1748 34.5832 78.4512 34.6176 78.9348 34.1702C79.0039 34.1014 79.073 33.9982 79.1421 33.8949C79.2112 33.9982 79.2457 34.067 79.3494 34.1702C79.833 34.6176 80.1094 34.5832 80.3857 34.4799C80.5584 34.5832 79.7984 34.3079 79.833 33.6541Z" fill="#2C3B8E"/>
<path d="M77.4148 29.1465L77.4493 29.2153V29.2497V29.2841V29.3185V29.353V29.3874V29.4218L77.4839 29.4906L77.5184 29.5594L77.553 29.6283L77.5875 29.6971L77.6221 29.7659V29.8003V29.8347V29.8691V29.9035V29.9379V29.9724V30.0068V30.0412V30.0756V30.11V30.1444C77.6911 30.4197 77.5875 30.7294 77.1039 31.0735C77.1039 31.0735 76.793 30.8327 76.6548 30.5574C76.5511 30.2821 76.6202 30.11 76.7239 29.9724C77.0348 29.6971 77.3111 29.353 77.4148 29.1465Z" fill="#2C3B8E"/>
<path d="M78.4515 30.1445V30.1789V30.2134V30.2478V30.2822V30.3166V30.351V30.3854V30.4198V30.4542V30.4886V30.5231V30.5575V30.5919V30.6263L78.417 30.7295L78.3824 30.8328L78.3479 30.936V30.9704V31.0048L78.3133 31.0736V31.1081V31.1425V31.1769L78.2788 31.2113V31.2457L78.2442 31.2801V31.3145C77.9333 31.8307 77.4842 32.2436 77.1042 32.2436C76.7588 32.2436 76.6551 32.0372 76.4824 31.9339C76.4824 31.9339 76.5861 31.4866 77.0006 31.3489C77.3806 31.3145 78.1406 30.7295 78.4515 30.1445Z" fill="#2C3B8E"/>
<path d="M77.1383 31.1076L77.0692 31.0732H77.0346C77.0346 31.0732 76.6546 31.2109 76.3092 31.4174C75.9983 31.6238 75.6874 32.0023 75.5146 32.1744C75.5146 32.1744 75.9983 32.2776 76.3092 32.1744C76.3092 32.1744 76.4128 31.7271 76.7583 31.5206C76.6892 31.3141 76.931 31.2453 77.1383 31.1076Z" fill="#2C3B8E"/>
<path d="M76.7242 30.7292L76.6897 30.6948V30.6604V30.626V30.5916V30.5572V30.5228V30.4884V30.4539V30.4195V30.3851V30.3507V30.3163V30.2819V30.2475V30.2131V30.1786V30.1442V30.1098V30.0754V30.041C76.6897 30.041 75.9988 30.4539 75.826 30.626C75.6188 30.7981 75.2042 31.211 75.1006 31.3487C75.1006 31.3487 75.6188 31.2454 75.9988 31.1078C76.2751 31.0045 76.586 30.8325 76.7242 30.7292Z" fill="#2C3B8E"/>
<path d="M75.5838 31.4521L75.5147 31.4866H75.4802H75.4457H75.4111H75.3766H75.3075H75.2729H75.2038H75.1347L75.0311 31.521L74.9275 31.5554L74.8238 31.5898L74.7202 31.6242L74.6166 31.6586L74.5129 31.693H74.4784H74.4093H74.3747H74.3056H74.2711H74.2366H74.202H74.1675H74.1329H74.0984C73.7529 31.7963 73.5111 31.9683 73.2002 32.3124C73.2002 32.3124 73.6838 32.4501 73.9602 32.5533C73.9602 32.5533 74.3747 32.278 74.8584 32.106C75.1347 32.106 75.2729 31.7619 75.5838 31.4521Z" fill="#2C3B8E"/>
<path d="M74.8581 33.861L74.8927 33.7922V33.7577V33.7233C74.8236 33.5857 74.5472 33.4136 74.3745 33.3448C74.0981 33.2072 73.269 33.0007 72.9927 32.8975C72.9927 32.8975 72.8545 33.0695 72.7854 33.2072C72.7509 33.276 72.7854 33.3448 72.889 33.3448C73.1309 33.3792 73.6491 33.276 73.7872 33.3792C73.9254 33.4824 73.8909 33.5857 73.8909 33.7233C73.8909 33.7233 74.1327 33.5857 74.3054 33.6201C74.5818 33.4136 74.72 33.5169 74.8581 33.861Z" fill="#2C3B8E"/>
<path d="M74.1328 32.7251H74.1674H74.2019H74.2364H74.271H74.3055H74.3401H74.3746H74.4092H74.4437H74.4783H74.5128H74.5474H74.5819H74.6164H74.651H74.6855H74.7201H74.7546H74.7892L74.8237 32.7595H74.8583H74.8928C74.8928 32.7595 75.031 32.6906 75.1001 32.5874C75.1692 32.4842 75.4455 32.0712 75.6874 32.0024C75.6874 32.0024 75.4801 32.0024 75.3419 31.9336C75.3419 31.9336 75.1001 32.0024 74.8928 32.0712C74.6164 32.4498 74.4092 32.553 74.1328 32.7251Z" fill="#2C3B8E"/>
<path d="M76.2056 32.209H76.171H76.1365C76.1365 32.209 75.411 32.6907 75.3419 33.1725C75.2728 33.5854 75.4801 33.7919 75.5838 33.8607C75.6874 33.9296 76.2056 34.1016 76.5165 33.4478C76.5165 33.4478 75.9638 33.6198 75.8256 33.379C75.6874 33.1037 75.9292 32.7252 76.0674 32.6219C76.2747 32.4843 76.6201 32.381 76.8274 32.4154C76.5856 32.4843 76.4128 32.3122 76.2056 32.209Z" fill="#2C3B8E"/>
<path d="M71.5417 37.8523L71.5763 37.7147L71.6108 37.5771L71.6453 37.4394V37.3706L71.6799 37.3018L71.7144 37.2329L71.749 37.1641L71.7835 37.0953L71.8181 37.0265L71.8526 36.9577L71.8872 36.8888L71.9217 36.82L71.9563 36.7512C72.2672 36.063 73.0617 34.2391 74.7199 33.9294C74.8581 33.895 74.5472 33.5165 74.3744 33.5165C74.2363 33.5165 73.9253 33.723 73.7872 33.7918C73.7872 33.7918 73.7872 33.4133 73.7872 33.3444C73.7872 33.2756 73.7181 33.2412 73.649 33.2412C73.5799 33.2412 73.1999 33.2412 73.0617 33.3788C72.6817 33.8262 72.0599 34.9618 71.6799 35.8565C71.3344 36.7168 71.0581 36.9921 70.6781 36.8544C70.2981 36.7168 70.0908 36.3038 69.3999 36.4071C69.1581 36.4415 68.9163 36.6135 68.709 36.82C68.7781 36.9232 68.8472 37.0609 69.1581 37.0609C69.469 37.0609 70.0563 37.1985 70.4017 37.405C70.7126 37.7491 71.0581 37.8179 71.5417 37.8523Z" fill="#2C3B8E"/>
<path d="M78.1406 32.2432V32.312V32.3808V32.4496V32.5185V32.5873L78.1751 32.6561V32.6905L78.2097 32.7593L78.2442 32.8282L78.2788 32.897L78.3133 32.9658L78.3479 33.0002L78.3824 33.069L78.417 33.1379L78.4515 33.2067L78.4861 33.2755C78.4861 33.2755 78.0024 35.5811 76.1715 35.7531C76.1715 35.7531 76.2061 35.2714 76.7588 34.9273C77.3115 34.5487 78.1061 33.9982 78.037 33.1379C78.037 33.1379 77.8988 33.1723 77.6224 33.482C77.3806 33.7917 76.7933 34.7208 75.9297 34.7552C75.9297 34.7552 76.0679 34.3079 76.4479 34.067C76.8279 33.8261 77.3115 33.482 77.5533 33.1035C77.7261 32.484 77.9679 32.312 78.1406 32.2432Z" fill="#2C3B8E"/>
<path d="M77.2764 40.6741L78.3818 42.2227L79.2109 40.743L78.9 40.1924C78.6927 40.6053 78.4509 41.0183 78.3127 41.2591C78.2091 41.1215 77.9327 40.7086 77.5527 40.1924L77.2764 40.6741Z" fill="#2C3B8E"/>
<path d="M77.0004 39.3664L76.7932 39.0567L76.5859 38.7814L76.3786 38.4717L76.1714 38.1964L75.9295 37.8867L75.7568 37.6114L75.6532 37.4737L75.5495 37.3361L75.4459 37.1984L75.3768 37.0952L75.2732 36.9576L75.2041 36.8543L75.1004 36.7167L75.0314 36.6134L74.9623 36.5102L74.8586 36.407L74.7895 36.3037L74.755 36.2349L74.6859 36.1317L74.6168 36.0629L74.5823 35.994L74.5477 35.9252L74.5132 35.8908L74.4786 35.8564L74.4441 35.822V35.7876L74.8586 35.5123L73.5459 34.9961L73.5804 36.4414L74.0295 36.0973L76.6895 39.8137L77.0004 39.3664Z" fill="#2C3B8E"/>
<path d="M67.8798 30.9013L67.9489 30.8325L67.9834 30.7981L68.018 30.7637H68.0525H68.0871H68.1216H68.1561H68.1907H68.2252H68.2598H68.2943H68.3289H68.3634H68.398H68.4325L68.4671 30.7981L68.5361 30.8325L68.5707 30.8669L68.6398 30.9013L68.6743 30.9357L68.7434 30.9701L68.8125 31.0046L68.8471 31.039L68.9161 31.0734L68.9852 31.1078L69.0543 31.1422L69.1234 31.1766L69.1925 31.211L69.2271 31.2454L69.2961 31.2798L69.3652 31.3142C69.918 31.8304 70.2634 32.3466 69.9525 32.6907C69.6416 33.0004 69.0543 32.7251 68.5361 32.2434C67.9143 31.796 67.5689 31.2799 67.8798 30.9013Z" fill="#2C3B8E"/>
<path d="M68.7781 37.1986L68.7436 37.1641C68.4672 36.8888 68.2945 36.5103 68.2945 36.063C68.2945 35.2371 68.9854 34.5489 69.8145 34.5489C70.6436 34.5489 71.3345 35.2371 71.3345 36.063C71.3345 36.1662 71.3 36.3383 71.3 36.3383C71.3691 36.2006 71.6109 35.65 71.68 35.5468C71.4381 34.7209 70.7127 34.1359 69.8145 34.1359C69.0545 34.1359 68.3981 34.5833 68.0872 35.2027C68.1909 34.4456 68.6054 33.7574 68.8472 33.4821C69.1581 33.1724 69.7109 33.0692 69.7109 33.0692C69.3309 33.138 68.8818 32.8971 68.3291 32.4153C67.8109 31.968 67.5691 31.5551 67.5345 31.2109C67.5691 31.6927 67.5691 31.968 67.4309 32.3465C67.2581 32.8627 66.74 33.8262 66.9127 34.9274C67.0163 35.5468 67.4309 36.4415 68.1909 37.1641C68.3291 37.3362 68.3981 37.5771 68.4327 37.7147C68.4327 37.7147 69.5036 37.7147 69.78 37.7491C69.78 37.7491 70.0218 37.7147 70.0218 37.5771C70.0218 37.405 69.8836 37.3706 69.7454 37.3706C69.6072 37.405 69.0891 37.405 68.7781 37.1986Z" fill="#2C3B8E"/>
<path d="M74.7894 37.543L74.6512 37.5774L74.513 37.6118L74.3748 37.6462L74.2367 37.6806L74.0985 37.715L73.9603 37.7494L73.8221 37.7839L73.6839 37.8183L73.5457 37.8527L73.4076 37.8871L73.2694 37.9215L73.1312 37.9559L72.8894 37.9903L72.6476 38.0247C72.233 38.0935 71.8185 38.128 71.4039 38.0935C71.4039 38.1624 71.4039 38.2312 71.3694 38.3C71.3694 38.3 71.4385 38.4033 71.4385 38.5065C71.853 38.5065 72.2676 38.5065 72.7167 38.4377C73.4421 38.3344 74.2021 38.1968 74.9621 37.8871L74.7894 37.543Z" fill="#2C3B8E"/>
<path d="M75.9289 37.5085L76.1017 37.4053L76.2744 37.3021L76.4471 37.1988L76.6199 37.0956L76.7926 36.958L76.9653 36.8203L77.138 36.6827L77.3108 36.545L77.4835 36.373L77.6562 36.2009L77.8289 36.0288L78.0017 35.8568L78.1744 35.6503L78.3471 35.4438L78.4853 35.2374L78.5544 35.1342L78.6235 35.0309L78.7617 34.79C78.5544 34.8933 78.2435 34.8244 78.2435 34.8244C78.2435 34.8589 78.1744 34.8933 78.1744 34.9277C77.4144 36.0288 76.5853 36.7515 75.7217 37.1988L75.9289 37.5085Z" fill="#2C3B8E"/>
<path d="M69.8151 37.8867H69.7806H69.7461H69.7115H69.677H69.6424H69.6079H69.5733H69.5388H69.5042H69.4351H69.3661H69.297H69.2279H69.1588H69.0897H69.0551H69.0206H68.9861H68.9515H68.917H68.8824C68.6061 37.9211 68.3297 37.99 68.2606 38.1276C68.2261 38.2653 68.3297 38.4029 68.4679 38.6438C68.5715 38.7814 68.7442 38.7126 68.8479 38.6438C68.9515 38.6094 69.6079 38.2652 69.677 38.162C69.9879 38.0932 70.0224 37.9211 69.8151 37.8867Z" fill="#2C3B8E"/>
<path d="M70.4713 38.3L70.4367 38.2656C70.264 38.3344 69.6422 38.713 69.6076 38.8506C69.5731 39.0227 69.6422 39.1259 69.7458 39.1603C69.8494 39.1947 69.9531 39.2291 70.0567 39.2291C70.1949 39.2291 70.3676 39.1603 70.4367 39.0571C70.5058 38.9539 70.7822 38.6097 70.8513 38.5409C70.5058 38.4721 70.5403 38.3345 70.4713 38.3Z" fill="#2C3B8E"/>
<path d="M70.5404 38.6783L70.5059 38.7127V38.7471L70.4713 38.7815L70.4368 38.8159V38.8503C70.4022 38.8848 70.4368 38.988 70.5404 38.9536C70.6095 38.9536 71.0586 38.8848 71.3004 38.7471C71.5422 38.5751 71.715 38.2653 71.5422 38.1621C71.0931 38.3342 70.8168 38.3686 70.5404 38.6783Z" fill="#2C3B8E"/>
<path d="M70.6782 37.749H70.6437H70.6091H70.5746H70.54H70.5055H70.3328C70.2291 37.8867 70.2982 38.0243 70.54 38.1276C70.7819 38.2308 71.2655 38.334 71.3346 38.2308C71.3346 38.1276 71.1964 37.9211 70.6782 37.749Z" fill="#2C3B8E"/>
<path d="M81.249 29.1465L81.2145 29.2153V29.2497V29.2841V29.3185V29.353V29.3874V29.4218L81.18 29.4906L81.1454 29.5594L81.1109 29.6283L81.0763 29.6971L81.0418 29.7659V29.8003V29.8347V29.8691V29.9035V29.9379V29.9724V30.0068V30.0412V30.0756V30.11V30.1444C80.9727 30.4197 81.0763 30.7294 81.56 31.0735C81.56 31.0735 81.8709 30.8327 82.009 30.5574C82.1127 30.2821 82.0436 30.11 81.94 29.9724C81.6636 29.6971 81.3872 29.353 81.249 29.1465Z" fill="#2C3B8E"/>
<path d="M80.2129 30.1445V30.1789V30.2134V30.2478V30.2822V30.3166V30.351V30.3854V30.4198V30.4542V30.4886V30.5231V30.5575V30.5919V30.6263L80.2474 30.7295L80.282 30.8328L80.3165 30.936V30.9704V31.0048V31.0736V31.1081L80.3511 31.1425V31.1769V31.2113L80.3856 31.2457L80.4202 31.2801V31.3145C80.7311 31.8307 81.1802 32.2436 81.5602 32.2436C81.9056 32.2436 82.0093 32.0372 82.182 31.9339C82.182 31.9339 82.0783 31.4866 81.6638 31.3489C81.3183 31.3145 80.5238 30.7295 80.2129 30.1445Z" fill="#2C3B8E"/>
<path d="M81.5254 31.1079L81.5599 31.0735L81.5945 31.0391C81.5945 31.0391 81.9745 31.1767 82.3199 31.3832C82.6308 31.5896 82.9418 31.9682 83.1145 32.1402C83.1145 32.1402 82.6308 32.2435 82.3199 32.1402C82.3199 32.1402 82.2163 31.6929 81.8708 31.4864C82.009 31.3144 81.7672 31.2455 81.5254 31.1079Z" fill="#2C3B8E"/>
<path d="M81.9404 30.7292L81.975 30.6948V30.6604V30.626V30.5916V30.5572V30.5228V30.4884V30.4539V30.4195V30.3851V30.3507V30.3163V30.2819V30.2475V30.2131V30.1786V30.1442V30.1098V30.0754V30.041C81.975 30.041 82.6659 30.4539 82.8386 30.626C83.0459 30.7981 83.4604 31.211 83.5641 31.3487C83.5641 31.3487 83.0459 31.2454 82.6659 31.1078C82.3895 31.0045 82.0786 30.8325 81.9404 30.7292Z" fill="#2C3B8E"/>
<path d="M83.0803 31.4521H83.1149H83.1494H83.184H83.2185H83.253H83.2876H83.3221H83.3912H83.4258H83.4949L83.5985 31.4866L83.7021 31.521L83.8058 31.5554L83.9094 31.5898L84.0131 31.6242L84.1167 31.6586H84.1858H84.2549H84.2894H84.324H84.3585H84.3931H84.4276H84.4621H84.4967H84.5312C84.8767 31.7618 85.1185 31.9339 85.4294 32.278C85.4294 32.278 84.9112 32.4157 84.6694 32.5189C84.6694 32.5189 84.2549 32.2436 83.7712 32.0716C83.5294 32.106 83.3912 31.7619 83.0803 31.4521Z" fill="#2C3B8E"/>
<path d="M83.8402 33.861L83.8057 33.7922V33.7577V33.7233C83.8748 33.5857 84.1511 33.4136 84.3238 33.3448C84.6348 33.2072 85.4293 33.0007 85.7057 32.8975C85.7057 32.8975 85.8438 33.0695 85.9129 33.2072C85.9475 33.276 85.9129 33.3448 85.7748 33.3448C85.5329 33.3792 85.0148 33.276 84.8766 33.3792C84.7384 33.4824 84.7729 33.5857 84.7729 33.7233C84.7729 33.7233 84.5311 33.5857 84.3584 33.6201C84.082 33.4136 83.9438 33.5169 83.8402 33.861Z" fill="#2C3B8E"/>
<path d="M84.5653 32.7251H84.5307H84.4962H84.4617H84.4271H84.3926H84.358H84.3235H84.2889H84.2544H84.2198H84.1853H84.1507H84.1162H84.0817H84.0471H84.0126H83.978H83.9435H83.9089L83.8744 32.7595H83.8398H83.8053C83.8053 32.7595 83.6671 32.6906 83.598 32.5874C83.5289 32.4842 83.2526 32.0712 83.0107 32.0024C83.0107 32.0024 83.218 32.0024 83.3562 31.9336C83.3562 31.9336 83.6326 32.0024 83.8053 32.0712C84.0471 32.4498 84.2889 32.553 84.5653 32.7251Z" fill="#2C3B8E"/>
<path d="M82.4581 32.209H82.4927H82.5272C82.5272 32.209 83.2527 32.6907 83.3218 33.1725C83.3909 33.5854 83.1836 33.7919 83.0454 33.8607C82.9418 33.9296 82.4581 34.1016 82.1127 33.4478C82.1127 33.4478 82.6654 33.6198 82.8036 33.379C82.9418 33.1037 82.6999 32.7252 82.5618 32.6219C82.3545 32.4843 82.009 32.381 81.8018 32.4154C82.0781 32.4843 82.2509 32.3122 82.4581 32.209Z" fill="#2C3B8E"/>
<path d="M87.1562 37.8523L87.1216 37.7147L87.0871 37.5771L87.0525 37.4394L87.018 37.3706L86.9834 37.3018V37.2329L86.9489 37.1641L86.9143 37.0953L86.8798 37.0265L86.8453 36.9577L86.8107 36.8888L86.7762 36.82L86.7416 36.7512C86.4307 36.063 85.6362 34.2391 83.978 33.9294C83.8053 33.895 84.1507 33.5165 84.2889 33.5165C84.4271 33.5165 84.738 33.723 84.8762 33.7918V33.3444C84.8762 33.2756 84.9453 33.2412 85.0143 33.2412C85.0834 33.2412 85.4634 33.2412 85.6016 33.3788C85.9816 33.8262 86.6034 34.9618 86.9834 35.8565C87.3634 36.7168 87.6053 36.9921 87.9853 36.8544C88.3653 36.7168 88.5725 36.3038 89.2634 36.4071C89.5053 36.4415 89.7471 36.6135 89.9543 36.82C89.8853 36.9232 89.8507 37.0609 89.5053 37.0609C89.1943 37.0609 88.6071 37.1985 88.2616 37.405C87.9507 37.7491 87.6053 37.8179 87.1562 37.8523Z" fill="#2C3B8E"/>
<path d="M80.558 32.2432V32.312V32.3808V32.4496V32.5185V32.5873V32.6561L80.5234 32.6905L80.4889 32.7593V32.8282L80.4543 32.897L80.4198 32.9658L80.3853 33.0002L80.3507 33.069L80.3162 33.1379L80.2471 33.2411C80.2471 33.2411 80.7653 35.5467 82.5616 35.7187C82.5616 35.7187 82.5271 35.237 81.9743 34.8929C81.4216 34.5143 80.6271 33.9637 80.6962 33.1035C80.6962 33.1035 80.8343 33.1379 81.1107 33.4476C81.3525 33.7573 81.9398 34.6864 82.8034 34.7208C82.8034 34.7208 82.6653 34.2735 82.2853 34.0326C81.9053 33.7917 81.4216 33.4476 81.1798 33.069C80.938 32.4841 80.6962 32.312 80.558 32.2432Z" fill="#2C3B8E"/>
<path d="M79.349 34.4805L79.3835 34.5493V34.5837L79.4181 34.6181L79.4526 34.6525L79.4871 34.687L79.5217 34.7558L79.5562 34.8246L79.5908 34.8934L79.6253 34.9622L79.6599 35.0311L79.6944 35.0999L79.729 35.1687L79.7635 35.2375L79.8326 35.3408L79.9017 35.444L79.9708 35.5472L80.0053 35.616L80.0399 35.6849L80.0744 35.7537L80.109 35.8225L80.1435 35.8914L80.1781 35.9258L80.2126 35.9602L80.2471 35.9946L80.2817 36.029L80.3162 36.0634L80.3508 36.0978L80.3853 36.1322C80.6617 36.4075 81.4217 37.1302 81.8017 37.5087C81.8017 37.5087 80.6962 37.2334 80.0399 36.6484C80.0399 36.6484 79.5908 36.8893 79.2799 36.8893H79.3144C79.0035 36.8893 78.5544 36.6484 78.5544 36.6484C77.9326 37.2334 76.8271 37.5087 76.8271 37.5087C77.2071 37.1302 77.9671 36.4075 78.2435 36.1322C78.5544 35.7537 79.2453 34.7902 79.349 34.4805Z" fill="#2C3B8E"/>
<path d="M79.3489 37.0615H79.3834H79.418H79.4525H79.4871H79.5216H79.5561H79.5907H79.6252H79.6598H79.6943H79.7289H79.7634H79.798H79.8325C79.6943 37.3368 79.4525 37.7842 79.2107 37.9562C78.9689 37.7842 78.727 37.3368 78.5889 37.0615C78.8652 36.9583 79.0725 37.0615 79.3489 37.0615Z" fill="#2C3B8E"/>
<path d="M80.2818 42.2233L84.6345 36.1324L85.0836 36.4421L85.1182 35.0312L83.8054 35.5474L84.22 35.8571C84.0127 36.1668 80.7309 40.7091 80.3163 41.2941L78.3473 37.7153L78.1054 38.0939L76.3436 40.7436L75.8945 40.4683V41.8791L77.2418 41.363L76.7927 41.0533C77.0345 40.7092 78.0018 39.2639 78.3127 38.7821L80.2818 42.2233Z" fill="#2C3B8E"/>
<path d="M81.1107 39.8144L81.0071 39.6424L80.938 39.5735L80.8689 39.5047L80.7998 39.4359L80.7307 39.3671L80.6616 39.2982L80.6271 39.2294L80.558 39.1606L80.5234 39.0918L80.4889 39.0573L80.4543 39.0229V38.9885L80.4198 38.9541L80.3852 38.9197V38.8853L80.3507 38.8509V38.8165V38.7821L80.3161 38.7477V38.7132V38.6788C80.2125 38.8853 79.9707 39.2982 79.7289 39.7112L79.418 39.1606L80.2816 37.6465L80.5234 38.025L81.3871 39.3327L81.1107 39.8144Z" fill="#2C3B8E"/>
<path d="M82.0091 40.1924L82.3201 40.6741L82.7691 40.3988V41.8097L81.4219 41.2935L81.871 40.9838C81.8364 40.915 81.7673 40.8118 81.6637 40.6741L82.0091 40.1924Z" fill="#2C3B8E"/>
<path d="M90.7832 30.9013L90.7141 30.8325L90.6795 30.7981L90.645 30.7637H90.6104H90.5759H90.5413H90.5068H90.4722H90.4377H90.4032H90.3686H90.3341H90.2995H90.265H90.2304L90.1613 30.7981L90.1268 30.8325L90.0922 30.8669L90.0232 30.9013L89.9886 30.9357L89.9195 30.9701L89.8504 31.0046L89.7813 31.039L89.7468 31.0734L89.6777 31.1078L89.6086 31.1422L89.5395 31.1766L89.4704 31.211L89.4013 31.2454L89.3322 31.2798L89.2632 31.3142C88.7104 31.8304 88.365 32.3466 88.6759 32.6907C88.9868 33.0004 89.5395 32.7251 90.0922 32.2434C90.7486 31.796 91.0941 31.2799 90.7832 30.9013Z" fill="#2C3B8E"/>
<path d="M89.8862 37.1986L89.9207 37.1641C90.1971 36.8888 90.3698 36.5103 90.3698 36.063C90.3698 35.2371 89.6789 34.5489 88.8498 34.5489C88.0207 34.5489 87.3298 35.2371 87.3298 36.063C87.3298 36.1662 87.3644 36.3383 87.3644 36.3383C87.2953 36.2006 87.0535 35.65 86.9844 35.5468C87.2262 34.7209 87.9517 34.1359 88.8498 34.1359C89.6098 34.1359 90.2662 34.5833 90.6116 35.2027C90.508 34.4456 90.0935 33.7574 89.8516 33.4821C89.5407 33.1724 88.988 33.0692 88.988 33.0692C89.3335 33.138 89.8171 32.8971 90.3698 32.4153C90.888 31.968 91.1298 31.5551 91.1644 31.2109C91.1298 31.6927 91.1644 31.968 91.268 32.3465C91.4407 32.8627 91.9589 33.8262 91.7862 34.9274C91.6826 35.5468 91.2335 36.4415 90.508 37.1641C90.3353 37.3362 90.3007 37.5771 90.2662 37.7147C90.2662 37.7147 89.1953 37.7147 88.9189 37.7491C88.9189 37.7491 88.6426 37.7147 88.6771 37.5771C88.6771 37.405 88.8153 37.3706 88.9535 37.3706C89.0571 37.405 89.6098 37.405 89.8862 37.1986Z" fill="#2C3B8E"/>
<path d="M82.7345 37.5085L82.5617 37.4053L82.389 37.3021L82.2163 37.1988L82.0435 37.0956L81.8708 36.958L81.6981 36.8203L81.5254 36.6827L81.3526 36.545L81.1799 36.373L81.0072 36.2009L80.8345 36.0288L80.6617 35.8568L80.489 35.6503L80.3163 35.4438L80.1435 35.2374L80.0745 35.1342L80.0054 35.0309L79.8672 34.79C80.109 34.8933 80.3854 34.8244 80.3854 34.8244C80.4199 34.8589 80.4545 34.8933 80.4545 34.9277C81.2145 36.0288 82.0435 36.7515 82.9072 37.1988L82.7345 37.5085Z" fill="#2C3B8E"/>
<path d="M83.8749 37.543L84.0131 37.5774L84.1512 37.6118L84.2894 37.6462L84.4276 37.6806L84.5658 37.715L84.704 37.7494L84.8421 37.7839L84.9803 37.8183L85.1185 37.8527L85.2567 37.8871L85.3949 37.9215L85.5331 37.9559L85.7749 37.9903L86.0167 38.0247C86.4312 38.0935 86.8803 38.128 87.2603 38.0935C87.2603 38.1624 87.2603 38.2312 87.2949 38.3C87.2949 38.3 87.2258 38.4033 87.2258 38.5065C86.8112 38.5065 86.3967 38.5065 85.9476 38.4377C85.2221 38.3344 84.4621 38.1968 83.7021 37.8871L83.8749 37.543Z" fill="#2C3B8E"/>
<path d="M88.8494 37.8867H88.8839H88.9185H88.953H88.9876H89.0221H89.0567H89.0912H89.1258H89.1603H89.1949H89.2639H89.333H89.4021H89.4712H89.5403H89.6094H89.6439H89.6785H89.713H89.7476H89.7821H89.8167C90.093 37.9211 90.3694 37.99 90.4039 38.1276C90.4385 38.2653 90.3348 38.4029 90.1967 38.6438C90.1276 38.7814 89.9203 38.7126 89.8167 38.6438C89.713 38.6094 89.0912 38.2652 88.9876 38.162C88.6767 38.0932 88.6421 37.9211 88.8494 37.8867Z" fill="#2C3B8E"/>
<path d="M88.2274 38.3L88.262 38.2656C88.4347 38.3344 89.0565 38.713 89.0911 38.8506C89.1256 39.0227 89.0565 39.1259 88.9529 39.1603C88.8492 39.1947 88.7456 39.2291 88.642 39.2291C88.5038 39.2291 88.331 39.1603 88.262 39.0571C88.1929 38.9539 87.882 38.6097 87.8474 38.5409C88.1583 38.4721 88.1583 38.3345 88.2274 38.3Z" fill="#2C3B8E"/>
<path d="M88.1237 38.6783L88.1583 38.7127V38.7471L88.1928 38.7815L88.2274 38.8159L88.2619 38.8503C88.2965 38.8848 88.2274 38.988 88.1583 38.9536C88.0892 38.9536 87.6401 38.8848 87.4328 38.7471C87.191 38.5751 87.0183 38.2653 87.191 38.1621C87.6055 38.3342 87.8474 38.3686 88.1237 38.6783Z" fill="#2C3B8E"/>
<path d="M87.9853 37.749H88.0199H88.0544H88.089H88.1235H88.1581H88.1926C88.2617 37.8867 88.2272 38.0243 87.9508 38.1276C87.709 38.2308 87.2253 38.334 87.1562 38.2308C87.329 38.1276 87.4672 37.9211 87.9853 37.749Z" fill="#2C3B8E"/>
</g>
<defs>
<clipPath id="clip0_531_39158">
<rect width="103.636" height="50" fill="white" transform="translate(0.792969)"/>
</clipPath>
</defs>
</svg>
