<svg width="95" height="26" viewBox="0 0 95 26" fill="none" xmlns="http://www.w3.org/2000/svg">
<path fill-rule="evenodd" clip-rule="evenodd" d="M64.0137 25.9999H70.7596L73.7109 17.8486L76.6623 15.3189L79.0514 22.627C79.7541 24.8756 80.5974 25.8594 82.1433 25.8594H87.3433L82.0028 11.5243L94.7919 0.140625H86.5L78.7704 8.29193C77.9271 9.27571 76.9433 10.1189 75.9596 11.2433H75.819L79.8947 0.140625H73.1488L64.0137 25.9999Z" fill="#1AB148"/>
<path fill-rule="evenodd" clip-rule="evenodd" d="M63.7331 0.140625C65.8412 0.140625 67.9493 0.140625 69.6358 0.140625L68.2304 4.35682C67.8088 5.76222 66.6845 6.32438 64.2953 6.32438C60.0791 6.32438 53.7548 6.32438 49.5386 6.32438L50.944 2.10818C51.3656 0.702784 52.49 0.140625 54.8791 0.140625C57.2683 0.140625 60.5007 0.140625 63.7331 0.140625ZM51.3656 9.97841C55.5818 9.97841 61.9061 9.97841 66.1223 9.97841L64.7169 14.1946C64.2953 15.6 63.171 16.1622 60.7818 16.1622C56.5656 16.1622 50.2413 16.1622 46.0251 16.1622L47.4305 11.946C47.7116 10.6811 48.8359 9.97841 51.3656 9.97841ZM62.4683 19.8162C58.2521 19.8162 51.9278 19.8162 47.7116 19.8162C45.3224 19.8162 44.1981 20.5189 43.7765 21.7838L42.3711 25.9999C46.5873 25.9999 52.9116 25.9999 57.1278 25.9999C59.517 25.9999 60.6413 25.2972 61.0629 24.0324L62.4683 19.8162Z" fill="#1AB148"/>
<path fill-rule="evenodd" clip-rule="evenodd" d="M33.3771 6.32429H37.0312C40.1231 6.32429 39.4204 10.1189 37.8744 13.6324C36.469 16.8648 34.0798 19.6756 31.1285 19.6756L25.0853 19.8161C22.6961 19.8161 21.5718 20.5188 21.1502 21.7837L19.6042 25.9999H24.1015H28.4583C32.2528 25.9999 35.4852 25.7188 39.1393 22.4864C43.0744 19.1134 47.5717 10.2594 46.7284 5.19997C46.1663 1.26486 43.9176 0 38.5771 0H28.8799L23.2583 16.0215H26.9123C29.0204 16.0215 30.1447 16.0215 31.2691 13.0702L33.3771 6.32429Z" fill="#1AB148"/>
<path fill-rule="evenodd" clip-rule="evenodd" d="M16.6526 6.46492H13.9823C8.50128 6.46492 3.86346 19.8162 10.3283 19.8162H14.5445C16.9337 19.8162 18.7607 20.6594 17.9174 22.9081L16.7931 25.9999H12.4364H8.9229C4.28508 25.9999 1.33375 23.7513 0.34997 20.5189C-0.774349 16.8649 0.771589 9.41625 5.54994 4.6379C8.07966 1.8271 11.8742 0.140625 16.7931 0.140625H25.7877L24.3823 4.07574C23.539 6.60546 21.5715 6.46492 20.5877 6.46492H16.6526Z" fill="#1AB148"/>
</svg>
