<svg width="51" height="50" viewBox="0 0 51 50" fill="none" xmlns="http://www.w3.org/2000/svg">
<g clip-path="url(#clip0_531_39131)">
<path d="M25.9839 49.3305C39.2979 49.3305 50.091 38.5374 50.091 25.2234C50.091 11.9093 39.2979 1.11621 25.9839 1.11621C12.6698 1.11621 1.87671 11.9093 1.87671 25.2234C1.87671 38.5374 12.6698 49.3305 25.9839 49.3305Z" fill="#88BF48"/>
<path d="M40.047 23.8842C39.3774 23.8842 38.7077 23.8842 38.0381 23.8842C37.8149 22.9914 37.8149 22.0985 37.5917 21.4289C36.922 18.3039 35.1363 15.8485 32.2345 14.286C30.8952 13.6164 29.5559 13.1699 28.2167 12.9467C27.7702 12.9467 27.547 12.9467 27.3238 12.9467C27.1006 12.9467 27.1006 12.7235 27.1006 12.5003C27.1006 12.2771 27.1006 12.0539 27.1006 12.0539C27.1006 10.7146 27.3238 10.9378 28.2167 10.9378C29.5559 10.9378 30.8952 11.3842 32.2345 12.0539C34.0202 12.7235 35.3595 13.8396 36.6988 15.1789C38.0381 16.5181 38.9309 18.0806 39.3774 19.8663C39.6006 20.9824 39.8238 22.0985 40.047 22.9914C39.8238 23.2146 39.8238 23.4378 40.047 23.8842Z" fill="white"/>
<path d="M26.877 17.8576C26.877 17.188 26.877 16.5183 26.877 16.0719C30.6716 15.6255 35.1359 19.1969 34.9127 23.8844C34.243 23.8844 33.7966 23.8844 33.127 23.8844C32.6805 20.313 30.4484 18.304 26.877 17.8576Z" fill="white"/>
<path fill-rule="evenodd" clip-rule="evenodd" d="M17.7247 15.8478C17.2783 14.5085 16.8319 14.7317 16.3855 14.7317C15.939 14.7317 15.4926 14.7317 15.0462 14.7317C14.5997 14.7317 13.9301 14.9549 13.2605 15.6246C12.5908 16.2942 11.0283 17.8567 11.0283 21.2049C11.0283 24.5532 13.4837 27.6782 13.7069 28.1246C13.9301 28.571 18.3944 35.4907 25.0908 38.1692C31.7872 40.8478 31.7872 39.9549 33.1265 39.7317C34.2426 39.7317 37.1444 38.1692 37.5908 36.6067C38.0372 35.0442 38.0373 33.7049 38.0373 33.4817C37.814 33.2585 37.3676 33.0353 36.698 32.8121C36.0283 32.5889 32.6801 30.8032 32.2337 30.5799C31.564 30.3567 31.1176 30.3567 30.6712 30.8032C30.2247 31.4728 28.8855 33.0353 28.6623 33.4817C28.2158 33.9282 27.9926 33.9282 27.323 33.7049C26.6533 33.4817 24.4212 32.5889 21.9658 30.3567C19.9569 28.571 18.6176 26.3389 18.1712 25.6692C17.7247 24.9996 18.1712 24.5532 18.3944 24.3299C18.6176 24.1067 19.064 23.6603 19.2872 23.2139C19.5105 22.7674 19.7337 22.5442 19.9569 22.0978C20.1801 21.6514 19.9569 21.2049 19.9569 20.9817C19.7337 20.3121 18.3944 17.1871 17.7247 15.8478Z" fill="white"/>
</g>
<defs>
<clipPath id="clip0_531_39131">
<rect width="50" height="50" fill="white" transform="translate(0.760742)"/>
</clipPath>
</defs>
</svg>
