<svg width="51" height="50" viewBox="0 0 51 50" fill="none" xmlns="http://www.w3.org/2000/svg">
<path d="M25.9863 50C39.7934 50 50.9863 38.8071 50.9863 25C50.9863 11.1929 39.7934 0 25.9863 0C12.1792 0 0.986328 11.1929 0.986328 25C0.986328 38.8071 12.1792 50 25.9863 50Z" fill="url(#paint0_linear_531_39121)"/>
<path d="M11.5922 24.2422L28.2588 17.424C29.774 16.6664 35.077 14.3937 35.077 14.3937C35.077 14.3937 37.3498 13.6361 37.3498 15.9088C37.3498 16.6664 36.5922 20.4543 35.8346 24.2422L34.3195 35.6058C34.3195 35.6058 34.3195 37.1209 32.8043 37.8785C31.2891 38.6361 29.774 36.3634 29.774 36.3634C29.774 36.3634 24.471 32.5755 22.9558 31.0603C22.1982 30.3028 22.1982 29.5452 22.9558 28.7876C25.2285 26.5149 28.2588 23.4846 30.5316 21.9694C30.5316 21.2119 31.2892 18.9391 28.2588 21.2119L17.6528 28.03C17.6528 28.03 16.1376 28.7876 14.6225 28.03C13.1073 27.2725 10.077 26.5149 10.077 26.5149C10.077 26.5149 8.56188 25.7573 11.5922 24.2422Z" fill="white"/>
<defs>
<linearGradient id="paint0_linear_531_39121" x1="32.8255" y1="7.80206" x2="-9.91741" y2="107.529" gradientUnits="userSpaceOnUse">
<stop stop-color="#37ADE1"/>
<stop offset="1" stop-color="#1E95C7"/>
</linearGradient>
</defs>
</svg>
