<svg width="46" height="50" viewBox="0 0 46 50" fill="none" xmlns="http://www.w3.org/2000/svg">
<path fill-rule="evenodd" clip-rule="evenodd" d="M24.6813 0C30.2493 0 36.0094 0.576005 40.6174 3.84004C42.9214 5.56805 44.2655 8.44808 45.0335 11.3281C45.9935 15.5521 46.1855 19.9682 45.8015 24.0002C45.6095 27.6483 44.6495 31.4883 42.7294 34.5603C41.5774 36.2883 39.4654 37.4404 37.5454 38.2084C32.1693 40.3204 26.2173 40.5124 20.4572 40.5124H20.2652L12.0092 49.9205C11.8171 50.1125 11.4331 49.9205 11.4331 49.7285V39.5524C11.2411 39.5524 11.2411 39.5524 11.0491 39.3604C7.97711 38.2084 5.09709 36.4803 3.36907 33.6003C1.44905 30.1443 1.06505 26.1122 0.873047 22.2722C0.873047 18.2402 0.873047 14.2081 2.21706 10.3681C3.56107 6.52806 6.4411 3.45603 10.2811 1.92002C14.8892 0 19.8812 0 24.6813 0Z" fill="#675DAB"/>
<path fill-rule="evenodd" clip-rule="evenodd" d="M22.378 4.99219C24.874 5.18419 27.562 5.56819 29.674 6.7202C32.9381 8.25622 35.6261 11.1362 37.3541 14.9763C38.1221 16.8963 38.3141 19.2003 38.3141 21.3123C38.3141 21.3123 38.3141 21.8883 37.7381 22.0803C37.1621 22.2724 36.5861 22.0803 36.3941 21.3123C36.3941 18.0483 35.6261 14.5923 33.3221 11.7123C31.5941 9.60023 29.098 8.06422 26.41 7.29621C25.066 6.91221 23.53 6.91221 22.186 6.7202C22.186 6.7202 21.61 6.5282 21.418 6.1442C21.418 5.56819 21.61 4.99219 22.378 4.99219Z" fill="white"/>
<path fill-rule="evenodd" clip-rule="evenodd" d="M23.3373 9.2163C23.3373 9.2163 23.5293 9.2163 23.7213 9.2163C27.7534 9.7923 31.9774 12.0963 33.3214 16.3204C33.8974 17.8564 33.8974 18.8164 33.8974 20.3524C33.8974 21.6964 31.9774 21.6964 31.9774 20.5444C31.9774 19.9684 31.9774 19.5844 31.9774 19.0084C31.5934 17.2804 31.5934 16.7044 30.8254 15.1684C29.6734 12.8643 26.9854 11.9043 24.4893 11.5203C24.4893 11.5203 24.4893 11.5203 24.2973 11.5203C24.2973 11.5203 24.2973 11.5203 24.1053 11.5203C23.9133 11.5203 23.7213 11.3283 23.5293 11.1363C23.3373 10.9443 23.1453 10.5603 23.1453 10.1763C23.3373 9.7923 23.7213 9.4083 24.1053 9.4083L23.3373 9.2163ZM13.5452 7.48828C14.5052 7.48828 15.0812 8.25629 15.8493 8.83229C17.3853 10.3683 18.5373 12.4803 19.3053 14.4003V14.5923C19.3053 15.3604 18.7293 15.7444 18.3453 16.1284C17.5773 16.8964 16.6173 17.4724 16.8093 18.6244C17.0013 20.1604 18.1533 21.5044 19.1133 22.8484C20.6493 24.7684 22.3773 26.6885 24.8733 27.2645C25.6413 27.4565 26.4094 27.4565 26.9854 27.0725C27.9454 26.1125 28.5214 24.5764 30.0574 24.9604C31.7854 25.3444 33.3214 26.6885 34.6654 27.8405C35.6254 28.6085 36.7775 29.3765 36.7775 30.5285C36.7775 31.4885 36.2014 32.4485 35.4334 33.2165C34.2814 34.5605 32.5534 35.9045 30.8254 35.5205C28.3294 34.9445 26.0254 33.7925 23.9133 32.4485C20.6493 30.5285 17.3853 28.2245 14.8892 25.1524C12.7772 22.6564 10.8572 19.7764 9.5132 16.7044C9.12919 15.3604 8.55319 14.0163 8.55319 12.8643C8.36119 10.7523 10.4732 8.64029 12.5852 7.68028C12.7772 7.48828 13.1612 7.48828 13.5452 7.48828Z" fill="white"/>
<path fill-rule="evenodd" clip-rule="evenodd" d="M24.2975 13.6328C26.4095 13.8248 28.3296 14.5928 29.0976 16.3208C29.4816 17.2808 29.8656 18.4329 29.6736 19.3929C29.4816 20.3529 27.7536 20.5449 27.7536 19.2009C27.7536 17.8569 27.3695 16.5128 26.0255 15.9368C25.0655 15.5528 23.5295 15.9368 23.1455 14.9768C23.1455 14.2088 23.5295 13.6328 24.2975 13.6328Z" fill="white"/>
</svg>
