<svg width="51" height="50" viewBox="0 0 51 50" fill="none" xmlns="http://www.w3.org/2000/svg">
<path d="M0.989121 23.9834C0.989121 12.6718 0.989121 7.01598 4.60883 3.39627C8.22854 -0.223439 13.6581 0.00279299 24.9697 0.00279299H26.5533C37.8649 0.00279299 43.5207 0.0027929 47.1404 3.6225C50.7601 7.24221 50.7601 12.898 50.7601 24.2096V25.7932C50.7601 37.1048 50.7601 42.7606 47.1404 46.3803C43.5207 50 37.8649 50 26.5533 50H24.9697C13.6581 50 8.0023 50 4.3826 46.3803C0.762889 42.7606 0.989121 36.8786 0.989121 25.567V23.9834Z" fill="#2786F4"/>
<path fill-rule="evenodd" clip-rule="evenodd" d="M41.9377 16.9697C42.1639 16.291 41.9377 15.6123 40.8065 15.6123H37.1868C36.2819 15.6123 35.8294 16.0648 35.6032 16.7435C35.6032 16.7435 33.7934 21.2681 31.0786 24.4353C30.1737 25.3403 29.7212 25.5665 29.2687 25.5665C29.0425 25.5665 28.59 25.3403 28.59 24.4353V16.9697C28.59 16.0648 28.3638 15.6123 27.4589 15.6123H21.8031C21.1244 15.6123 20.6719 15.8385 20.6719 16.291C20.6719 17.1959 22.0293 17.4222 22.2555 19.9107V25.3403C22.2555 26.4714 22.0293 26.6977 21.5768 26.6977C20.2195 26.6977 17.2784 22.173 15.4686 16.7435C15.0161 15.8385 14.7899 15.6123 13.6587 15.6123H10.039C8.90787 15.6123 8.68164 16.0648 8.68164 16.7435C8.68164 17.6484 10.039 22.3993 14.5637 28.96C17.7309 33.2584 22.0293 35.7469 25.8752 35.7469C28.1376 35.7469 28.59 35.2945 28.59 34.3895V30.9961C28.59 29.8649 28.8163 29.6387 29.495 29.6387C29.9474 29.6387 31.0786 29.8649 33.1147 32.1272C35.6032 34.6158 36.0557 35.7469 37.4131 35.7469H41.0328C42.1639 35.7469 42.6164 35.2945 42.3902 34.1633C42.1639 33.0321 40.8065 31.6748 39.2229 29.8649C38.318 28.7337 36.9606 27.8288 36.7344 27.1501C36.2819 26.4714 36.2819 26.019 36.7344 25.5665C36.9606 25.3403 41.4852 19.0058 41.9377 16.9697Z" fill="white"/>
</svg>
