<svg width="50" height="50" viewBox="0 0 50 50" fill="none" xmlns="http://www.w3.org/2000/svg">
<path d="M0 50L3.51562 37.1582C1.34766 33.4082 0.214844 29.1406 0.214844 24.7754C0.214844 11.1133 11.3379 0 25 0C31.6309 0 37.8516 2.58789 42.5293 7.26562C47.207 11.9531 49.7852 18.1738 49.7852 24.7949C49.7754 38.457 38.6621 49.5703 25 49.5703H24.9902C20.8398 49.5703 16.7676 48.5254 13.1445 46.5527L0 50ZM13.75 42.0703L14.502 42.5195C17.666 44.3945 21.2891 45.3906 24.9902 45.3906H25C36.3574 45.3906 45.5957 36.1523 45.5957 24.7949C45.5957 19.2969 43.457 14.1211 39.5703 10.2246C35.6836 6.32812 30.5078 4.18945 25.0098 4.18945C13.6426 4.18945 4.4043 13.4277 4.4043 24.7852C4.4043 28.6719 5.48828 32.4609 7.54883 35.7422L8.03711 36.5234L5.95703 44.1211L13.75 42.0703Z" fill="white"/>
<path d="M0.869141 49.1309L4.26758 36.7383C2.16797 33.1152 1.06445 28.9941 1.06445 24.7852C1.07422 11.5918 11.8066 0.869141 24.9902 0.869141C31.3867 0.869141 37.4023 3.35938 41.9141 7.88086C46.4356 12.4023 48.9258 18.4082 48.916 24.8047C48.9063 37.9883 38.1738 48.7207 24.9902 48.7207H24.9805C20.9766 48.7207 17.041 47.7149 13.5449 45.8106L0.869141 49.1309Z" fill="url(#paint0_linear_531_39111)"/>
<path d="M0.0878906 50L3.60352 37.1582C1.43555 33.4082 0.302734 29.1406 0.302734 24.7754C0.302734 11.1133 11.4258 0 25.0879 0C31.7188 0 37.9395 2.58789 42.6172 7.26562C47.2949 11.9531 49.873 18.1738 49.873 24.7949C49.8633 38.457 38.75 49.5703 25.0879 49.5703H25.0781C20.9277 49.5703 16.8555 48.5254 13.2324 46.5527L0.0878906 50ZM13.8379 42.0703L14.5898 42.5195C17.7539 44.3945 21.377 45.3906 25.0781 45.3906H25.0879C36.4453 45.3906 45.6836 36.1523 45.6836 24.7949C45.6836 19.2969 43.5449 14.1211 39.6582 10.2246C35.7715 6.32812 30.5957 4.18945 25.0977 4.18945C13.7305 4.18945 4.49219 13.4277 4.49219 24.7852C4.49219 28.6719 5.57617 32.4609 7.63672 35.7422L8.125 36.5234L6.04492 44.1211L13.8379 42.0703Z" fill="url(#paint1_linear_531_39111)"/>
<path fill-rule="evenodd" clip-rule="evenodd" d="M18.7988 14.4146C18.3301 13.3794 17.8418 13.3599 17.4023 13.3403C17.041 13.3208 16.6309 13.3306 16.2109 13.3306C15.8008 13.3306 15.127 13.4868 14.5605 14.102C13.9941 14.7173 12.3926 16.2212 12.3926 19.2681C12.3926 22.3149 14.6094 25.2642 14.9219 25.6743C15.2344 26.0845 19.209 32.5396 25.498 35.02C30.7324 37.0806 31.7969 36.6704 32.9297 36.5728C34.0625 36.4751 36.5918 35.0786 37.1094 33.6333C37.627 32.188 37.627 30.9478 37.4707 30.6938C37.3145 30.4399 36.9043 30.2837 36.2793 29.9712C35.6641 29.6587 32.6172 28.1645 32.0508 27.9595C31.4844 27.7544 31.0742 27.647 30.6543 28.272C30.2441 28.8872 29.0527 30.2837 28.6914 30.6938C28.3301 31.104 27.9688 31.1626 27.3535 30.8501C26.7383 30.5376 24.7363 29.8833 22.373 27.7739C20.5273 26.1333 19.2871 24.1021 18.9258 23.4868C18.5645 22.8716 18.8867 22.5298 19.1992 22.2271C19.4727 21.9536 19.8145 21.5044 20.127 21.1431C20.4395 20.7817 20.5371 20.5278 20.7422 20.1079C20.9473 19.6978 20.8496 19.3364 20.6934 19.0239C20.5566 18.7017 19.3555 15.645 18.7988 14.4146Z" fill="white"/>
<defs>
<linearGradient id="paint0_linear_531_39111" x1="24.8924" y1="49.1349" x2="24.8924" y2="0.86582" gradientUnits="userSpaceOnUse">
<stop stop-color="#20B038"/>
<stop offset="1" stop-color="#60D66A"/>
</linearGradient>
<linearGradient id="paint1_linear_531_39111" x1="24.9805" y1="50" x2="24.9805" y2="0" gradientUnits="userSpaceOnUse">
<stop stop-color="#F9F9F9"/>
<stop offset="1" stop-color="white"/>
</linearGradient>
</defs>
</svg>
