<svg width="55" height="50" viewBox="0 0 55 50" fill="none" xmlns="http://www.w3.org/2000/svg">
<g clip-path="url(#clip0_531_39140)">
<path d="M37.1764 17.8082C38.5462 19.863 39.4024 22.2603 39.4024 24.8288C39.4024 31.6781 34.2654 37.1575 27.5873 37.1575C20.9092 37.1575 15.7723 31.6781 15.7723 24.8288C15.7723 17.9795 20.9092 12.5 27.5873 12.5C30.4983 12.5 33.238 13.5274 35.2928 15.411L44.0257 5.13699C39.5736 1.88356 33.9229 0 27.5873 0C12.1764 0 0.875 10.9589 0.875 25C0.875 39.0411 12.1764 50 27.5873 50C42.8271 50 54.2997 39.0411 54.2997 25C54.2997 19.1781 52.4161 13.8699 48.9914 9.58904L37.1764 17.8082Z" fill="#009EE2"/>
</g>
<defs>
<clipPath id="clip0_531_39140">
<rect width="53.2534" height="50" fill="white" transform="translate(0.875)"/>
</clipPath>
</defs>
</svg>
