<svg width="44" height="50" viewBox="0 0 44 50" fill="none" xmlns="http://www.w3.org/2000/svg">
<path d="M35.9837 0.286234C39.75 -0.969208 43.8751 2.07972 43.8751 6.0254C43.8751 18.7592 43.8751 31.3136 43.8751 44.0474C43.8751 47.2757 41.0055 50.1452 37.7772 49.9659C34.3696 50.1452 31.5 46.917 31.6793 43.5093C31.6793 31.1343 31.6793 18.7592 31.6793 6.56345C31.5 3.69386 33.2935 1.18298 35.9837 0.286234Z" fill="#F8AA00"/>
<path d="M20.8502 19.1174C24.4372 17.6826 28.7415 20.9109 28.7415 24.6773C28.7415 30.9545 28.7415 37.2317 28.7415 43.3295C28.7415 45.3024 28.0241 47.4546 26.2306 48.5307C24.0785 50.3242 20.3121 50.1448 18.5186 47.9926C16.9045 46.1991 16.5458 43.6882 16.5458 41.5361C16.5458 35.9762 16.5458 30.4164 16.5458 24.6773C16.5458 22.1664 18.5186 20.0142 20.8502 19.1174ZM3.99138 37.9491C7.57836 36.5143 11.8827 39.0252 12.2414 42.9708C12.7795 46.3785 10.0892 49.7861 6.68161 49.9655C3.45333 50.3242 0.225053 47.8133 0.0457042 44.585C-0.312994 41.7154 1.4805 38.8458 3.99138 37.9491Z" fill="#E27400"/>
</svg>
