<svg width="50" height="50" viewBox="0 0 50 50" fill="none" xmlns="http://www.w3.org/2000/svg">
<mask id="mask0_531_39144" style="mask-type:alpha" maskUnits="userSpaceOnUse" x="0" y="0" width="50" height="50">
<circle cx="25" cy="25" r="25" fill="#D9D9D9"/>
</mask>
<g mask="url(#mask0_531_39144)">
<path d="M25 50C38.8071 50 50 38.8071 50 25C50 11.1929 38.8071 0 25 0C11.1929 0 0 11.1929 0 25C0 38.8071 11.1929 50 25 50Z" fill="white"/>
<path d="M0 0H50V50H0V0Z" fill="url(#paint0_linear_531_39144)"/>
<path d="M0 30.7695H15.3846V50.0003H0V30.7695Z" fill="url(#paint1_linear_531_39144)"/>
<path d="M15.3848 24.6155C15.3848 21.3463 15.3848 19.8078 15.9617 18.4617C16.5386 17.3078 17.3078 16.5386 18.4617 15.9617C19.8078 15.3848 21.3463 15.3848 24.6155 15.3848H34.6155V50.0001H15.3848V24.6155Z" fill="url(#paint2_linear_531_39144)"/>
<path d="M34.6152 0H49.9998V50H34.6152V0Z" fill="url(#paint3_linear_531_39144)"/>
</g>
<defs>
<linearGradient id="paint0_linear_531_39144" x1="34.0085" y1="37.5612" x2="-7.24193" y2="-19.9396" gradientUnits="userSpaceOnUse">
<stop stop-color="#4643B8"/>
<stop offset="1" stop-color="#1E89FF"/>
</linearGradient>
<linearGradient id="paint1_linear_531_39144" x1="16.6421" y1="41.9438" x2="-28.8331" y2="34.023" gradientUnits="userSpaceOnUse">
<stop stop-color="#FF002E"/>
<stop offset="1" stop-color="#FFACA0"/>
</linearGradient>
<linearGradient id="paint2_linear_531_39144" x1="15.7257" y1="111.545" x2="27.1742" y2="17.9132" gradientUnits="userSpaceOnUse">
<stop stop-color="#3C3B9F"/>
<stop offset="0.49" stop-color="#1E89FF"/>
<stop offset="1" stop-color="#00B1FF"/>
</linearGradient>
<linearGradient id="paint3_linear_531_39144" x1="27.0895" y1="17.1362" x2="70.632" y2="39.6363" gradientUnits="userSpaceOnUse">
<stop stop-color="#FFE91A"/>
<stop offset="1" stop-color="#FFB700"/>
</linearGradient>
</defs>
</svg>
