<svg width="50" height="50" viewBox="0 0 50 50" fill="none" xmlns="http://www.w3.org/2000/svg">
<mask id="mask0_531_39368" style="mask-type:alpha" maskUnits="userSpaceOnUse" x="0" y="0" width="50" height="50">
<circle cx="25" cy="25" r="25" fill="#D9D9D9"/>
</mask>
<g mask="url(#mask0_531_39368)">
<mask id="mask1_531_39368" style="mask-type:luminance" maskUnits="userSpaceOnUse" x="0" y="-1" width="51" height="51">
<path d="M25.1092 49.9937C38.9766 49.9937 50.2183 38.752 50.2183 24.8846C50.2183 11.0171 38.9766 -0.224609 25.1092 -0.224609C11.2418 -0.224609 0 11.0171 0 24.8846C0 38.752 11.2418 49.9937 25.1092 49.9937Z" fill="white"/>
</mask>
<g mask="url(#mask1_531_39368)">
<path d="M25.1092 49.9937C38.9766 49.9937 50.2183 38.752 50.2183 24.8846C50.2183 11.0171 38.9766 -0.224609 25.1092 -0.224609C11.2418 -0.224609 0 11.0171 0 24.8846C0 38.752 11.2418 49.9937 25.1092 49.9937Z" fill="#19497F"/>
</g>
<mask id="mask2_531_39368" style="mask-type:luminance" maskUnits="userSpaceOnUse" x="-1" y="-2" width="52" height="53">
<path d="M25.0003 50.0007C39.2677 50.0007 50.8337 38.4347 50.8337 24.1673C50.8337 9.89996 39.2677 -1.66602 25.0003 -1.66602C10.733 -1.66602 -0.833008 9.89996 -0.833008 24.1673C-0.833008 38.4347 10.733 50.0007 25.0003 50.0007Z" fill="white"/>
</mask>
<g mask="url(#mask2_531_39368)">
<path d="M20.5076 50.2255C20.283 50.2255 20.283 50.2255 20.0583 50.2255C19.8337 50.2255 19.6091 50.2255 19.3844 50.0009C18.9352 50.0009 18.7105 49.7763 18.2612 49.7763C13.7685 48.6531 9.94964 46.4067 6.58008 43.2618C6.58008 43.2618 6.58008 43.2618 6.58008 43.0371C7.02935 42.8125 7.25399 42.3632 7.47863 42.1386C14.4424 35.3994 21.6308 28.6603 29.0438 22.3705C29.2685 22.1458 29.4931 21.9212 29.7178 21.6965C29.2685 21.9212 28.5946 21.9212 28.1453 22.1458C27.9207 22.1458 27.696 22.3705 27.2467 22.3705C23.6525 23.269 20.283 24.1676 16.6888 25.0661C16.4641 25.0661 16.4641 25.0661 16.2395 25.0661C13.3192 25.5154 10.3989 24.3922 9.05109 21.6965C7.47863 19.2255 7.70327 15.6313 9.72501 13.6096C10.1743 13.1603 10.3989 12.711 10.8482 12.4864C10.8482 12.4864 11.0728 12.4864 11.0728 12.2618C12.6453 11.1386 14.4424 10.9139 16.2395 10.4647C20.283 9.56611 24.5511 8.44292 28.5946 7.54437C32.638 6.64582 36.6815 5.29799 40.725 4.39944C40.9496 4.39944 41.1743 4.39944 41.3989 4.1748C41.8482 4.39944 42.0728 4.62408 42.2975 4.84872C42.5221 5.29799 42.5221 5.29799 42.7467 5.52263C48.1381 10.9139 51.0583 18.327 50.6091 25.9647C50.1598 33.827 45.8917 41.24 39.3772 45.7328C38.254 46.4067 37.1308 47.0806 36.0076 47.7545C35.783 47.9792 35.3337 47.9792 35.1091 48.2038C35.3337 42.8125 37.8047 38.0951 39.6018 32.9284C39.6018 32.7038 39.8265 32.4792 39.8265 32.2545C39.3772 32.4792 39.1525 32.9284 38.7033 33.1531C38.4786 33.3777 38.254 33.6023 38.254 33.6023C32.638 38.769 27.0221 44.1603 21.1815 49.327C20.7323 49.7763 20.7323 50.0009 20.5076 50.2255Z" fill="#FECB09"/>
</g>
</g>
</svg>
