<svg width="50" height="50" viewBox="0 0 50 50" fill="none" xmlns="http://www.w3.org/2000/svg">
<path d="M0.00279299 23.9834C0.00279299 12.6718 0.0027929 7.01598 3.6225 3.39627C7.24221 -0.223439 12.6718 0.00279299 23.9834 0.00279299H25.567C36.8786 0.00279299 42.5343 0.0027929 46.1541 3.6225C49.7738 7.24221 49.7738 12.898 49.7738 24.2096V25.7932C49.7738 37.1048 49.7738 42.7606 46.1541 46.3803C42.5343 50 36.8786 50 25.567 50H23.9834C12.6718 50 7.01598 50 3.39627 46.3803C-0.223439 42.7606 0.00279299 36.8786 0.00279299 25.567V23.9834Z" fill="#2786F4"/>
<path fill-rule="evenodd" clip-rule="evenodd" d="M40.9514 16.9707C41.1776 16.292 40.9514 15.6133 39.8202 15.6133H36.2005C35.2956 15.6133 34.8431 16.0657 34.6169 16.7444C34.6169 16.7444 32.807 21.2691 30.0922 24.4363C29.1873 25.3412 28.7349 25.5675 28.2824 25.5675C28.0562 25.5675 27.6037 25.3412 27.6037 24.4363V16.9707C27.6037 16.0657 27.3775 15.6133 26.4725 15.6133H20.8168C20.1381 15.6133 19.6856 15.8395 19.6856 16.292C19.6856 17.1969 21.043 17.4231 21.2692 19.9117V25.3412C21.2692 26.4724 21.043 26.6986 20.5905 26.6986C19.2331 26.6986 16.2921 22.174 14.4823 16.7444C14.0298 15.8395 13.8036 15.6133 12.6724 15.6133H9.0527C7.92154 15.6133 7.69531 16.0657 7.69531 16.7444C7.69531 17.6494 9.0527 22.4002 13.5773 28.961C16.7446 33.2594 21.043 35.7479 24.8889 35.7479C27.1512 35.7479 27.6037 35.2954 27.6037 34.3905V30.997C27.6037 29.8659 27.8299 29.6396 28.5086 29.6396C28.9611 29.6396 30.0922 29.8659 32.1283 32.1282C34.6169 34.6167 35.0693 35.7479 36.4267 35.7479H40.0464C41.1776 35.7479 41.6301 35.2954 41.4038 34.1643C41.1776 33.0331 39.8202 31.6757 38.2366 29.8659C37.3317 28.7347 35.9743 27.8298 35.748 27.1511C35.2956 26.4724 35.2956 26.0199 35.748 25.5675C35.9743 25.3412 40.4989 19.0068 40.9514 16.9707Z" fill="white"/>
</svg>
