<svg width="50" height="50" viewBox="0 0 50 50" fill="none" xmlns="http://www.w3.org/2000/svg">
<g clip-path="url(#clip0_531_39099)">
<path fill-rule="evenodd" clip-rule="evenodd" d="M43.5143 50H6.50132C2.88351 50 0.0078125 47.1243 0.0078125 43.5065V6.49351C0.0078125 2.8757 2.88351 0 6.50132 0H43.5143C47.1321 0 50.0078 2.8757 50.0078 6.49351V43.5065C50.0078 47.0315 47.0394 50 43.5143 50Z" fill="white"/>
<path fill-rule="evenodd" clip-rule="evenodd" d="M13.0881 4.8235C14.0157 4.73074 15.0361 4.91627 15.9638 5.1018C18.0046 5.56562 19.8599 6.86432 21.0658 8.53408C22.2717 10.2038 22.8283 12.3374 22.7356 14.3782C22.6428 16.5118 21.6224 18.5526 20.1382 20.0369C18.6539 21.5211 16.7059 22.4487 14.5723 22.6343C11.9749 22.9126 9.19196 21.8921 7.42943 19.9441C5.75968 18.2743 4.9248 15.9552 4.83203 13.6361C4.9248 11.6881 5.57415 9.64725 6.78008 8.16302C8.35708 6.30773 10.6762 5.1018 13.0881 4.8235Z" fill="#47A1D9"/>
<path fill-rule="evenodd" clip-rule="evenodd" d="M32.7538 6.95701C34.3308 6.58596 36.0006 6.77148 37.392 7.5136C39.3401 8.44124 40.8243 10.3893 41.1954 12.5229C41.5664 14.3782 41.1026 16.419 39.9894 17.996C38.969 19.4802 37.2993 20.5006 35.5367 20.7789C33.5887 21.15 31.4551 20.5934 29.8781 19.2947C28.4867 18.1815 27.6518 16.5117 27.3735 14.842C27.0952 12.8012 27.7445 10.5748 29.2288 9.09059C30.1564 7.97742 31.3623 7.23531 32.7538 6.95701Z" fill="#F06164"/>
<path fill-rule="evenodd" clip-rule="evenodd" d="M32.8464 23.4691C34.7945 23.1908 36.7425 23.4691 38.505 24.2113C41.0097 25.2317 43.0505 27.2725 44.1637 29.6844C45.2768 32.0962 45.4624 34.9719 44.6275 37.5693C43.4216 41.4654 39.8965 44.4339 35.9076 44.9905C33.1247 45.3615 30.249 44.7122 28.0227 43.1352C25.9819 41.7437 24.4976 39.6101 23.8483 37.291C23.1989 34.9719 23.2917 32.2818 24.3121 30.0554C25.7036 26.5304 29.0431 23.933 32.8464 23.4691Z" fill="#96C93D"/>
<path fill-rule="evenodd" clip-rule="evenodd" d="M12.6247 29.3137C14.851 28.7571 17.2629 29.8703 18.2833 31.9111C18.9327 33.2098 19.0254 34.7868 18.4688 36.1782C17.8195 37.6625 16.5208 38.7757 14.9438 39.1467C12.903 39.7033 10.4911 38.6829 9.4707 36.8276C8.26476 34.8795 8.54306 32.2821 10.2128 30.7052C10.8622 30.0558 11.697 29.4992 12.6247 29.3137Z" fill="#A975B1"/>
</g>
<defs>
<clipPath id="clip0_531_39099">
<rect width="50" height="50" fill="white" transform="translate(0.0078125)"/>
</clipPath>
</defs>
</svg>
