<svg width="51" height="50" viewBox="0 0 51 50" fill="none" xmlns="http://www.w3.org/2000/svg">
<g clip-path="url(#clip0_531_39087)">
<path fill-rule="evenodd" clip-rule="evenodd" d="M5.97166 0H44.1296C45.6478 0 47.166 0.404858 48.2794 1.51822C49.4939 2.63158 50.1012 4.35223 50 5.97166V17.5101C49.5951 16.2955 49.3927 15.081 48.8866 13.9676C48.1781 12.753 46.0526 13.4615 46.2551 14.8785C46.6599 16.498 47.0648 18.2186 47.5709 19.8381C45.1417 18.8259 42.7126 17.7126 40.3846 16.7004C39.5749 16.3968 38.8664 15.8907 37.9555 15.9919C38.4615 18.8259 39.4737 21.6599 40.081 24.4939C40.2834 25.3036 40.3846 26.3158 41.0931 26.9231C42.004 27.6316 43.5223 26.7206 43.2186 25.6073C42.915 23.9879 42.4089 22.3684 42.004 20.749C44.6356 21.9636 47.2672 23.0769 49.8988 24.1903V39.2713C45.749 34.7166 41.3968 30.1619 37.1458 25.6073C37.5506 24.5951 37.6518 23.3806 37.3482 22.3684C36.7409 20.2429 34.6154 18.9271 32.6923 18.5223C29.3522 17.8138 25.8097 18.8259 23.2794 21.0526C21.9636 22.2672 20.8502 23.8866 20.9514 25.7085C20.8502 27.4291 21.9636 28.9474 23.2794 29.7571C22.5709 36.6397 21.7611 43.5223 21.0526 50.4049H5.97166C4.35223 50.4049 2.73279 50 1.61943 48.7854C0.506073 47.2672 0 45.749 0 44.1296V37.1458C1.21457 37.5506 2.53036 38.0567 3.84615 37.6518C6.2753 37.247 8.40081 35.0202 8.70445 32.4899C9.10931 29.9595 7.69231 27.2267 5.36437 26.0121C3.74494 25.1012 1.72065 25.1012 0 25.9109V5.97166C0 4.35223 0.506073 2.63158 1.72065 1.51822C2.93522 0.404858 4.45344 0 5.97166 0ZM10.1215 23.3806C9.51417 23.583 9.21053 24.1903 9.0081 24.7976C9.21053 25.7085 9.91903 26.5182 10.9312 26.2146C12.247 25.8097 13.4615 25.5061 14.7773 25.2024C13.4615 28.2389 12.3482 31.2753 11.0324 34.413C10.83 34.7166 10.83 35.4251 11.4372 35.3239C14.5749 34.5142 17.8138 33.7045 20.9514 32.7935C21.8623 32.4899 21.9636 31.3765 21.6599 30.5668C21.2551 30.0607 20.5466 29.8583 19.8381 30.0607C18.4211 30.4656 16.9028 30.8704 15.4858 31.2753C16.3968 28.9474 17.4089 26.6194 18.3198 24.2915C18.7247 23.2794 19.2308 22.3684 19.332 21.3563C18.8259 21.3563 18.4211 21.3563 17.915 21.4575C15.2834 21.9636 12.6518 22.6721 10.1215 23.3806ZM1.61943 28.5425C1.01215 28.7449 0.506073 29.251 0.101215 29.8583V33.2996C0.910931 34.5142 2.53036 35.2227 3.94737 34.6154C5.5668 34.1093 6.47773 31.9838 5.76923 30.4656C5.16194 28.8462 3.13765 27.834 1.61943 28.5425Z" fill="#005BFF"/>
<path fill-rule="evenodd" clip-rule="evenodd" d="M46.3563 14.7768C46.2551 13.3598 48.2794 12.6513 48.9879 13.8659C49.4939 14.9793 49.6964 16.2951 50.1012 17.4084V23.8862C47.4696 22.6716 44.8381 21.5582 42.2065 20.4449C42.6113 22.0643 43.2186 23.6837 43.4211 25.3032C43.6235 26.4165 42.1053 27.3275 41.2955 26.6189C40.587 26.1129 40.4858 25.1007 40.2834 24.1898C39.5749 21.3558 38.664 18.623 38.1579 15.6878C39.0688 15.5866 39.7773 16.0926 40.587 16.3963C43.0162 17.4084 45.4453 18.5218 47.7733 19.5339C47.166 18.0157 46.7611 16.3963 46.3563 14.7768ZM23.3806 20.6473C25.9109 18.4206 29.4534 17.4084 32.7935 18.1169C34.8178 18.623 36.9433 19.8376 37.4494 21.9631C37.8543 23.0764 37.6518 24.1898 37.247 25.2019C36.4372 26.9226 35.0202 28.3396 33.4008 29.2505C30.3644 30.87 26.417 31.2748 23.3806 29.3517C22.0648 28.4408 20.9514 26.9226 21.0526 25.3032C20.9514 23.4813 22.0648 21.8619 23.3806 20.6473ZM23.8866 25.3032C24.0891 26.0117 24.3927 26.6189 25.1012 26.9226C27.2267 28.1372 29.7571 27.7323 31.8826 26.7202C33.1984 26.0117 34.6154 24.8983 34.919 23.3801C35.0202 22.5704 34.5142 21.8619 33.8057 21.457C32.4899 20.5461 30.7692 20.7485 29.251 20.8497C26.9231 21.3558 24.3927 22.7728 23.8866 25.3032ZM10.1215 23.3801C9.51417 23.5825 9.21053 24.1898 9.0081 24.7971C9.21053 25.708 9.91903 26.5177 10.9312 26.2141C12.247 25.8092 13.4615 25.5056 14.7773 25.2019C13.4615 28.2384 12.3482 31.2748 11.0324 34.4125C10.83 34.7161 10.83 35.4246 11.4372 35.3234C14.5749 34.5137 17.8138 33.704 20.9514 32.793C21.8623 32.4894 21.9636 31.376 21.6599 30.5663C21.2551 30.0602 20.5466 29.8578 19.8381 30.0602C18.4211 30.4651 16.9028 30.87 15.4858 31.2748C16.3968 28.9469 17.4089 26.6189 18.3198 24.291C18.7247 23.2789 19.2308 22.3679 19.332 21.3558C18.8259 21.3558 18.4211 21.3558 17.915 21.457C15.2834 21.9631 12.6518 22.6716 10.1215 23.3801ZM0 26.0117C1.72065 25.2019 3.74494 25.2019 5.36437 26.1129C7.69231 27.3275 9.10931 29.959 8.70445 32.5906C8.50202 35.121 6.37652 37.3477 3.84615 37.7526C2.53036 38.1574 1.21457 37.6513 0 37.2465V33.4003C0.809717 34.6149 2.42915 35.3234 3.84615 34.7161C5.46559 34.21 6.37652 32.0845 5.66802 30.5663C5.16194 29.0481 3.13765 28.036 1.61943 28.7445C1.01215 28.9469 0.506073 29.453 0.101215 30.0602L0 26.0117Z" fill="white"/>
<path fill-rule="evenodd" clip-rule="evenodd" d="M23.8867 25.3035C24.3928 22.8743 26.9231 21.4573 29.2511 20.9513C30.7693 20.8501 32.4899 20.7488 33.8057 21.5586C34.413 21.9634 35.0203 22.6719 34.9191 23.4816C34.6155 24.9998 33.2997 26.1132 31.8827 26.8217C29.7572 27.8339 27.2268 28.1375 25.1013 27.0241C24.3928 26.6193 24.0891 26.012 23.8867 25.3035ZM33.5021 29.2509C30.4657 30.8703 26.5183 31.2752 23.4818 29.3521C22.7733 36.2347 21.9636 43.1173 21.2551 49.9999H43.9272C45.5466 49.9999 47.1661 49.6962 48.3806 48.4816C49.6964 47.2671 50.2025 45.5464 50.1013 43.8258V38.8662C45.9515 34.3116 41.5993 29.7569 37.3482 25.2023C36.5385 26.9229 35.1215 28.3399 33.5021 29.2509Z" fill="#F81155"/>
</g>
<defs>
<clipPath id="clip0_531_39087">
<rect width="50.1012" height="50" fill="white"/>
</clipPath>
</defs>
</svg>
