<svg width="53" height="54" viewBox="0 0 53 54" fill="none" xmlns="http://www.w3.org/2000/svg">
<circle cx="26.5" cy="25.5" r="25.5" fill="url(#paint0_angular_531_40271)"/>
<ellipse cx="26" cy="25" rx="12" ry="7" fill="url(#paint1_linear_531_40271)"/>
<mask id="mask0_531_40271" style="mask-type:luminance" maskUnits="userSpaceOnUse" x="0" y="1" width="53" height="53">
<path d="M26.0591 53.1182C40.4511 53.1182 52.1182 41.4511 52.1182 27.0591C52.1182 12.6671 40.4511 1 26.0591 1C11.6671 1 0 12.6671 0 27.0591C0 41.4511 11.6671 53.1182 26.0591 53.1182Z" fill="white"/>
</mask>
<g mask="url(#mask0_531_40271)">
<path d="M15.5038 39.6685C15.5038 41.5365 16.9982 43.031 18.9597 43.031C20.8277 43.031 22.4155 41.5365 22.4155 39.6685C22.4155 37.8004 20.9211 36.306 18.9597 36.306C16.9982 36.306 15.5038 37.8004 15.5038 39.6685ZM29.2339 39.6685C29.2339 41.5365 30.7283 43.031 32.6897 43.031C34.5578 43.031 36.1456 41.5365 36.1456 39.6685C36.1456 37.8004 34.6512 36.306 32.6897 36.306C30.7283 36.306 29.2339 37.8004 29.2339 39.6685ZM-1.02832 10.9941V15.5708H7.65804C9.05907 15.5708 10.3667 16.5982 10.7403 17.9059L14.5698 33.6908H38.107L40.9091 21.7353H36.1456L34.371 29.2075H18.119L16.3444 21.7353H36.1456L37.2664 17.1587H15.2236V16.9719C14.383 13.516 11.3007 11.0875 7.65804 11.0875H-1.02832V10.9941Z" fill="white"/>
</g>
<defs>
<radialGradient id="paint0_angular_531_40271" cx="0" cy="0" r="1" gradientUnits="userSpaceOnUse" gradientTransform="translate(26.5 25.5) rotate(90) scale(25.5)">
<stop stop-color="#FF0C72"/>
<stop offset="0.180208" stop-color="#F4D700"/>
<stop offset="0.357292" stop-color="#06CD6D"/>
<stop offset="0.570833" stop-color="#0ACDAD"/>
<stop offset="0.7375" stop-color="#FBF4DA"/>
<stop offset="1" stop-color="#FF1D6B"/>
</radialGradient>
<linearGradient id="paint1_linear_531_40271" x1="14" y1="21.5" x2="38.2759" y2="27.964" gradientUnits="userSpaceOnUse">
<stop stop-color="#91DB38"/>
<stop offset="1" stop-color="#FDB3B9"/>
</linearGradient>
</defs>
</svg>
