<svg width="50" height="50" viewBox="0 0 50 50" fill="none" xmlns="http://www.w3.org/2000/svg">
<g clip-path="url(#clip0_531_39093)">
<path fill-rule="evenodd" clip-rule="evenodd" d="M50.0088 36.6419V13.3581C50.0088 6.02968 44.0719 0 36.6507 0H13.4596C6.13125 0 0.101562 6.02968 0.101562 13.3581V36.6419C0.101562 44.0631 6.13125 50 13.4596 50H36.6507C44.0719 50 50.0088 43.9703 50.0088 36.6419Z" fill="url(#paint0_linear_531_39093)"/>
<path fill-rule="evenodd" clip-rule="evenodd" d="M15.0363 33.2093H11.8824L7.24414 16.79H10.1198L13.5521 29.5915L17.2627 16.79H19.7673L23.4779 29.5915L26.9102 16.79H29.7859L25.1477 33.2093H21.9937L18.5614 21.2427L15.0363 33.2093ZM40.5466 24.675C41.938 25.4171 42.8657 26.8086 42.8657 28.4784C42.8657 29.8698 42.4018 30.983 41.4742 31.8179C40.5466 32.7455 39.3406 33.2093 37.9492 33.2093H30.8991V16.79H37.3926C38.784 16.79 39.8972 17.2539 40.8248 18.0887C41.7525 18.9236 42.2163 20.0368 42.2163 21.3355C42.2163 22.8197 41.6597 23.9329 40.5466 24.675ZM37.3926 19.2947H33.5892V23.5618H37.3926C38.5985 23.5618 39.5261 22.6342 39.5261 21.4283C39.5261 20.2223 38.5985 19.2947 37.3926 19.2947ZM33.5892 30.7047H37.9492C39.1551 30.7047 40.1755 29.6843 40.1755 28.3856C40.1755 27.0869 39.2479 26.0665 37.9492 26.0665H33.5892V30.7047Z" fill="black"/>
<path fill-rule="evenodd" clip-rule="evenodd" d="M15.0363 33.2093H11.8824L7.24414 16.79H10.1198L13.5521 29.5915L17.2627 16.79H19.7673L23.4779 29.5915L26.9102 16.79H29.7859L25.1477 33.2093H21.9937L18.5614 21.2427L15.0363 33.2093ZM40.5466 24.675C41.938 25.4171 42.8657 26.8086 42.8657 28.4784C42.8657 29.8698 42.4018 30.983 41.4742 31.8179C40.5466 32.7455 39.3406 33.2093 37.9492 33.2093H30.8991V16.79H37.3926C38.784 16.79 39.8972 17.2539 40.8248 18.0887C41.7525 18.9236 42.2163 20.0368 42.2163 21.3355C42.2163 22.8197 41.6597 23.9329 40.5466 24.675ZM37.3926 19.2947H33.5892V23.5618H37.3926C38.5985 23.5618 39.5261 22.6342 39.5261 21.4283C39.5261 20.2223 38.5985 19.2947 37.3926 19.2947ZM33.5892 30.7047H37.9492C39.1551 30.7047 40.1755 29.6843 40.1755 28.3856C40.1755 27.0869 39.2479 26.0665 37.9492 26.0665H33.5892V30.7047Z" fill="white"/>
</g>
<defs>
<linearGradient id="paint0_linear_531_39093" x1="5.17466" y1="44.5261" x2="44.6534" y2="5.77857" gradientUnits="userSpaceOnUse">
<stop stop-color="#A82283"/>
<stop offset="1" stop-color="#53237D"/>
</linearGradient>
<clipPath id="clip0_531_39093">
<rect width="49.9072" height="50" fill="white" transform="translate(0.101562)"/>
</clipPath>
</defs>
</svg>
