<svg width="51" height="50" viewBox="0 0 51 50" fill="none" xmlns="http://www.w3.org/2000/svg">
<path fill-rule="evenodd" clip-rule="evenodd" d="M25.1019 50C38.8887 50 50.1938 38.8787 50.1938 24.9081C50.01 11.1213 38.8887 0 25.1019 0C11.3152 0 0.0100229 11.1213 0.0100229 25.0919C-0.173801 38.8787 11.1313 50 25.1019 50Z" fill="#FDD32B"/>
<path fill-rule="evenodd" clip-rule="evenodd" d="M12.694 13.7871L0.469727 29.7798C1.11311 33.0886 2.49179 36.2136 4.23811 39.1548L12.8778 27.5739L11.1315 39.3386L20.2308 42.4636L31.3521 24.7246C30.8925 28.0334 29.9734 35.8459 37.3263 38.0518C40.9109 39.1548 44.4035 37.868 47.8043 35.2025C49.183 32.0775 50.0102 28.7687 50.0102 25.0003C50.0102 23.254 49.8263 21.6915 49.5506 20.129C45.966 25.4599 42.4734 29.2283 40.6352 28.7687C37.5102 27.8496 40.4513 17.6474 42.1977 11.2136L31.9955 7.53711L19.7712 27.2981L21.5175 16.3606L12.694 13.7871Z" fill="black"/>
</svg>
