<svg width="80" height="38" viewBox="0 0 80 38" fill="none" xmlns="http://www.w3.org/2000/svg">
<path fill-rule="evenodd" clip-rule="evenodd" d="M39.4408 32.8889C37.9652 32.801 36.2648 32.5176 34.926 32.156C34.6915 32.0681 33.6361 31.6967 33.3624 31.599C28.7109 29.4393 25.4958 24.7389 25.4958 19.2664C25.4958 11.7614 31.5741 5.69279 39.0694 5.69279C46.5648 5.69279 52.5551 11.6734 52.6431 19.0905H57.5683C57.4901 9.00558 49.2521 0.816439 39.1183 0.816439C28.9845 0.816439 20.6194 9.1033 20.6194 19.3153C20.6194 26.3611 24.5772 32.4297 30.3721 35.5665C31.4275 36.1236 32.9032 36.6708 33.4113 36.8565C35.0726 37.3646 37.0954 37.6871 38.8838 37.8239C39.4799 37.8728 41.6493 37.9119 42.2454 37.9119H79.7122V32.9378H42.2943C41.835 32.9378 39.8512 32.9378 39.4408 32.8889ZM42.2943 25.2471C41.9229 25.2471 40.0858 25.2471 39.7144 25.1982C39.1183 25.1493 38.2877 25.0614 37.7306 24.9246C37.1345 24.7389 36.5384 24.5532 36.255 24.4164C34.4178 23.449 33.167 21.5141 33.167 19.2567C33.167 16.0318 35.786 13.4129 39.0108 13.4129C42.2356 13.4129 44.7667 15.9439 44.8546 19.071H49.5453C49.4573 13.3151 44.7569 8.71241 39.001 8.71241C33.2452 8.71241 28.5056 13.4031 28.5056 19.2567C28.5056 23.3512 30.851 26.9474 34.3006 28.6478C34.8087 28.9703 35.8153 29.2928 36.0987 29.3416C37.0661 29.6152 38.3561 29.7521 39.4115 29.8498C39.8219 29.8986 41.7079 29.8986 42.1282 29.8986H79.6829V25.2471H42.265H42.2943ZM17.5803 37.8142H12.6551V5.69279H5.43337V0.767578H17.5803V37.8142ZM0 8.17494V12.9145H5.43337V37.8142H10.1729V8.17494H0Z" fill="#D10A11"/>
<path fill-rule="evenodd" clip-rule="evenodd" d="M67.2915 1.08984C65.4934 1.08984 64.0276 2.51659 64.0276 4.26582C64.0276 6.01506 65.5032 7.52975 67.2915 7.52975C69.0798 7.52975 70.5554 6.05414 70.5554 4.26582C70.5554 2.4775 69.1287 1.08984 67.2915 1.08984ZM67.2915 7.03137C65.8159 7.03137 64.5748 5.87824 64.5748 4.31469C64.5748 2.75113 65.8159 1.64686 67.2915 1.64686C68.7671 1.64686 70.0082 2.83908 70.0082 4.31469C70.0082 5.87824 68.7671 7.03137 67.2915 7.03137Z" fill="#D10A11"/>
<path fill-rule="evenodd" clip-rule="evenodd" d="M68.5329 5.1843C68.5329 4.81295 68.484 4.49047 68.0736 4.35366C68.5817 4.16799 68.6306 3.8455 68.6306 3.62074C68.6306 2.7901 67.8977 2.70215 67.5752 2.70215H66.1484V5.92699H66.7445V4.58819H67.2038C67.8977 4.58819 67.9368 4.91068 67.9368 5.1843C67.9368 5.74132 67.9368 5.82927 68.0736 5.91722H68.6697C68.5329 5.78041 68.5817 5.68268 68.5329 5.1843ZM67.4286 4.1289H66.7348V3.11258H67.3309C67.7413 3.11258 68.0247 3.24939 68.0247 3.62074C68.0247 3.85527 67.9368 4.1289 67.4286 4.1289Z" fill="#D10A11"/>
</svg>
