<svg width="226" height="27" viewBox="0 0 226 27" fill="none" xmlns="http://www.w3.org/2000/svg">
<path d="M3.00352 0.390102C2.1313 0.79112 1.34932 1.62323 1.01847 2.49545C0.848042 2.9466 0.757812 7.15729 0.757812 14.8669V26.5465H6.20164V19.2179H13.44L15.3348 22.8873L17.1996 26.5566H20.3476C22.0519 26.5566 23.4655 26.4864 23.4655 26.4162C23.4655 26.326 22.493 24.381 21.29 22.1153L19.1345 17.9547L19.7059 17.6038C22.894 15.4985 24.3177 11.358 23.4655 6.62594C22.9241 3.73861 21.5306 1.70344 19.3751 0.761044C18.1721 0.219669 17.9515 0.189592 10.9337 0.14949C5.24922 0.079312 3.57497 0.129439 3.00352 0.390102ZM16.7184 5.73368C17.0993 5.87403 17.4703 6.30513 17.6908 6.8465C18.142 7.9092 18.1921 10.6261 17.7811 11.4382C16.7685 13.4032 15.5153 13.7841 10.1617 13.7841H6.19162V5.50309H11.1342C13.8511 5.50309 16.3574 5.59332 16.7184 5.7437V5.73368ZM31.5059 0.269796C29.16 0.981604 27.4857 2.65586 26.7739 4.95169C26.2025 6.79638 25.5909 11.1474 25.5909 13.2528C25.5909 15.3581 26.1624 19.4285 26.6536 21.1027C27.5258 24.0101 29.0196 25.5039 31.7666 26.2157C32.9496 26.5265 34.2028 26.5666 38.223 26.4964C42.8347 26.4262 43.3059 26.3561 44.4689 25.8548C47.8073 24.361 49.251 20.5814 49.251 13.2929C49.231 5.63342 47.7372 1.84379 44.2182 0.550509C42.965 0.099363 42.4237 0.0492356 37.4811 0.079312C34.5236 0.079312 31.8568 0.169541 31.526 0.269796H31.5059ZM42.5039 6.04447C44.0879 8.21999 44.0678 18.9372 42.4537 20.5212C41.9825 21.0225 32.8794 21.0426 32.4784 20.5714C31.3656 19.228 30.9646 11.4382 31.8167 7.79892C32.1676 6.35525 32.3581 5.90411 32.7591 5.7437C33.0398 5.6234 35.2855 5.55322 37.7217 5.57327C41.7219 5.6234 42.2131 5.6635 42.5039 6.04447ZM54.3439 0.580585C53.8226 0.891375 53.181 1.50293 52.9203 1.95407C52.4491 2.75611 52.4191 3.18721 52.3489 12.6412C52.2987 19.238 52.3689 22.807 52.5394 23.4687C52.9404 24.9324 53.983 25.9951 55.3966 26.2859C56.8603 26.6167 67.2969 26.6167 69.1616 26.3059C72.8008 25.7144 74.6756 23.589 74.9363 19.6791C75.1067 17.4835 74.7458 15.8494 73.8234 14.3857L73.1417 13.323L74.0139 11.6186C74.8661 9.98447 74.8861 9.82407 74.8861 7.52823C74.8861 5.56324 74.7658 4.93164 74.3448 3.95917C73.663 2.46537 72.8309 1.59316 71.3371 0.811171L70.1541 0.169541L62.7052 0.0993629C55.3264 0.0492356 55.2563 0.0492356 54.3339 0.57056L54.3439 0.580585ZM68.9811 5.7838C69.312 6.11464 69.5225 7.69867 69.312 8.43053C69.1917 8.8516 68.8107 9.4431 68.4799 9.77394C67.8884 10.3454 67.7981 10.3454 62.9257 10.4156L57.9832 10.4857V5.47301L63.3969 5.54319C66.3745 5.59332 68.8809 5.68355 68.9811 5.7838ZM67.9385 16.3306C68.8809 16.7116 69.4022 17.7241 69.3821 19.0776C69.3621 19.9297 69.2418 20.3508 68.9611 20.5714C68.6503 20.812 67.1665 20.8822 63.2566 20.8822H57.9832V15.8694L62.6651 15.9597C65.2216 16.0298 67.6076 16.2003 67.9385 16.3406V16.3306ZM82.8664 0.560534C80.5706 1.46283 79.4176 3.0669 78.5154 6.61592C78.0642 8.41048 77.994 9.3629 77.994 13.3129C77.994 17.6139 78.0442 18.0951 78.6357 20.2907C79.3675 22.9675 80.0593 24.1204 81.4227 25.143C83.1271 26.346 83.6484 26.4463 89.6737 26.4463C95.699 26.4463 96.2203 26.3561 97.9247 25.143C99.2981 24.1304 99.9799 22.9675 100.712 20.2907C101.303 18.0951 101.353 17.6139 101.353 13.3129C101.353 9.3629 101.283 8.4205 100.832 6.61592C99.9297 3.01677 98.7768 1.43275 96.4108 0.560534C95.2078 0.109388 94.6163 0.0592611 89.6035 0.0893375C84.661 0.0893375 83.9993 0.139465 82.8664 0.560534ZM94.2654 5.7437C94.907 5.98431 95.1877 6.71617 95.6388 9.38295C96.2103 12.6713 95.709 18.867 94.7666 20.3107C94.4157 20.8822 94.3857 20.8822 89.6837 20.8822C84.1497 20.8822 84.4805 21.0526 83.8689 17.9046C82.9967 13.5535 83.6985 6.2951 85.0319 5.75373C85.7437 5.47301 93.5235 5.47301 94.2754 5.75373L94.2654 5.7437Z" fill="#276EB7"/>
<path d="M105.785 0.790973L105.053 1.52283V24.9323L105.734 25.614C106.346 26.2055 106.607 26.2958 107.82 26.2958C109.033 26.2958 109.314 26.2055 109.735 25.7544C110.567 24.8822 110.727 23.8596 110.727 19.7491V15.8893H114.206L115.96 17.4032C119.459 20.4108 120.662 22.0149 120.662 23.619C120.662 24.5213 120.783 24.802 121.464 25.4837C122.146 26.1654 122.407 26.2857 123.48 26.2857C124.472 26.2857 124.803 26.1654 125.445 25.604C126.196 24.9423 126.227 24.8521 126.196 23.1177C126.176 21.6239 126.056 21.0825 125.445 19.8293C124.612 18.1751 122.206 15.2176 120.692 14.0146L119.7 13.2326L121.234 11.839C123.079 10.1347 124.783 7.93913 125.585 6.21475C126.036 5.22223 126.176 4.51042 126.196 3.18706C126.217 1.48273 126.196 1.3925 125.445 0.73082C124.763 0.119266 124.502 0.049088 123.179 0.049088C121.855 0.049088 121.595 0.119266 121.164 0.660642C120.833 1.08171 120.662 1.63311 120.662 2.33489C120.662 2.90635 120.522 3.70838 120.332 4.12945C119.931 5.12198 118.136 7.08697 115.96 8.9517L114.206 10.4455H110.727V6.58569C110.727 4.48035 110.607 2.35495 110.487 1.88375C110.136 0.610514 109.283 0.0390625 107.74 0.0390625C106.677 0.0390625 106.396 0.129292 105.775 0.770922L105.785 0.790973ZM135.891 0.389954C132.703 1.40253 130.949 3.67831 129.715 8.31007C129.144 10.3954 129.104 11.0972 129.004 17.1124C128.863 24.2105 128.953 24.9925 130.046 25.8346C130.828 26.4461 132.833 26.4762 133.565 25.8847C134.417 25.203 134.608 24.5413 134.608 22.075V19.689H146.909V22.3157C146.909 24.8922 146.909 24.9423 147.591 25.6241C148.202 26.2156 148.463 26.3058 149.626 26.3058C150.789 26.3058 151.05 26.2356 151.681 25.5539L152.363 24.802L152.293 17.2327C152.203 10.235 152.152 9.50311 151.681 7.91908C150.548 4.17958 148.894 1.84365 146.668 0.800998C145.435 0.229546 145.104 0.189445 141.114 0.139317C138.087 0.0891898 136.573 0.159368 135.891 0.399979V0.389954ZM144.052 5.75358C145.355 6.20473 146.468 9.06199 146.769 12.6311L146.889 14.2351H134.548L134.718 12.3403C134.999 9.00183 136.302 5.88391 137.505 5.6433C138.668 5.43277 143.35 5.50294 144.052 5.73353V5.75358ZM159.802 0.389954C157.486 1.12181 156.183 2.25469 155.381 4.31994C154.98 5.36259 154.859 6.1145 154.859 7.98926C154.859 11.7689 155.992 13.9243 158.669 15.2276C159.732 15.749 160.163 15.7991 164.815 15.9094C169.637 16.0297 169.847 16.0497 170.369 16.5711C171.05 17.2528 171.121 19.2679 170.489 20.2404L170.088 20.882H163.722C157.717 20.882 157.336 20.9021 156.764 21.3532C155.441 22.3959 155.391 24.6616 156.644 25.7243L157.356 26.3158H164.233C168.063 26.3158 171.522 26.1955 171.993 26.0752C173.296 25.7243 174.69 24.3508 175.562 22.5763C176.294 21.0825 176.344 20.872 176.344 18.3857C176.344 16.0698 176.274 15.6387 175.732 14.4858C174.95 12.8316 173.888 11.5984 172.725 11.037C171.973 10.656 171.09 10.5658 166.459 10.4656C160.193 10.3252 160.383 10.4154 160.383 7.97923C160.383 5.54305 160.032 5.63327 167.572 5.49292L174.098 5.37261L174.74 4.73098C175.311 4.15953 175.381 3.87882 175.472 2.08426L175.592 0.049088L168.163 0.0691389C162.87 0.0691389 160.474 0.159368 159.792 0.379928L159.802 0.389954ZM183.211 0.389954C182.69 0.560387 181.958 0.861151 181.557 1.05163C178.509 2.65571 177.226 8.04941 178.981 11.8791C179.712 13.4832 180.514 14.3354 182.028 15.1474C183.161 15.759 183.352 15.7891 187.943 15.8593C190.54 15.8793 192.956 16.0497 193.307 16.17C194.139 16.5009 194.54 17.7039 194.32 19.1276C194.059 20.9221 194.249 20.882 187.081 20.882H180.675L179.993 21.5637C179.402 22.1753 179.311 22.436 179.311 23.5989C179.311 24.7619 179.402 25.0225 179.993 25.6341L180.675 26.3158H187.813C195.763 26.3158 195.944 26.2958 197.608 24.7117C199.052 23.3182 199.713 21.664 199.834 18.9371C199.974 15.7891 199.382 13.9444 197.638 12.22C196.856 11.438 196.074 10.8966 195.482 10.7262C194.961 10.5859 192.595 10.4656 190.159 10.4656C187.723 10.4656 185.427 10.3954 185.026 10.3252C184.174 10.1548 183.793 9.4229 183.793 7.97923C183.793 6.53557 184.174 5.80371 185.026 5.63327C185.427 5.5631 188.294 5.49292 191.412 5.49292C198.771 5.49292 198.931 5.40269 198.931 1.8236V0.0591134L191.552 0.0791644C186.279 0.0791644 183.863 0.169394 183.201 0.389954H183.211ZM209.127 0.53031C208.445 0.770922 207.493 1.26217 207.042 1.62309C205.147 3.06675 203.443 6.84636 202.971 10.7062C202.621 13.403 202.641 23.8997 202.971 24.8722C203.302 25.7945 204.245 26.3158 205.648 26.3158C206.5 26.3158 206.881 26.1755 207.493 25.6341L208.275 24.9524L208.345 22.3257L208.435 19.699H220.406L220.496 22.3257L220.566 24.9524L221.348 25.6341C221.96 26.2055 222.321 26.3158 223.283 26.3158C224.246 26.3158 224.606 26.1955 225.218 25.6341L226 24.9524L225.98 17.5235C225.96 10.7362 225.93 9.9743 225.459 8.28C224.396 4.38009 222.812 2.01408 220.516 0.881202C219.173 0.219521 219.052 0.19947 214.771 0.149343C210.912 0.0791644 210.25 0.129292 209.117 0.550361L209.127 0.53031ZM218.591 6.44534C219.534 7.55816 220.245 9.92418 220.386 12.2902L220.526 14.2552H208.395V12.8115C208.395 9.80387 209.719 6.30498 211.042 5.74355C211.353 5.62325 213.007 5.55307 214.751 5.57312L217.899 5.62325L218.581 6.45536L218.591 6.44534Z" fill="#D51E2F"/>
</svg>
