<svg width="58" height="50" viewBox="0 0 58 50" fill="none" xmlns="http://www.w3.org/2000/svg">
<path fill-rule="evenodd" clip-rule="evenodd" d="M13.9262 38.9059L13.3248 39.9792C13.1212 39.3038 12.7234 38.5728 12.455 38.1009C11.9832 39.1095 11.1782 39.1095 10.438 39.1742C10.5768 36.7593 7.55127 34.2704 8.89287 31.5225C9.16119 30.9858 8.95764 30.3104 8.421 29.9773C6.33921 28.9041 7.34772 33.2712 5.26593 33.4007C5.67303 32.9288 5.80257 31.8556 5.86733 31.7908C5.46023 31.9296 4.38695 32.5958 3.92433 31.726C5.13639 31.0506 5.46948 30.1161 5.67303 29.1076C5.94135 27.8308 6.00612 27.2941 6.27444 26.7575C6.54276 26.2209 6.94986 25.749 7.81959 24.6109C7.61604 24.6109 5.33069 25.1476 4.79405 24.8793C8.75408 22.3904 7.88436 19.3093 13.9909 16.5521C12.381 15.34 10.7711 14.4055 11.9092 12.185C13.5838 14.202 16.7482 13.5266 18.4876 12.5921C16.8129 12.259 14.5924 10.7786 14.1205 9.1039C14.7959 9.03914 15.6009 9.70531 16.0635 10.0477C16.267 9.44624 16.3966 8.70605 17.1368 8.56727C16.1283 10.7138 18.0805 11.7871 19.9587 11.7871C20.2271 11.7871 21.4391 11.6483 21.4391 11.6483C21.2356 11.2412 20.4954 10.1679 21.032 9.70531C21.5039 10.1124 22.0405 10.4455 22.5124 10.8434C26.1394 13.6653 20.7637 16.2838 18.6171 17.4218C15.1938 19.3001 16.1283 21.5206 17.5439 22.0573C17.5439 22.3256 17.4051 22.3904 17.1368 22.5291C16.1283 22.8622 15.1938 22.122 14.3795 21.6594C14.4443 23.0658 14.3148 24.3426 15.8599 25.1476L14.7867 25.5547C15.7304 26.2301 15.9987 26.628 17.072 26.7667C16.4706 26.9055 15.7952 26.9055 15.2585 26.9055C15.3973 27.3126 15.5268 27.7753 15.7952 28.1824C13.5746 28.4507 12.6401 27.1739 11.9647 27.2386C10.4843 27.3774 10.5583 30.1254 14.1852 30.1254L13.7781 30.7268C13.7781 30.7268 14.4536 31.1339 15.1197 31.1986C14.8514 31.4022 14.6479 31.6705 14.4443 31.8741L15.0457 32.3459C13.5653 32.6143 13.1675 31.0043 12.159 31.8093C10.6786 32.9474 13.9077 35.4362 16.998 35.0291C16.7297 35.3622 15.9895 35.8341 15.7211 36.1024C18.2748 38.5173 16.998 40.7379 18.0713 42.3478C15.9247 42.283 14.3148 40.6731 13.9077 38.9244L13.9262 38.9059ZM16.7482 36.2875C17.4236 35.7508 18.025 35.4825 18.025 34.1409C16.9517 34.6776 14.0002 34.6776 12.7234 32.9288C12.3903 32.457 12.7234 32.1887 13.0565 32.5958C13.9262 33.5395 15.4713 33.1324 16.082 32.8641C16.0172 32.531 15.7489 32.1239 15.5453 31.9203C15.7489 31.7168 16.3503 31.3837 16.4891 30.8471C16.156 30.6435 14.8792 30.514 14.8792 30.514C15.0827 30.3104 15.351 30.0421 15.2123 29.3019C13.9354 29.709 12.3255 29.1631 11.9924 28.7005C11.6593 28.2379 11.9924 27.7568 12.3255 28.0991C13.0009 28.7745 16.156 29.5795 17.3588 28.3674C16.8869 28.2286 16.4151 27.8308 16.3503 27.6272C17.4236 27.4884 18.2933 26.887 18.3673 26.0821C17.7659 26.0821 16.6186 26.0173 16.2208 25.749C16.7574 25.5454 17.0905 25.3419 17.2293 24.8052C15.2123 24.6665 15.0827 23.1953 15.0827 22.927C16.3596 23.6672 18.7097 23.3341 18.1083 21.5206C17.035 21.4559 15.9617 19.7072 18.9132 18.0972C21.5964 16.6169 24.6867 15.0717 24.4184 12.4533C24.2149 10.7786 21.4669 9.63129 21.1245 8.82633C19.9865 9.36297 19.783 10.0384 20.2548 11.0469C20.2548 11.0469 17.7012 11.3152 17.4976 9.70531C17.4328 9.02989 17.9047 8.36371 18.3673 7.82707C18.099 7.82707 16.1468 7.29043 15.5453 8.90035C14.4721 8.16016 13.5283 8.16016 12.7881 8.96512C13.9262 9.64054 14.6664 11.9907 16.5446 12.7216C15.203 13.4618 12.9824 13.1287 11.7056 10.9081C10.4935 12.7216 9.7626 14.5351 12.381 16.4781C7.61604 18.6246 7.6808 22.7882 3.51722 24.7405C3.92433 25.8785 4.79405 25.8785 5.9321 25.6842C4.11863 28.0343 5.66378 30.4492 2.8418 31.3929C3.11012 32.3367 3.64676 33.0676 4.65527 32.7993C4.38695 33.2712 4.1834 33.2712 3.71152 33.7431C5.25667 34.6868 7.07015 34.0114 7.468 30.9211C7.53277 30.3844 8.33773 30.7175 8.06941 31.2542C6.3207 34.8811 10.7526 37.6383 9.20745 40.3215C10.6138 40.2568 11.6223 40.1827 12.233 39.7201C12.5013 40.2568 12.7049 40.8582 12.6401 41.3948C13.3803 41.256 13.7134 40.7934 13.7134 40.2568C14.1852 41.7371 15.9987 43.2823 18.8855 43.2823C17.4791 40.9322 18.8855 38.7856 16.7389 36.2967L16.7482 36.2875Z" fill="#DCDFE0"/>
<path fill-rule="evenodd" clip-rule="evenodd" d="M9.96585 30.2364C10.5025 30.7731 11.1039 30.8378 12.316 30.7731C10.9744 30.6343 10.2342 30.3012 9.76229 29.4315C9.69753 28.9596 9.62351 28.4877 9.62351 27.9511C9.55874 26.5447 10.0306 24.9256 11.0299 23.0473C11.0299 24.1854 11.8996 25.9988 13.9166 26.2672C12.1032 25.4622 11.0299 23.7135 11.6313 21.9648C12.0384 21.3634 12.4362 20.7527 12.9081 20.0865C13.1764 19.7535 13.38 19.4851 13.5835 19.2168C13.3152 20.0865 14.3885 21.0303 15.1287 21.1598C14.7216 20.7527 13.9166 19.5499 15.8041 17.5329C15.2675 17.8012 14.6661 18.1343 14.259 18.4766C17.7471 14.7201 20.5691 14.5814 21.9107 12.7031C20.0325 13.98 14.9899 14.7201 12.7138 14.1095C13.9906 14.9144 16.9422 14.8497 17.6824 14.7109C15.1935 17.1258 9.89183 19.5499 8.94808 21.7612C10.2249 20.3549 11.0946 20.0865 12.2419 19.6794C11.3722 21.021 10.5673 22.1683 10.0214 23.5099C8.61499 26.6002 6.66274 26.665 6.5332 29.2187C7.20863 27.2016 8.47621 26.7298 9.41995 25.4622C9.28117 26.2672 9.15163 27.2109 9.2164 28.2842C9.2164 29.4222 9.48472 30.4307 9.81781 31.3745C9.75304 32.6513 9.81781 34.7979 11.2982 36.2135C10.2897 34.9367 10.0861 32.9196 10.1601 32.1887C11.2982 34.4093 14.5273 37.4256 16.0724 39.4426C14.592 36.8241 10.7708 33.7338 9.96585 30.2457V30.2364Z" fill="#DCDFE0"/>
<path fill-rule="evenodd" clip-rule="evenodd" d="M45.7635 19.699C46.9015 20.1061 47.7065 20.3004 49.0573 21.7808C48.1136 19.5602 42.7472 17.1453 40.3231 14.7304C41.0633 14.8692 44.0796 14.934 45.2916 14.129C43.0063 14.7304 37.973 14.0643 36.0947 12.7227C37.4363 14.6009 40.2583 14.7397 43.7465 18.4962C43.2746 18.1631 42.738 17.756 42.2013 17.5524C44.0796 19.6342 43.2746 20.8463 42.8767 21.1794C43.6169 21.0406 44.6254 20.1061 44.4219 19.2364C44.6254 19.5047 44.8938 19.773 45.0973 20.1061C45.5692 20.7075 45.967 21.3829 46.3741 21.9843C46.9756 23.733 45.9023 25.4725 44.0888 26.2867C46.1058 26.0184 46.9756 24.2049 46.9756 23.0668C47.9193 24.8803 48.3819 26.555 48.3819 27.9706C48.3819 28.5073 48.3172 28.9791 48.2431 29.451C47.7713 30.3207 47.0311 30.6631 45.6895 30.7926C46.9015 30.8574 47.5029 30.7926 48.0396 30.256C47.2346 33.7441 43.4041 36.8344 41.7942 39.4529C43.3394 37.4358 46.5592 34.4195 47.7065 32.199C47.7713 33.0039 47.5677 35.021 46.6332 36.2238C48.1136 34.8174 48.1784 32.6616 48.1136 31.3848C48.4467 30.441 48.715 29.4418 48.715 28.2945C48.7798 27.2212 48.6502 26.2774 48.5115 25.4725C49.4552 26.7493 50.732 27.2859 51.3982 29.2289C51.2594 26.6753 49.3812 26.6105 47.91 23.5202C47.4382 22.2434 46.6332 21.0313 45.7635 19.6897V19.699Z" fill="#DCDFE0"/>
<path fill-rule="evenodd" clip-rule="evenodd" d="M52.2132 31.7169C52.278 31.7817 52.4168 32.855 52.8146 33.3268C50.7328 33.1881 51.7413 28.8949 49.6596 29.9034C49.0582 30.1718 48.9194 30.8472 49.1877 31.4486C50.5293 34.2058 47.439 36.6855 47.6425 39.1003C46.9023 39.1003 46.0974 39.1003 45.6255 38.0271C45.3572 38.5637 44.9501 39.2391 44.7558 39.9053L44.1544 38.832C43.7473 40.5807 42.1374 42.1906 39.9908 42.3202C40.9993 40.7103 39.7872 38.4249 42.3409 36.0748C42.0078 35.8065 41.2676 35.3346 41.0641 35.0015C44.1544 35.3346 47.3742 32.9197 45.9031 31.7817C44.9593 31.0415 44.4967 32.5866 43.0163 32.3183L43.6177 31.8465L42.9423 31.171C43.5437 31.1063 44.2839 30.6992 44.2839 30.6992L43.8768 30.0977C47.5037 30.0977 47.5685 27.3405 46.0974 27.211C45.422 27.1462 44.4875 28.4231 42.2669 28.1547C42.5352 27.8217 42.674 27.285 42.8035 26.8779C42.2669 26.8131 41.5915 26.8131 41.1288 26.6096C42.2021 26.4708 42.4704 26.073 43.4142 25.3975L42.3409 24.9904C43.8861 24.2502 43.7473 22.9086 43.8213 21.5023C43.0163 21.9741 42.0726 22.7143 41.0641 22.372C40.7958 22.3072 40.657 22.1684 40.657 21.9001C42.0633 21.3635 43.0071 19.1429 39.5837 17.2647C37.3631 16.0526 32.0615 13.5082 35.6884 10.6862C36.1603 10.2791 36.6969 9.94601 37.1688 9.54816C37.7054 10.02 36.9653 11.0933 36.7617 11.4912C36.7617 11.4912 37.9738 11.63 38.2421 11.63C40.1203 11.63 42.0726 10.4919 41.0641 8.41011C41.8043 8.5489 41.869 9.27984 42.1374 9.8905C42.6092 9.55741 43.4142 8.88199 44.0804 8.94675C43.5437 10.6214 41.3972 12.1018 39.7132 12.4349C41.3879 13.3787 44.617 14.0448 46.2917 12.0278C47.4297 14.3131 45.8198 15.2476 44.2099 16.3949C50.3165 19.1522 49.382 22.3072 53.4068 24.7221C52.8701 24.9904 50.5848 24.4538 50.3812 24.4538C51.251 25.5918 51.6581 26.0637 51.9264 26.6003C52.1947 27.137 52.2595 27.6736 52.5278 28.9505C52.7314 29.959 53.0644 30.8935 54.2765 31.5689C53.6751 32.5126 52.6018 31.8372 52.1947 31.7077L52.2132 31.7169ZM51.9449 25.5363C53.0829 25.7399 53.9619 25.7399 54.3598 24.5926C50.261 22.6496 50.261 18.486 45.496 16.3302C48.1144 14.3872 47.3742 12.5737 46.1714 10.7602C44.8946 13.0456 42.6832 13.3139 41.3324 12.5737C43.2106 11.8983 43.9508 9.54816 45.0889 8.81722C44.4134 8.07703 43.5437 8.01226 42.4704 8.75245C41.869 7.2073 39.9815 7.67917 39.6485 7.67917C40.1203 8.15105 40.657 8.81722 40.5182 9.55741C40.3146 11.1026 37.761 10.899 37.761 10.899C38.2976 9.82573 38.0293 9.22433 36.8912 8.67843C36.5582 9.54816 33.8009 10.6214 33.5974 12.3054C33.3291 14.9238 36.4194 16.469 39.1026 17.9493C42.0541 19.5593 40.9808 21.308 39.9075 21.3727C39.3061 23.251 41.5822 23.5933 42.9331 22.7791C42.9331 23.0474 42.7295 24.5278 40.7865 24.6573C40.9901 25.2587 41.2584 25.4623 41.795 25.6011C41.3879 25.8694 40.2499 25.9342 39.6485 25.9342C39.7132 26.7391 40.5922 27.4146 41.6655 27.4793C41.6007 27.7476 41.0641 28.0807 40.657 28.2195C41.869 29.4316 45.0241 28.6266 45.6903 27.9512C45.9586 27.6181 46.3657 28.09 46.0234 28.5526C45.681 29.0152 44.0804 29.5611 42.8035 29.154C42.6647 29.8942 42.9423 30.1625 43.1366 30.3661C43.1366 30.3661 41.8598 30.5049 41.5267 30.6992C41.6655 31.2358 42.2669 31.5689 42.4704 31.7724C42.2669 31.976 41.9986 32.3738 41.9338 32.7162C42.5352 32.9845 44.0804 33.4564 44.9593 32.4479C45.2924 32.0408 45.6995 32.3091 45.3664 32.7809C44.0896 34.5297 41.1381 34.5297 40.0648 33.993C40.0648 35.3346 40.6014 35.6029 41.3416 36.1396C39.1951 38.6285 40.6015 40.8398 39.0563 42.9863C41.9431 42.9863 43.7565 41.4412 44.2284 39.9608C44.2932 40.4975 44.5615 40.9046 45.3017 41.0989C45.2369 40.5622 45.4405 40.0256 45.7088 39.4242C46.3102 39.896 47.3187 40.0256 48.7343 40.0256C47.1892 37.3424 51.6211 34.5852 49.8724 30.9582C49.604 30.4216 50.409 30.0885 50.4738 30.6251C50.8809 33.7154 52.6943 34.4556 54.2302 33.4471C53.7584 32.9105 53.5548 32.9752 53.2865 32.5034C54.295 32.7717 54.8317 32.0315 55.1 31.097C52.2132 30.2273 53.7584 27.8032 51.9449 25.5271V25.5363Z" fill="#DCDFE0"/>
<path fill-rule="evenodd" clip-rule="evenodd" d="M23.1973 36.8892L24.067 36.2138C24.2058 36.075 24.3353 36.0102 24.4741 36.075L25.6862 36.2138C25.7509 36.4821 25.9545 36.7504 25.9545 36.7504L24.6776 36.4821C24.5419 36.4821 24.4062 36.5283 24.2705 36.6209L23.6691 37.0927C23.5303 37.1575 23.5303 37.3611 23.6044 37.4998L23.6691 37.7034L23.262 38.0365L23.1232 37.7034C22.9197 37.3703 22.9197 37.102 23.188 36.8984L23.1973 36.8892ZM25.1403 34.6038C25.2791 34.4651 26.2135 34.8722 26.2135 34.0672C26.3523 34.6038 25.6121 35.8159 26.0748 36.4821L26.6114 37.3518H24.7979C24.5944 37.3518 24.5296 37.4906 24.4648 37.5554L23.993 38.5639C23.8542 38.8322 23.8542 39.1005 24.0577 39.2393L24.3908 39.5724C24.3908 39.5724 24.6591 39.3688 24.7239 39.0357L24.5851 38.897C24.4463 38.7582 24.4463 38.6934 24.5204 38.5639L24.7887 37.9625C24.9275 37.7589 24.9922 37.6941 25.2605 37.7589L26.7409 38.092C26.8797 38.092 27.0093 38.1568 27.148 38.0272C27.3516 37.6942 27.6199 37.6941 27.953 37.7589C28.758 37.8977 30.5714 38.092 31.2469 37.287C31.987 38.2956 33.5322 38.2956 33.3934 38.8322L33.0603 40.6457H33.5322L33.8005 38.8322C33.8005 38.6286 33.9393 38.3603 33.7358 38.1568C33.671 38.092 33.597 38.018 33.4027 37.6849C33.1343 37.213 33.1343 36.4728 32.866 35.8714C33.1343 35.6031 33.4027 35.4643 33.6062 35.5383C34.1429 35.6771 34.2816 36.5468 35.0126 37.3518C34.9478 37.0187 34.8738 36.6764 34.7443 36.3433C34.7443 36.3433 35.2809 36.7504 35.4197 37.213C35.4845 37.4813 35.6232 37.7497 35.8916 37.8884C36.0951 37.9532 36.2987 37.8884 36.493 37.6201C36.493 37.6201 36.0211 36.9447 35.6232 36.4821C35.1514 35.8807 34.4852 35.2053 33.5414 35.27C33.2731 35.27 33.0048 35.4088 32.7365 35.6031C31.728 35.0017 30.923 35.6031 30.5899 35.6031L28.6469 35.4643C28.2398 35.4643 27.9715 34.9924 27.9715 34.9924C27.9067 33.3825 26.6299 32.7071 26.158 32.7071C26.158 32.7071 26.2228 32.4388 26.0933 32.3L25.6862 32.8366L24.5481 32.4295L25.4178 33.1697L24.4741 34.243C24.4093 34.3818 24.4093 34.5113 24.4093 34.5761L24.4741 34.7149C24.6129 34.8537 24.6776 34.8537 24.8072 34.7796L25.1403 34.5761V34.6038ZM32.5977 38.7674L31.8575 40.6457H31.3856L32.1258 38.8322C32.1906 38.5639 32.0611 38.4991 31.8575 38.2308C32.1258 38.3696 32.3294 38.4991 32.6625 38.6379C32.6625 38.6379 32.5977 38.7027 32.5977 38.7767V38.7674ZM23.1973 38.5639L24.067 37.8237L23.9282 37.5554C23.885 37.4197 23.9066 37.3302 23.993 37.287L24.4648 36.954C24.6036 36.8892 24.6684 36.8892 24.7979 36.8892L26.1395 37.2223H24.6591C24.3261 37.2223 24.252 37.3611 24.1225 37.6294L24.0577 37.8329L23.6506 38.5731C23.5118 38.8414 23.4471 39.1745 23.7894 39.5816L24.0577 39.9147L23.5211 40.988H23.993L24.3261 40.2478C24.3261 40.2478 24.9275 39.7112 25.0015 39.1745C24.8627 39.0357 24.7332 38.971 24.7979 38.7674L25.0015 38.4343C25.0662 38.2956 25.0662 38.2308 25.205 38.2956L26.6854 38.6286C26.889 38.6934 27.1573 38.7674 27.2868 38.4899C27.4904 38.1568 27.4904 38.2215 27.9622 38.2863L28.7024 38.3511C29.711 38.4158 30.7195 38.2123 31.1173 37.8792C31.2561 38.2123 31.5244 38.4158 31.654 38.6842C31.7187 38.7489 31.654 38.8877 31.5892 39.0913L30.7842 40.9695H32.0611L32.8013 39.156C32.866 38.9525 32.94 38.8229 33.0696 38.7489L32.5977 40.9695H33.8098L34.1429 38.8229C34.2076 38.3511 34.1429 38.2215 33.9393 38.018C33.4027 37.6109 33.4027 36.6764 33.2639 36.1397C33.3286 36.075 33.4674 36.075 33.597 36.075C33.8653 36.075 34.0688 36.8152 34.4019 37.213C35.0033 38.0828 35.8823 39.0913 36.8908 37.6849C36.8261 37.5461 36.6873 37.3518 36.5577 37.213L36.2894 36.8799C36.1506 36.6764 35.3457 35.8067 35.0126 35.5383C34.2724 34.7981 33.1991 34.9369 32.7272 35.27C31.7187 34.7334 30.6454 35.27 30.3771 35.27L28.6284 35.1312C28.5637 35.1312 28.4249 35.1312 28.3601 34.9924L28.6932 34.8537C28.4249 33.5768 27.6199 32.5683 26.2783 32.3648C26.2783 32.3648 26.2135 31.9577 26.01 31.8929L25.6769 32.3648C25.5381 32.3648 25.4734 32.4295 25.3438 32.4295L23.6691 31.8281L24.946 33.105C24.946 33.105 24.2705 34.0487 24.0762 34.243C23.9375 34.4466 23.9375 34.5761 24.0762 34.7149L24.3446 35.048C24.4833 35.1867 24.6129 35.1867 24.8164 35.1127L25.0848 34.9739C25.2235 34.8352 25.6214 35.0387 25.7602 34.9092C25.6954 35.2423 25.6954 35.5846 25.6214 35.9177L24.4833 35.7789C24.215 35.7789 24.1503 35.7789 23.9467 35.9177L23.003 36.5931C22.6699 36.8614 22.5959 37.2685 22.7994 37.6664L23.2065 38.5361L23.1973 38.5639Z" fill="#DCDFE0"/>
<path fill-rule="evenodd" clip-rule="evenodd" d="M26.8889 13.9155C27.3608 14.2486 28.1658 14.591 28.1658 14.591V14.0543L26.3523 13.3789C26.3523 13.3789 26.3523 13.5825 26.8889 13.9155Z" fill="#DCDFE0"/>
<path fill-rule="evenodd" clip-rule="evenodd" d="M28.1658 13.2495V12.7128L26.084 11.9727C26.084 11.9727 26.3523 12.241 26.8242 12.5741C27.3608 12.9071 28.1658 13.2495 28.1658 13.2495Z" fill="#DCDFE0"/>
<path fill-rule="evenodd" clip-rule="evenodd" d="M28.1659 12.0369V11.5003L25.9453 10.6953C25.9453 10.6953 26.4172 11.0284 26.8891 11.4355C27.3609 11.7038 28.1659 12.0369 28.1659 12.0369Z" fill="#DCDFE0"/>
<path fill-rule="evenodd" clip-rule="evenodd" d="M34.4756 19.4948H36.7609C36.6962 19.1617 36.2891 18.8193 35.6229 18.8193C35.0215 18.8193 34.6144 19.1524 34.4848 19.4948H34.4756Z" fill="#DCDFE0"/>
<path fill-rule="evenodd" clip-rule="evenodd" d="M32.0614 10.6958L29.8408 11.5007V12.0374C29.8408 12.0374 30.6458 11.7043 31.1177 11.3619C31.6543 11.0289 32.0614 10.6865 32.0614 10.6865V10.6958Z" fill="#DCDFE0"/>
<path fill-rule="evenodd" clip-rule="evenodd" d="M31.6631 13.3789L29.8496 14.0543V14.591C29.8496 14.591 30.6546 14.2579 31.1264 13.9155C31.6631 13.5825 31.6631 13.3789 31.6631 13.3789Z" fill="#DCDFE0"/>
<path fill-rule="evenodd" clip-rule="evenodd" d="M31.8578 11.9727L29.8408 12.7128V13.2495C29.8408 13.2495 30.6458 12.9164 31.1177 12.5741C31.6543 12.241 31.8578 11.9727 31.8578 11.9727Z" fill="#DCDFE0"/>
<path fill-rule="evenodd" clip-rule="evenodd" d="M22.3277 18.8193C21.6523 18.8193 21.3192 19.1524 21.1897 19.4948H23.475C23.3363 19.1617 23.0032 18.8193 22.337 18.8193H22.3277Z" fill="#DCDFE0"/>
<path fill-rule="evenodd" clip-rule="evenodd" d="M28.9706 10.4278L25.2789 8.94739C25.612 8.2072 27.0276 7.60579 28.9706 7.60579C30.9136 7.60579 32.3293 8.2072 32.6624 8.94739L28.9706 10.4278ZM31.7279 14.9244L32.5976 9.81712L29.239 10.9552V16.2568L31.7279 14.9152V14.9244ZM34.6794 17.145C33.7356 17.2838 32.9307 18.4219 32.2645 19.4951L32.1997 19.6339H31.5243V19.7727C31.4595 20.5777 30.7193 21.6509 29.0354 21.6509C28.2952 21.6509 27.6938 21.4474 27.2867 21.1143C26.9536 20.846 26.7501 20.5129 26.6113 20.1706C26.5465 20.0318 26.5465 19.9022 26.5465 19.8375V19.6987H25.8711L25.7323 19.4951C25.0569 18.4866 24.2519 17.3486 23.3174 17.145L25.8711 15.6646L28.9614 17.3393L32.0517 15.6646L34.6701 17.145H34.6794ZM38.038 21.0403H31.7926C31.4595 21.5122 30.9877 21.8452 30.451 22.0488H30.5158C30.7841 22.3819 31.3208 22.5207 31.7926 22.5207C31.5891 22.9925 31.6538 23.7327 31.9962 24.1306C31.5243 24.6025 31.7279 25.6757 32.4033 26.0088C32.0702 26.9526 32.7364 27.4892 33.6154 27.4892C32.7456 28.0906 32.7456 29.3027 33.8837 29.3027L33.5506 29.571C33.2823 29.571 33.1435 29.571 32.9492 29.3674C32.9492 29.8393 33.4211 30.0429 33.8189 30.1076C33.8189 30.1076 33.6801 30.709 33.6801 31.3197H34.4851C34.2815 30.9866 34.0132 29.9133 34.4203 29.5062C34.4203 29.5062 34.6886 30.9126 34.9569 31.3197H36.169C35.9007 31.0514 35.6324 30.0429 35.9007 29.5062C35.9007 29.5062 36.2338 30.8478 36.7057 31.3197H37.6494V23.2609C37.5846 22.4559 37.7882 21.7157 38.0565 21.0403H38.038ZM37.5661 37.0192C37.5661 38.6939 36.7612 39.9707 35.4843 40.7109L35.9562 39.7672H35.4843L34.9477 40.9792C34.3463 41.1828 33.6061 41.3123 32.8659 41.3123C30.5158 41.3123 29.9144 41.3771 29.0354 42.2561C28.1657 41.3863 27.555 41.3123 25.2049 41.3123C24.4647 41.3123 23.7245 41.1735 23.1231 40.9792L23.7245 39.7672H23.2527L22.716 40.8404C22.5772 40.7757 22.4477 40.7016 22.3829 40.6369L22.79 39.7672H22.3182L21.9851 40.4426C20.9766 39.7024 20.3752 38.5643 20.3752 37.084V31.7823H37.5661V37.0192ZM25.8803 27.4152L26.6205 27.48C26.6853 27.8871 26.5558 28.5532 26.2874 28.9603L25.612 28.7568C25.8156 28.2849 25.8156 27.8871 25.8803 27.4152ZM24.8718 26.8786C24.8718 26.8786 25.5473 26.8785 25.7416 26.9433C25.8803 27.0081 25.8063 27.2116 25.6028 27.2116C25.3992 27.1469 24.8626 26.8786 24.8626 26.8786H24.8718ZM24.8071 24.1954L24.2057 26.3419L24.4092 22.8538L25.353 22.0488L25.8248 23.0573L24.6128 26.4807L24.9458 24.1954C24.9458 24.0566 24.8071 24.0566 24.8071 24.1954ZM24.3352 27.8223C24.0021 27.9611 23.7338 27.7575 23.7985 27.554C23.9373 27.6928 24.3352 27.6187 24.3352 27.6187V27.8223ZM23.7338 28.1554C23.9373 28.2942 24.3352 28.2201 24.3352 28.2201V28.2849C24.1316 28.5532 23.6598 28.4237 23.7338 28.1461V28.1554ZM23.0584 26.749C22.9196 26.6102 22.9936 26.4159 23.1231 26.4159C23.3267 26.4159 23.595 26.6195 23.8633 26.749C23.9281 26.749 23.1879 26.8138 23.0584 26.749ZM23.7338 28.692C23.7338 28.692 23.9373 28.7568 24.2057 28.8308C24.2057 28.9696 24.0669 29.0991 23.8726 29.0344C23.7338 28.9696 23.669 28.8308 23.7338 28.7013V28.692ZM24.2057 27.3504C24.474 27.2857 24.6128 27.2857 24.7423 27.4892C24.474 27.8223 24.5387 28.433 25.2142 28.6273C25.2789 28.3589 25.4177 27.9518 25.4177 27.6835C25.1494 27.48 25.0106 27.1469 24.8811 27.0821C24.6775 26.9433 24.4092 26.8138 23.743 27.0173C23.743 27.2209 23.8818 27.4892 24.2149 27.3504H24.2057ZM27.1572 27.554L27.8974 27.6187C27.9621 28.0258 27.8326 28.8308 27.5643 29.2287L26.8241 29.0251C27.0924 28.692 27.1572 28.0166 27.1572 27.5447V27.554ZM28.3692 27.6928L28.9706 27.7575C29.0354 28.2294 28.9706 29.0991 28.7023 29.571L28.0269 29.3674C28.2952 29.0344 28.434 28.1554 28.36 27.6928H28.3692ZM29.4425 27.8315C29.6461 27.8315 29.7756 27.8315 29.9144 27.7668C30.2475 28.2387 30.5158 29.2472 30.1179 29.9133C29.9144 29.9133 29.7108 29.8486 29.5165 29.8486L29.3777 29.7838C29.6461 29.3119 29.5813 28.3774 29.4425 27.8408V27.8315ZM30.3122 27.4985L30.7193 27.0914C31.1265 27.4985 31.7279 28.3034 31.5243 29.1084L31.0524 29.5155C30.9877 29.5803 30.8489 29.6543 30.7841 29.719C31.1172 29.0436 30.7841 27.9056 30.3122 27.4985ZM32.8011 27.702C32.7364 27.8408 32.5976 27.9703 32.5976 28.1091L32.0609 28.581C32.1997 27.8408 31.6538 26.9711 31.1912 26.564L31.7279 26.0273L31.8666 26.1661C31.7279 26.7028 32.0702 27.6465 32.8104 27.7113L32.8011 27.702ZM31.4595 24.0751C31.1912 24.6117 31.1912 25.2131 31.5243 25.7498L31.3208 25.9533C30.377 25.8145 30.0439 24.4729 30.0439 24.4729V24.806C29.5073 24.6025 29.1742 24.1306 29.1742 23.4644C29.3777 23.6032 29.5813 23.668 29.8496 23.7327L29.9144 23.3256C29.239 23.1868 28.9059 22.789 28.7763 22.3171H28.7116H29.0447C29.4518 22.3171 29.7849 22.2523 30.1179 22.1783C30.3863 22.5854 30.8581 22.8538 31.33 22.9185C31.2652 23.1868 31.2652 23.5939 31.4688 24.0566L31.4595 24.0751ZM26.2227 21.0495H19.9773C20.2456 21.725 20.4492 22.4559 20.4492 23.2701V31.329H33.2082C33.2082 31.0606 33.273 30.3852 33.273 30.3852C32.7364 30.1817 32.4681 29.5155 32.5976 28.7753L31.3208 29.9133C30.7193 30.45 30.2475 30.5147 29.572 30.3204L24.6683 28.7753C24.6035 29.0436 24.2612 29.5155 23.8633 29.4507C23.3267 29.3119 23.3267 28.7105 23.5302 28.4422C23.3914 28.3034 23.3914 28.0351 23.595 27.9703C23.3914 27.9056 23.4562 27.6372 23.595 27.5632C23.4562 27.4985 23.4562 27.3597 23.4562 27.2301H23.1879C22.4477 27.2301 22.6513 25.7498 23.4562 26.1569L24.0576 26.4252L24.1964 22.7982L25.6028 21.5862L26.343 23.1961L25.0014 26.5547C26.0099 26.3512 26.343 26.7583 26.2134 27.1561L29.3685 27.4892C29.6368 27.554 30.0439 27.4244 30.3122 27.0821L31.0524 26.2771C30.5806 26.0736 30.2475 25.7405 30.1827 25.2686C29.1742 25.0651 28.7763 24.1306 28.9059 23.1868C28.5728 22.9185 28.3692 22.5854 28.3045 22.2431C27.3607 22.1043 26.6298 21.6417 26.2227 21.031V21.0495ZM25.353 9.83562L26.2227 14.9429L28.7116 16.2198V10.9182L25.353 9.84487V9.83562ZM33.5506 9.23421C33.5506 7.95738 31.404 6.81934 28.9799 6.81934C26.5558 6.81934 24.4092 7.95738 24.4092 9.23421L24.474 9.5673L25.4177 15.0725L20.921 17.6909C20.4492 17.9592 19.8478 18.7642 19.783 19.5044H20.588C20.7268 18.6994 21.3282 17.8297 22.4662 17.8945C23.5395 17.9592 24.1409 18.5699 24.7515 19.5044L24.8903 19.7727L25.0939 20.1058H18.4414C18.9133 21.1143 19.3852 22.1228 19.3852 23.2609V37.0932C19.3852 40.6554 22.1424 42.3301 25.0939 42.3301C27.3792 42.3301 27.7123 42.1913 28.9244 43.4681C30.2012 42.1913 30.4695 42.3301 32.7549 42.3301C35.7064 42.3301 38.4636 40.6554 38.4636 37.0932V23.2609C38.4636 22.1228 38.9355 21.1143 39.4074 20.1058H32.7549L32.9584 19.7727L33.0972 19.5044C33.6986 18.6347 34.3093 17.9592 35.3826 17.8945C36.5206 17.8297 37.1313 18.6994 37.2608 19.5044H38.0658C38.001 18.6994 37.3903 17.9592 36.9277 17.6909L32.431 15.0725L33.3748 9.5673L33.5783 9.23421H33.5506Z" fill="#DCDFE0"/>
<path fill-rule="evenodd" clip-rule="evenodd" d="M37.168 26.2117V25.8046C35.9559 25.8046 35.6228 24.3242 35.6228 24.3242C35.2897 25.3975 36.2982 26.2025 37.168 26.2025V26.2117Z" fill="#DCDFE0"/>
<path fill-rule="evenodd" clip-rule="evenodd" d="M35.6229 28.6914L35.4841 28.2843C34.4108 28.5526 33.8742 26.8779 33.8742 26.8779C33.5411 28.1548 34.7439 29.0245 35.6229 28.6914Z" fill="#DCDFE0"/>
<path fill-rule="evenodd" clip-rule="evenodd" d="M36.3634 27.1469C35.0865 27.3505 34.5499 25.8701 34.5499 25.8701C34.4111 26.6751 34.957 27.48 35.762 27.5448C35.5584 28.6181 36.5669 29.1547 37.3719 28.7569L37.2331 28.4238C36.5577 28.6921 35.8915 27.9519 36.3634 27.1469Z" fill="#DCDFE0"/>
<path fill-rule="evenodd" clip-rule="evenodd" d="M35.6228 22.9832V22.5761C33.9481 22.243 34.0776 21.0957 34.0776 21.0957C33.7445 22.169 34.679 22.9092 35.6228 22.9739V22.9832Z" fill="#DCDFE0"/>
<path fill-rule="evenodd" clip-rule="evenodd" d="M25.0112 39.7764L24.4746 40.9884H24.8725L25.4831 39.7764H25.0112Z" fill="#DCDFE0"/>
<path fill-rule="evenodd" clip-rule="evenodd" d="M25.9544 39.7764L25.3438 40.9884H25.8156L26.417 39.7764H25.9544Z" fill="#DCDFE0"/>
<path fill-rule="evenodd" clip-rule="evenodd" d="M29.5814 39.7764L28.9707 40.9884H29.3778L29.9792 39.7764H29.5814Z" fill="#DCDFE0"/>
<path fill-rule="evenodd" clip-rule="evenodd" d="M30.451 39.7764L29.8496 40.9884H30.3122L30.9229 39.7764H30.451Z" fill="#DCDFE0"/>
<path fill-rule="evenodd" clip-rule="evenodd" d="M28.6375 39.7764L28.0361 40.9884H28.4988L29.1094 39.7764H28.6375Z" fill="#DCDFE0"/>
<path fill-rule="evenodd" clip-rule="evenodd" d="M33.9395 40.9884H34.3466L34.948 39.7764H34.5501L33.9395 40.9884Z" fill="#DCDFE0"/>
<path fill-rule="evenodd" clip-rule="evenodd" d="M26.8241 39.7764L26.2227 40.9884H26.6853L27.2959 39.7764H26.8241Z" fill="#DCDFE0"/>
<path fill-rule="evenodd" clip-rule="evenodd" d="M27.7679 39.7764L27.1572 40.9884H27.6291L28.1657 39.7764H27.7679Z" fill="#DCDFE0"/>
<path fill-rule="evenodd" clip-rule="evenodd" d="M25.6857 33.2627C25.6209 33.2627 25.5469 33.3275 25.5469 33.4662C25.5469 33.531 25.6116 33.6698 25.6857 33.6698C25.7597 33.6698 25.8244 33.605 25.8244 33.4662C25.8892 33.3275 25.8244 33.2627 25.6857 33.2627Z" fill="#DCDFE0"/>
<path fill-rule="evenodd" clip-rule="evenodd" d="M25.5471 5.25523L26.2873 3.77484L27.6289 4.45027L29.1092 3.0439L30.5896 4.45027L31.9312 3.77484L32.6066 5.25523L33.4764 5.11644C33.2728 5.52355 33.0693 5.9214 32.9397 6.39327C31.996 5.85663 30.5896 5.38476 29.1092 5.38476C27.6289 5.38476 26.2873 5.79187 25.2787 6.39327C25.14 5.85663 24.9457 5.52355 24.7421 5.11644L25.5471 5.25523ZM28.9705 5.93065C30.8487 5.93065 32.3291 6.53206 33.134 7.20749C33.134 7.20749 33.4024 5.7271 34.2073 4.45027L32.7269 4.65382L31.922 2.97914L30.4416 3.7841L28.9612 2.30371L27.4808 3.7841L26.0004 2.97914L25.1955 4.65382L23.7151 4.45027C24.52 5.7271 24.7884 7.20749 24.7884 7.20749C25.6581 6.53206 27.1385 5.93065 28.9519 5.93065H28.9705Z" fill="#DCDFE0"/>
<path fill-rule="evenodd" clip-rule="evenodd" d="M30.5163 2.97008C30.7198 2.97008 30.9234 2.83129 30.9234 2.63699C30.9234 2.44269 30.655 1.83203 30.655 1.83203C30.655 1.83203 30.1832 2.36867 30.1832 2.57222C30.1184 2.77578 30.322 2.97933 30.5163 2.97933V2.97008Z" fill="#DCDFE0"/>
<path fill-rule="evenodd" clip-rule="evenodd" d="M32.9306 3.84933C33.1342 3.98812 33.3377 3.84933 33.4673 3.71055C33.606 3.50699 33.532 2.84082 33.532 2.84082C33.532 2.84082 32.9306 3.10914 32.7918 3.31269C32.7271 3.51625 32.7918 3.78457 32.9306 3.84933Z" fill="#DCDFE0"/>
<path fill-rule="evenodd" clip-rule="evenodd" d="M27.4992 2.96956C27.7028 2.96956 27.9063 2.76601 27.8323 2.56246C27.8323 2.35891 27.3604 1.82227 27.3604 1.82227C27.3604 1.82227 27.0273 2.35891 27.0273 2.62722C27.0921 2.83078 27.2957 2.96031 27.4992 2.96031V2.96956Z" fill="#DCDFE0"/>
<path fill-rule="evenodd" clip-rule="evenodd" d="M25.0112 3.84933C25.2147 3.71055 25.2795 3.51625 25.1499 3.31269C25.0204 3.10914 24.4097 2.84082 24.4097 2.84082C24.4097 2.84082 24.345 3.51625 24.4745 3.71055C24.6133 3.84933 24.8076 3.97887 25.0112 3.84933Z" fill="#DCDFE0"/>
<path fill-rule="evenodd" clip-rule="evenodd" d="M52.0744 17.5429C52.2132 17.876 52.5463 19.1529 51.8061 20.0966C50.9364 18.3479 49.7243 16.8768 48.7806 16.2013C48.577 16.0626 48.9194 15.7942 49.5208 15.7295C51.3342 15.3964 53.416 16.1366 54.4245 16.4049C53.9527 16.738 53.5548 16.9415 53.083 16.9415C53.8231 17.5429 54.3598 18.0796 54.6929 18.6162C53.9527 18.9493 53.6196 18.4774 52.0744 17.5429ZM54.3598 17.2746C54.8964 17.0711 55.3035 16.5992 55.4978 16.1366C54.1562 15.933 50.6588 14.4619 47.7721 15.6647C48.8453 14.6562 49.8539 14.5267 49.9186 13.0463C50.3905 13.3794 51.1307 13.5829 51.5285 12.778C51.2602 11.9082 50.4553 12.6392 50.3905 12.3709C50.2517 12.0378 51.3342 12.5096 51.6026 11.3623C50.7328 11.094 50.4645 11.7694 50.3257 11.6307C50.1869 11.4919 50.8624 11.1588 50.3905 10.2891C49.5208 10.8257 49.9834 11.3623 49.7891 11.4271C49.456 11.4271 49.6503 10.7517 48.651 10.7517C48.5863 11.825 49.5948 11.825 49.3912 12.0285C49.1877 12.2321 48.9194 11.4271 48.1792 11.825C48.1792 12.6947 48.8546 13.1666 49.5855 12.963C49.4468 14.5729 47.9756 14.3046 46.9023 16.1181C49.2525 17.3301 50.3257 19.4119 51.7414 20.8831C52.2132 20.55 53.0182 19.0696 53.0182 19.0696C54.5633 20.2817 55.7014 19.0696 55.7014 19.0696C55.1647 18.3942 55.1647 17.9963 54.3598 17.2561V17.2746Z" fill="#DCDFE0"/>
<path fill-rule="evenodd" clip-rule="evenodd" d="M33.6058 46.9655L32.8008 44.3471C34.4755 44.014 35.6876 43.6069 36.5573 43.2738V44.8837L37.9637 45.4204C36.8256 46.0218 35.3453 46.5584 33.5966 46.9655H33.6058ZM28.9704 48.4459C30.5155 48.4459 32.0607 48.1776 33.4023 47.9092L32.5325 45.2261C31.9959 45.3648 30.5895 45.4944 28.9056 45.4944C27.2216 45.4944 25.88 45.2908 25.2786 45.2261L24.4737 47.9092C25.88 48.2423 27.4252 48.4459 28.9704 48.4459ZM20.0418 45.4944L21.4481 44.9577V43.3478C22.3179 43.6809 23.5299 44.088 25.2046 44.4211L24.3997 46.9748C22.651 46.5677 21.1798 46.031 20.0325 45.4944H20.0418ZM37.0292 44.6246V42.6816C35.484 43.3571 33.541 43.9585 31.0521 44.162L30.9134 44.9022C31.1169 44.9022 31.3852 44.967 31.7831 44.967C30.8393 45.1058 29.6365 45.1705 29.0259 45.1705C28.3504 45.1705 27.1476 45.1058 26.2686 44.967C26.6017 44.967 26.8701 44.9022 27.0736 44.9022L26.9348 44.162C24.4459 43.9585 22.5029 43.3571 20.9578 42.6816V44.6246L18.876 45.4944C20.4211 46.2993 22.1698 46.9748 24.2516 47.4374L23.9833 48.2423C25.1214 48.5754 27.0088 48.9178 28.9518 48.9178C30.8948 48.9178 32.7823 48.5847 33.9204 48.2423L33.7168 47.4374C35.7339 46.9007 37.5473 46.2253 39.0925 45.4944L37.0107 44.6246H37.0292Z" fill="#DCDFE0"/>
<path fill-rule="evenodd" clip-rule="evenodd" d="M3.32245 18.7542C3.72956 18.1528 4.19218 17.6809 4.93237 17.0795C4.4605 17.0147 4.06264 16.876 3.59077 16.5429C4.59928 16.2746 6.68107 15.5344 8.49455 15.8674C9.09595 15.9322 9.43829 16.2005 9.23474 16.3393C8.29099 17.0147 7.08818 18.4859 6.2092 20.2346C5.46901 19.2908 5.73733 18.014 5.94088 17.6809C4.39573 18.4859 3.99788 18.9578 3.32245 18.7542ZM4.93237 19.0225C4.93237 19.0225 5.73733 20.5029 6.2092 20.836C7.61557 19.3556 8.6981 17.2738 11.0482 16.071C9.97493 14.2575 8.42978 14.5259 8.36501 12.9159C9.10521 13.1195 9.77138 12.6476 9.77138 11.7779C9.03119 11.3708 8.76287 12.185 8.55931 11.9814C8.42053 11.7779 9.42904 11.7779 9.29951 10.7046C8.29099 10.7046 8.49455 11.38 8.29099 11.306C8.08744 11.232 8.55931 10.6306 7.68959 10.168C7.21771 11.1117 7.89314 11.38 7.75435 11.5096C7.61557 11.6484 7.34725 10.9729 6.47752 11.2412C6.68108 12.3793 7.81912 11.9167 7.68959 12.2498C7.5508 12.5828 6.81986 11.9167 6.47752 12.7864C6.88463 13.5266 7.68959 13.3878 8.08744 13.0547C8.15221 14.5351 9.16072 14.6646 10.234 15.6731C7.41201 14.4611 3.84984 15.9415 2.50824 16.145C2.71179 16.6169 3.10965 17.0888 3.64629 17.2831C2.84133 18.0233 2.84133 18.4211 2.30469 19.0318C2.30469 19.0318 3.37797 20.2438 4.92312 19.0318L4.93237 19.0225Z" fill="#DCDFE0"/>
<path fill-rule="evenodd" clip-rule="evenodd" d="M27.768 17.8848V18.7545C28.0364 18.4214 28.6378 18.4862 28.6378 18.4862V19.763C28.6378 19.763 28.6378 20.3644 28.3694 20.6327H29.6463C29.4427 20.3644 29.378 19.763 29.378 19.763V18.4862C29.378 18.4862 29.9794 18.4214 30.2477 18.7545V17.8848H27.7588H27.768Z" fill="#DCDFE0"/>
<path fill-rule="evenodd" clip-rule="evenodd" d="M56.4409 18.2828C56.3022 18.144 56.1726 18.0144 56.0338 17.8109C55.9691 17.6721 55.8951 17.6073 55.8303 17.4778C56.0338 17.2095 56.2374 16.9412 56.3669 16.6081L56.9036 15.3312L55.4972 15.1277C55.2936 15.0629 54.8958 14.9889 54.4239 14.8594C53.5542 14.6558 52.4809 14.3227 51.3336 14.258C51.7407 14.0544 52.0738 13.7861 52.3421 13.3142L52.5457 12.9071C52.5457 12.9071 52.4809 12.3057 52.2774 12.1669C52.3421 11.9634 52.4161 11.7598 52.4809 11.5655L52.6845 10.6218L51.8795 10.3534C51.7407 10.2887 51.6112 10.2887 51.4724 10.2147C51.4076 10.0111 51.3336 9.88157 51.2688 9.67802L50.7322 8.73427L49.7885 9.27091C49.5849 9.4097 49.3814 9.53923 49.1871 9.74278C49.0483 9.74278 48.9187 9.67802 48.7152 9.67802C48.7152 9.67802 48.1785 9.61325 47.5771 9.8168L46.8369 9.01184L45.9672 8.0681C45.0975 7.19837 43.9502 6.93005 42.8121 7.32791C42.3403 6.85603 41.6741 6.52295 40.5916 6.52295C40.2585 6.52295 39.9161 6.58771 39.7218 6.58771C39.7218 6.58771 38.2415 6.85603 37.4365 7.66099L36.428 7.18912C35.7526 8.2624 34.6145 8.59549 34.6145 8.59549C34.5498 8.2624 34.411 7.99408 34.2074 7.72576L34.2722 7.31865C34.2722 7.31865 34.4757 6.04182 35.2159 4.96854L36.428 3.0903L34.6145 3.35862V2.75722L34.411 1.27683L33.0694 1.87824C32.9306 1.94301 32.801 2.01702 32.6623 2.08179L32.3939 1.54515L31.7925 1.87824C31.7278 1.73945 31.6537 1.54515 31.5242 1.3416L30.8488 0L29.8403 1.07328C29.7015 1.21207 29.6367 1.27683 29.572 1.40637L28.9706 0.804959L28.3691 1.40637C28.3044 1.3416 28.2304 1.20281 28.1008 1.07328L27.0923 0L26.3521 1.27683C26.2133 1.48038 26.1486 1.60992 26.0838 1.81347L25.4824 1.48038L25.2141 2.01702C25.0753 1.95226 24.9458 1.87824 24.807 1.81347L23.4654 1.21207L23.3266 2.69245V3.29386L21.6519 3.15507L22.864 5.03331C23.5394 6.10659 23.8077 7.38342 23.8077 7.38342L23.8725 7.79053C23.6689 8.05885 23.5394 8.32717 23.4654 8.66025C23.4654 8.66025 22.3921 8.18838 21.6519 7.25389L20.6434 7.72576C19.4313 6.9208 18.7651 6.65248 17.4883 6.58771C16.415 6.58771 15.7396 6.9208 15.2677 7.39267C14.1297 6.9208 12.9824 7.18912 12.1127 8.13287C12.1127 8.13287 11.576 8.73427 11.2429 9.07661C10.9099 9.4097 10.3732 9.75204 10.3732 9.75204C10.3732 9.75204 9.63302 9.61325 8.89283 9.75204C8.75404 9.54848 8.55974 9.41895 8.29142 9.28016L7.28291 8.74352L6.74627 9.68727C6.6815 9.89082 6.54272 10.0204 6.54272 10.2239C6.40393 10.2239 6.2744 10.2887 6.13561 10.3627L5.26589 10.631L5.46944 11.5748C5.46944 11.7783 5.53421 11.9819 5.60823 12.1114C5.54346 12.1762 5.54346 12.315 5.46944 12.4445L5.33065 12.9164L5.53421 13.3235C5.80253 13.7306 6.13561 14.0637 6.54272 14.2672C5.33065 14.406 4.25737 14.6743 3.45242 14.8686C3.04531 15.0074 2.64746 15.0722 2.37914 15.1369L0.97277 15.3405L1.30586 16.0807L1.57418 16.6173C1.71296 16.9504 1.90726 17.2187 2.11082 17.487C2.04605 17.6258 1.70371 18.1625 1.50941 18.292L0.833984 19.0322L1.50941 19.7724C1.57418 19.8372 2.31437 20.6421 3.5912 20.6421C3.92429 20.6421 4.26663 20.5774 4.59971 20.4386C4.9328 20.9752 5.33991 21.4471 5.67299 21.7154C4.99757 22.4556 4.26663 23.1218 3.25811 23.6584L2.38839 24.0655L2.79549 25.074C3.06381 25.6754 3.53569 26.3509 4.47018 26.6192C4.26663 27.2206 4.20186 27.7572 4.06307 28.2939C3.85952 29.5059 3.79475 29.9685 2.72148 30.3109L1.77773 30.644L1.98128 31.5877C2.18484 32.3279 2.51792 32.8645 2.85101 33.1976L2.2496 33.8731C2.2496 33.8731 3.72999 35.0111 5.20112 35.1499C5.20112 35.1499 6.47795 35.2147 7.01459 34.5485C7.21814 35.3534 7.616 36.0936 7.88432 36.7691C8.55974 38.1754 8.89283 38.9896 8.42096 39.7206L7.41245 41.3953L9.35545 41.3305C10.2252 41.2657 10.9654 41.2657 11.7056 41.0622V41.201L11.5668 42.5426L13.2415 42.2095C13.445 42.1447 13.5745 42.0707 13.7133 42.0059C14.7866 43.218 16.6001 44.2265 19.015 44.2265H19.1537L16.3965 45.3645L18.4136 46.4378C19.7552 47.1133 21.2355 47.7147 22.9102 48.1865L22.6419 48.9915L23.6504 49.2598C24.2518 49.4634 26.3336 50 28.952 50C31.5705 50 33.6523 49.4634 34.2537 49.2598L35.2622 48.9915L35.0586 48.1865C36.7333 47.7147 38.2137 47.1133 39.5553 46.4378L41.5723 45.3645L38.8151 44.2265H38.9539C41.3688 44.2265 43.1822 43.2828 44.2555 42.0059C44.3943 42.0707 44.5886 42.1447 44.7274 42.2095L46.4021 42.5426L46.2633 41.1362V40.9974C46.9387 41.201 47.7437 41.201 48.6134 41.2657L50.5564 41.3305L49.5479 39.6558C49.076 38.9156 49.4831 38.1107 50.0845 36.7043C50.4176 36.0289 50.76 35.2979 50.9543 34.4837C51.3614 34.752 51.7592 34.9556 52.1663 35.0204C52.1663 35.0204 52.4994 35.0851 52.7677 35.1591C53.6375 35.1591 54.0446 34.9556 54.646 34.5577L55.7193 33.8823L55.1178 33.2069C55.4509 32.8738 55.7933 32.3372 55.9876 31.597L56.2559 30.6532L55.3121 30.2461C54.2389 29.913 54.1741 29.3764 53.9706 28.2291C53.9058 27.7572 53.767 27.1558 53.5634 26.5544C54.5072 26.2861 54.9698 25.6107 55.2381 25.0093L55.6452 24.0007L54.7755 23.5936C53.7022 23.1218 52.962 22.4556 52.3606 21.6506C52.6937 21.3823 53.1008 20.9104 53.4339 20.3738C53.767 20.5126 54.1093 20.5774 54.4424 20.5774C55.6545 20.5774 56.3854 19.7724 56.5242 19.7076L57.1996 18.9674L56.3947 18.292L56.4409 18.2828Z" fill="#FDFDFD"/>
<path fill-rule="evenodd" clip-rule="evenodd" d="M28.9704 42.3298C28.1006 41.4601 27.49 41.3861 25.1399 41.3861C22.3179 41.3861 20.4396 39.7114 20.4396 37.0837V31.7821H37.6306V37.0837C37.6306 39.7021 35.7524 41.3861 32.9304 41.3861C30.5155 41.3213 29.8401 41.4508 28.9704 42.3298ZM20.4396 31.3195V23.2606C20.4396 22.5204 20.2361 21.7802 19.9678 21.04H26.2131C26.8146 21.845 27.8231 22.3816 29.0351 22.3816C30.2472 22.3816 31.2557 21.845 31.8571 21.04H38.1025C37.8342 21.7155 37.6306 22.4464 37.6306 23.2606V31.3195H20.4396Z" fill="#FFE403"/>
<path fill-rule="evenodd" clip-rule="evenodd" d="M21.3839 43.3379V44.9478L19.9775 45.4844C21.1896 46.0211 22.596 46.5577 24.3447 46.9648L25.1496 44.4112C23.4749 44.0041 22.3276 43.671 21.3932 43.3379H21.3839Z" fill="#FDFDFD"/>
<path fill-rule="evenodd" clip-rule="evenodd" d="M28.971 45.4851C27.2963 45.4851 25.9454 45.2816 25.344 45.2168L24.5391 47.9C25.8807 48.2331 27.4258 48.4366 28.971 48.4366C30.5161 48.4366 32.0613 48.1683 33.4029 47.9L32.5331 45.2168C32.0613 45.3556 30.6549 45.4851 28.971 45.4851Z" fill="#FDFDFD"/>
<path fill-rule="evenodd" clip-rule="evenodd" d="M36.5573 43.3379C35.6875 43.671 34.4755 44.0781 32.8008 44.4112L33.6057 46.9648C35.3544 46.5577 36.7608 46.0211 37.9729 45.4844L36.5665 44.9478V43.3379H36.5573Z" fill="#FDFDFD"/>
<path fill-rule="evenodd" clip-rule="evenodd" d="M15.8788 17.5425C13.9358 19.6243 14.8055 20.8363 15.2033 21.1694C14.4631 21.0306 13.4546 20.0961 13.6582 19.2264C13.4546 19.4947 13.1863 19.7631 12.9828 20.0961C12.5109 20.6975 12.113 21.373 11.7059 21.9744C11.1045 23.7231 12.1778 25.4625 13.9913 26.2767C11.9742 26.0084 11.1045 24.195 11.1045 23.0569C10.1608 24.8704 9.69816 26.5451 9.69816 27.9607C9.69816 28.4973 9.76292 28.9692 9.83694 29.4411C10.3088 30.3108 11.049 30.6531 12.3906 30.7827C11.1785 30.8474 10.5771 30.7827 10.0405 30.246C10.8455 33.7342 14.676 36.8245 16.2211 39.4429C14.676 37.4259 11.4561 34.4096 10.3088 32.189C10.244 32.994 10.4476 35.011 11.3821 36.2138C9.90171 34.8075 9.83694 32.6517 9.90171 31.3748C9.56862 30.4311 9.3003 29.4318 9.3003 28.2845C9.3003 27.2112 9.36507 26.2675 9.50386 25.4625C8.56011 26.7394 7.28328 27.276 6.61711 29.219C6.75589 26.6653 8.63413 26.6006 10.1053 23.5103C10.6419 22.1687 11.4469 20.9566 12.3258 19.6798C11.1878 20.0869 10.3828 20.2812 9.03198 21.7616C9.97573 19.541 15.3421 17.1261 17.7663 14.7112C17.0261 14.85 14.0098 14.9148 12.7977 14.1098C15.0831 14.7112 20.1164 14.0451 21.9946 12.7035C20.653 14.5817 17.831 14.7205 14.3429 18.477C14.75 18.1439 15.3514 17.8015 15.888 17.5332L15.8788 17.5425ZM18.4972 17.3389C20.7178 16.1269 26.0194 13.5824 22.3925 10.7605C21.9206 10.3534 21.3839 10.0203 20.9121 9.62242C20.3754 10.0943 21.1156 11.1676 21.3192 11.5654C21.3192 11.5654 20.1071 11.7042 19.8388 11.7042C17.9606 11.7042 16.0083 10.5662 17.0168 8.48438C16.2766 8.62316 16.2119 9.3541 15.9435 9.96476C15.4717 9.63167 14.6667 8.95625 14.0005 9.02101C14.5372 10.6957 16.6837 12.1761 18.3677 12.5092C16.693 13.4529 13.4639 14.1191 11.7892 12.1021C10.6512 14.3874 12.2611 15.3219 13.871 16.4692C7.7644 19.2264 8.6989 22.3815 4.6741 24.7964C5.21074 25.0647 7.49608 24.528 7.69964 24.528C6.89468 25.6661 6.48757 26.138 6.21925 26.6746C5.95093 27.2112 5.88617 27.7479 5.61785 29.0247C5.41429 30.0332 5.08121 30.9677 3.86914 31.6431C4.34101 32.5129 5.41429 31.8467 5.81215 31.7079C5.74738 31.7727 5.60859 32.846 5.21074 33.3178C7.29253 33.179 6.28402 28.8859 8.36581 29.8944C8.96722 30.1628 9.106 30.8382 8.83768 31.4396C7.49608 34.1968 10.5864 36.6765 10.3828 39.0913C11.123 39.0913 11.928 39.0913 12.3999 38.0181C12.6682 38.5547 13.0753 39.2301 13.2696 39.8963L13.871 38.823C14.2781 40.5717 15.888 42.1816 18.0346 42.3112C17.0261 40.7012 18.2381 38.4159 15.6845 36.0658C16.0175 35.7975 16.7577 35.3256 16.9613 34.9925C13.871 35.3256 10.6512 32.9107 12.1223 31.7727C13.066 31.0325 13.5287 32.5776 15.009 32.3093L14.4076 31.8374C14.6112 31.6339 14.8147 31.3656 15.0831 31.162C14.4817 31.0973 13.7415 30.6901 13.7415 30.6901L14.1486 30.0887C10.5216 30.0887 10.4569 27.3315 11.928 27.202C12.6034 27.1372 13.5379 28.4141 15.7585 28.1457C15.4902 27.8126 15.3514 27.276 15.2218 26.8689C15.7585 26.8041 16.3599 26.8041 16.8965 26.6006C15.8232 26.4618 15.5549 26.0639 14.6112 25.3885L15.6845 24.9814C14.1393 24.2412 14.2781 22.8996 14.2041 21.4933C15.009 21.9651 15.9528 22.6313 16.9613 22.363C17.2296 22.2982 17.3684 22.1594 17.3684 21.8911C15.962 21.3545 15.0831 19.2079 18.5064 17.3204L18.4972 17.3389Z" fill="#FDFDFD"/>
<path fill-rule="evenodd" clip-rule="evenodd" d="M48.5117 25.4716C48.6505 26.2766 48.7801 27.2203 48.7153 28.2936C48.6505 29.4317 48.447 30.4402 48.1139 31.3839C48.1787 32.6608 48.1139 34.8073 46.6335 36.2229C47.642 34.9461 47.8456 32.9291 47.7068 32.1981C46.5687 34.4187 43.3397 37.435 41.7945 39.452C43.3397 36.8336 47.1701 33.8081 48.0399 30.2551C47.5032 30.7918 46.9018 30.8565 45.6898 30.7918C47.0314 30.653 47.7716 30.3199 48.2434 29.4502C48.3082 28.9783 48.3822 28.5064 48.3822 27.9698C48.447 26.5634 47.9751 24.9443 46.9758 23.066C46.9758 24.2041 46.1061 26.0175 44.0891 26.2858C45.9026 25.4809 46.9758 23.7322 46.3744 21.9835C45.9673 21.3821 45.5695 20.7714 45.0976 20.1052C44.8293 19.7722 44.6257 19.5038 44.4222 19.2355C44.6905 20.1052 43.6172 21.049 42.877 21.1785C43.2841 20.7714 44.0891 19.5686 42.2016 17.5516C42.7382 17.8199 43.3397 18.153 43.7468 18.4953C40.2586 14.7388 37.4366 14.6001 36.095 12.7218C37.9733 13.9987 43.0158 14.7389 45.2919 14.1282C44.0151 14.9332 41.0636 14.8684 40.3234 14.7296C42.8123 17.1445 48.1139 19.5686 49.0576 21.7799C47.7808 20.3736 46.9111 20.1052 45.7638 19.6981C46.6335 21.0397 47.4385 22.187 47.9844 23.5286C49.3907 26.6189 51.343 26.6837 51.4725 29.2374C50.7971 27.2944 49.4555 26.8225 48.521 25.4809L48.5117 25.4716ZM52.407 29.0338C52.1387 27.757 52.0739 27.2203 51.8056 26.6837C51.5373 26.1471 51.1302 25.6752 50.2604 24.5371C50.464 24.5371 52.8141 25.0738 53.286 24.8055C49.326 22.3166 50.1957 19.2355 44.0891 16.4783C45.699 15.2662 47.3089 14.3317 46.1709 12.0464C44.4962 14.0634 41.3319 13.388 39.5924 12.4535C41.2671 12.1204 43.4877 10.64 43.9596 8.96535C43.2841 8.90058 42.4792 9.56676 42.0166 9.90909C41.813 9.30769 41.6835 8.5675 40.9433 8.42871C41.9518 10.5753 39.9995 11.6485 38.1213 11.6485C37.853 11.6485 36.6409 11.5098 36.6409 11.5098C36.8445 11.1027 37.5847 10.0294 37.048 9.56676C36.5761 9.97386 36.0395 10.3069 35.5676 10.7048C31.9407 13.5268 37.3163 16.1452 39.4629 17.2833C42.8863 19.1615 41.9518 21.3821 40.5362 21.9187C40.5362 22.187 40.675 22.2518 40.9433 22.3906C41.9518 22.7237 42.8863 21.9835 43.7005 21.5209C43.6357 22.9272 43.7653 24.2041 42.2201 25.009L43.2934 25.4161C42.3496 26.0915 42.0813 26.4894 41.008 26.6282C41.5447 26.8965 42.1461 26.8965 42.6827 26.8965C42.5439 27.3036 42.4144 27.7662 42.1461 28.1733C44.3667 28.4417 45.3012 27.1648 45.9766 27.2296C47.457 27.3684 47.383 30.1163 43.756 30.1163L44.1631 30.7178C44.1631 30.7178 43.4877 31.1249 42.8215 31.1896C43.0898 31.3932 43.2934 31.6615 43.4969 31.865L42.8955 32.3369C44.3759 32.6052 44.7738 30.9953 45.7823 31.8003C47.2627 32.9383 44.0336 35.4272 40.9433 35.0201C41.2116 35.3532 41.9518 35.8251 42.2201 36.0934C39.6664 38.5083 40.9433 40.7289 39.87 42.3388C42.0166 42.2 43.6265 40.5901 44.0336 38.8506L44.635 39.9239C44.8385 39.2485 45.2364 38.5175 45.5047 38.0457C45.9766 39.0542 46.7815 39.0542 47.5217 39.1189C47.3182 36.7041 50.4085 34.2152 49.0669 31.4672C48.7986 30.9306 49.0021 30.2551 49.5388 29.922C51.6206 28.8488 50.612 33.2159 52.6938 33.3454C52.2867 32.8736 52.1572 31.8003 52.0924 31.7355C52.4995 31.8743 53.5728 32.5405 54.0354 31.6707C52.9622 30.9953 52.555 30.0608 52.4255 29.0523L52.407 29.0338Z" fill="#FDFDFD"/>
<path fill-rule="evenodd" clip-rule="evenodd" d="M31.792 21.0394C31.1906 21.8444 30.1821 22.381 28.97 22.381C28.7017 22.381 28.4334 22.381 28.1651 22.3163C28.2298 22.6493 28.4334 22.9917 28.7665 23.26C28.6277 24.2037 29.0348 25.0735 30.0433 25.3418C30.1821 25.8137 30.4504 26.2115 30.913 26.3503L30.2376 27.1553C29.9693 27.4884 29.6362 27.5624 29.2939 27.5624L26.1388 27.2293C26.2776 26.8962 25.9352 26.4891 24.9267 26.6279L26.1388 23.1397L25.4634 21.5298L24.057 22.7419L23.9182 26.3688L23.3168 26.1005C22.5118 25.7674 22.3083 27.1738 23.0485 27.1738H23.3816C23.3816 27.3126 23.3816 27.5069 23.5204 27.5069C23.3816 27.5716 23.3168 27.8399 23.5204 27.914C23.3168 27.9787 23.3168 28.247 23.4556 28.3858C23.3168 28.6542 23.252 29.2556 23.7887 29.3943C24.2605 29.5331 24.5289 29.0613 24.5936 28.7189L29.4974 30.2641C30.1728 30.4676 30.7095 30.3288 31.2461 29.857L32.5229 28.7189C32.3842 29.4591 32.6617 30.1253 33.1984 30.3288C33.1984 30.3288 33.1336 31.0043 33.1336 31.2726H37.5655V23.2137C37.5655 22.4735 37.7691 21.7334 38.0374 20.9932H31.792V21.0579V21.0394Z" fill="#FDFDFD"/>
<path fill-rule="evenodd" clip-rule="evenodd" d="M24.4744 34.6037L24.5392 34.7424C24.678 34.8812 24.7427 34.8812 24.8723 34.8072L25.0758 34.6684C25.2146 34.5296 26.1491 34.9367 26.1491 34.1318C26.2139 34.6684 25.5477 35.8805 25.9455 36.5467L26.4822 37.4164H24.6687C24.4652 37.4164 24.4004 37.5552 24.3356 37.6199L23.8638 38.5637C23.725 38.832 23.725 39.1003 23.9285 39.2391L24.2616 39.5722C24.2616 39.5722 24.5299 39.3686 24.5947 39.0356L24.4559 38.8968C24.3171 38.758 24.3171 38.6932 24.3911 38.5637L24.6595 37.9623C24.7982 37.7587 24.863 37.694 25.1313 37.7587L26.6117 38.0918C26.7505 38.0918 26.88 38.1566 27.0188 38.027C27.2224 37.694 27.4907 37.694 27.8238 37.7587C28.6287 37.8975 30.4422 38.0918 31.1176 37.2869C31.8578 38.2954 33.403 38.2954 33.2642 38.832L33.0606 40.6455H33.5325L33.8008 38.832C33.8008 38.6285 33.9396 38.3601 33.7361 38.1566C33.6713 38.0918 33.5973 38.0178 33.403 37.6847C33.1347 37.2128 33.1347 36.4726 32.8663 35.8712C33.1347 35.6029 33.403 35.4641 33.6065 35.5381C34.1432 35.6769 34.282 36.5467 35.0129 37.3516C34.9481 37.0185 34.8741 36.6762 34.7446 36.3431C34.7446 36.3431 35.2812 36.7502 35.42 37.2128C35.4848 37.4812 35.6236 37.7495 35.8919 37.8883C36.0954 37.953 36.299 37.8883 36.4933 37.6199C36.4933 37.6199 36.0214 36.9445 35.6236 36.4819C35.1517 35.8805 34.4855 35.2051 33.5418 35.2698C33.2734 35.2698 33.0051 35.4086 32.7368 35.6029C31.7283 35.0015 30.9233 35.6029 30.5903 35.6029L28.6472 35.4641C28.2401 35.4641 27.9718 34.9923 27.9718 34.9923C27.9071 33.3823 26.6302 32.7069 26.1583 32.7069C26.1583 32.7069 26.2231 32.4386 26.0936 32.2998L25.6865 32.8364L24.5484 32.4293L25.4182 33.1695L24.4744 34.2428C24.4096 34.3816 24.4096 34.5111 24.4744 34.5759V34.6037Z" fill="#FDFDFD"/>
<path fill-rule="evenodd" clip-rule="evenodd" d="M23.1975 36.8892C22.9292 37.0928 22.9292 37.3611 23.1327 37.6942L23.2715 37.9625L23.6786 37.6294L23.6138 37.4258C23.5491 37.2871 23.5491 37.1575 23.6786 37.0187L24.28 36.5469C24.4157 36.4543 24.5514 36.4081 24.6871 36.4081L25.9639 36.6764C25.9639 36.6764 25.7604 36.4081 25.6956 36.1398L24.4836 36.001C24.28 36.001 24.2152 36.0657 24.0765 36.1398L23.2067 36.88L23.1975 36.8892Z" fill="#FDFDFD"/>
<path fill-rule="evenodd" clip-rule="evenodd" d="M31.3203 40.6458H31.7922L32.5324 38.7676C32.5324 38.7028 32.5971 38.7028 32.5971 38.6288C32.2641 38.49 32.0605 38.4252 31.7922 38.2217C31.9957 38.49 32.1253 38.6288 32.0605 38.8231L31.3203 40.6366V40.6458Z" fill="#FDFDFD"/>
<path fill-rule="evenodd" clip-rule="evenodd" d="M29.8499 14.055L31.6634 13.3796C31.6634 13.3796 31.6634 13.5831 31.1267 13.981C30.6549 14.3141 29.8499 14.6564 29.8499 14.6564V14.055ZM29.8499 12.7134L31.8669 11.9732C31.8669 11.9732 31.5986 12.2415 31.1267 12.5746C30.6549 12.9077 29.8499 13.25 29.8499 13.25V12.7134ZM29.8499 11.5013V12.038C29.8499 12.038 30.6549 11.7049 31.1267 11.3625C31.6634 11.0294 32.0705 10.6223 32.0705 10.6223L29.8499 11.4921V11.5013ZM31.7282 14.9247L32.5979 9.81738L29.2393 10.9554V16.2571L31.7282 14.9155V14.9247Z" fill="#FDFDFD"/>
<path fill-rule="evenodd" clip-rule="evenodd" d="M25.7508 19.4949L25.8156 19.6337H26.491V19.7724C26.491 19.9112 26.5558 20.0408 26.5558 20.1055C26.6946 20.4386 26.8889 20.781 27.2312 21.0493C27.6383 21.3824 28.2397 21.5859 28.9799 21.5859C30.6546 21.5859 31.3948 20.5126 31.4688 19.7077V19.5689H32.1442L32.209 19.4301C32.8844 18.4216 33.6894 17.2835 34.6239 17.08L32.0702 15.5996L28.9799 17.2743L25.8896 15.5996L23.3359 17.08C24.2797 17.3483 25.0846 18.4864 25.7508 19.4949Z" fill="#FDFDFD"/>
<path fill-rule="evenodd" clip-rule="evenodd" d="M28.1657 12.7129V13.2496C28.1657 13.2496 27.3608 12.9165 26.8889 12.5741C26.3523 12.241 26.1487 11.9727 26.1487 11.9727L28.1657 12.7129ZM28.1657 11.5009L25.9452 10.6959C25.9452 10.6959 26.417 11.029 26.8889 11.4361C27.3608 11.7692 28.1657 12.1115 28.1657 12.1115V11.5101V11.5009ZM28.1657 14.5912C28.1657 14.5912 27.3608 14.2581 26.8889 13.9157C26.3523 13.5826 26.3523 13.3791 26.3523 13.3791L28.1657 14.0545V14.5912ZM28.7024 16.2658V10.9642L25.3438 9.82617L26.2135 14.9335L28.7024 16.2751V16.2658Z" fill="#FDFDFD"/>
<path fill-rule="evenodd" clip-rule="evenodd" d="M28.97 7.60547C27.027 7.60547 25.6114 8.20687 25.2783 8.94707L28.97 10.4275L32.6617 8.94707C32.3934 8.20687 30.913 7.60547 28.97 7.60547Z" fill="#FDFDFD"/>
<path fill-rule="evenodd" clip-rule="evenodd" d="M28.971 5.45902C30.3773 5.45902 31.7929 5.86613 32.8015 6.46753C32.9402 5.9309 33.1345 5.59781 33.3381 5.1907L32.4684 5.32949L31.7929 3.8491L30.4513 4.52453L28.971 3.11816L27.4906 4.52453L26.149 3.8491L25.4088 5.32949L24.5391 5.1907C24.7426 5.59781 24.9462 5.99566 25.0757 6.46753C26.149 5.9309 27.5646 5.45902 28.971 5.45902Z" fill="#FDFDFD"/>
<path fill-rule="evenodd" clip-rule="evenodd" d="M53.082 17.0798C53.5539 17.0151 53.9517 16.8763 54.4236 16.5432C53.4151 16.2749 51.3333 15.5347 49.5198 15.8678C48.9184 15.9325 48.5761 16.2009 48.7796 16.3396C49.7234 17.0151 50.9262 18.4862 51.8052 20.2349C52.5454 19.2912 52.2771 18.0143 52.0735 17.6812C53.6186 18.625 54.0165 19.0228 54.6919 18.8933C54.2848 18.2179 53.7482 17.6812 53.082 17.0798Z" fill="#FDFDFD"/>
<path fill-rule="evenodd" clip-rule="evenodd" d="M6.20999 20.1607C7.07972 18.412 8.29178 16.9408 9.23553 16.2654C9.43908 16.1266 9.09674 15.8583 8.49534 15.7935C6.68186 15.4605 4.60007 16.2007 3.59156 16.469C4.06343 16.8021 4.46129 17.0056 4.93316 17.0056C4.19297 17.607 3.65633 18.1437 3.32324 18.6803C4.06343 18.8839 4.39652 18.412 5.94167 17.4682C5.80289 17.9401 5.4698 19.1429 6.20999 20.1514V20.1607Z" fill="#FDFDFD"/>
<path fill-rule="evenodd" clip-rule="evenodd" d="M13.9255 38.9707L13.3241 40.0439C13.1206 39.3685 12.7227 38.6376 12.4544 38.1657C11.9825 39.1742 11.1776 39.1742 10.4374 39.239C10.5761 36.8241 7.55061 34.3352 8.89221 31.5872C9.16053 31.0506 8.95697 30.3752 8.42033 30.0421C6.33854 28.9688 7.34706 33.336 5.26526 33.4655C5.67237 32.9936 5.8019 31.9203 5.86667 31.8556C5.45956 31.9944 4.38629 32.6605 3.92367 31.7908C5.13573 31.1154 5.46882 30.1809 5.67237 29.1724C5.94069 27.8955 6.00546 27.3589 6.27378 26.8223C6.5421 26.2856 6.9492 25.8137 7.81893 24.6757C7.61538 24.6757 5.33003 25.2123 4.79339 24.944C8.75342 22.4551 7.8837 19.3741 13.9903 16.6169C12.3804 15.4048 10.7704 14.4703 11.9085 12.2497C13.5832 14.2667 16.7475 13.5913 18.487 12.6568C16.8123 12.3237 14.5917 10.8434 14.1198 9.16867C14.7212 9.10391 15.6002 9.77008 16.0628 10.1124C16.2664 9.51101 16.3959 8.77082 17.1361 8.63203C16.1276 10.7786 18.0798 11.8519 19.9581 11.8519C20.2264 11.8519 21.4385 11.7131 21.4385 11.7131C21.2349 11.306 20.4947 10.2327 21.0314 9.77008C21.5032 10.1772 22.0399 10.5103 22.5117 10.9081C26.1387 13.7301 20.763 16.3485 18.6165 17.4866C15.1931 19.3648 16.1276 21.5854 17.5432 22.122C17.5432 22.3904 17.4044 22.4551 17.1361 22.5939C16.1276 22.927 15.1931 22.1868 14.3789 21.7242C14.4437 23.1306 14.3141 24.4074 15.8593 25.2123L14.786 25.6194C15.7297 26.2949 15.9981 26.6927 17.0713 26.8315C16.5347 27.0998 15.9333 27.0998 15.3966 27.0998C15.5354 27.5069 15.665 27.9696 15.9333 28.3767C13.7127 28.645 12.7782 27.3682 12.1028 27.4329C10.6224 27.5717 10.6964 30.3197 14.3234 30.3197L13.9163 30.9211C13.9163 30.9211 14.5917 31.3282 15.2579 31.3929C14.9895 31.5965 14.786 31.8648 14.5824 32.0684L15.1838 32.5402C13.7035 32.8086 13.3056 31.1986 12.2971 32.0036C10.8167 33.1417 14.0458 35.6305 17.1361 35.2234C16.8678 35.5565 16.1276 36.0284 15.8593 36.2967C18.4129 38.7116 17.1361 40.9322 18.2094 42.5421C15.924 42.2738 14.3141 40.6639 13.907 38.9799L13.9255 38.9707ZM16.7475 36.2875C17.4229 35.7508 18.0243 35.4825 18.0243 34.1409C16.9511 34.6776 13.9995 34.6776 12.7227 32.9288C12.3896 32.457 12.7227 32.1887 13.0558 32.5958C13.9255 33.5395 15.4707 33.1324 16.0813 32.8641C16.0166 32.531 15.7482 32.1239 15.5447 31.9203C15.7482 31.7168 16.3496 31.3837 16.4884 30.8471C16.1553 30.6435 14.8785 30.514 14.8785 30.514C15.0821 30.3104 15.3504 30.0421 15.2116 29.3019C13.9348 29.709 12.3249 29.1631 11.9918 28.7005C11.6587 28.2379 11.9918 27.7568 12.3248 28.0991C13.0003 28.7745 16.1553 29.5795 17.2934 28.3674C16.8215 28.2286 16.3496 27.8308 16.2849 27.6272C17.3582 27.4884 18.2279 26.887 18.3019 26.0821C17.7005 26.0821 16.5532 26.0173 16.1553 25.749C16.692 25.5454 17.0251 25.3419 17.1639 24.8052C15.1468 24.6665 15.0173 23.1953 15.0173 22.927C16.2941 23.6672 18.6442 23.3341 18.0428 21.5206C16.9696 21.4559 15.8963 19.7072 18.8478 18.0972C21.531 16.6169 24.6213 15.0717 24.353 12.4533C24.1494 10.7786 21.4662 9.63129 21.0591 8.82633C19.9211 9.36297 19.7175 10.0384 20.1894 11.0469C20.1894 11.0469 17.6357 11.3152 17.4322 9.70531C17.3674 9.02989 17.8393 8.36371 18.3019 7.82707C18.0336 7.82707 16.0813 7.29043 15.4799 8.90035C14.4066 8.16016 13.4629 8.16016 12.7227 8.96512C13.8607 9.64054 14.6009 11.9907 16.4792 12.7216C15.1376 13.4618 12.917 13.1287 11.6402 10.9081C10.4281 12.7216 9.69717 14.5351 12.3156 16.4781C7.55061 18.6246 7.61538 22.7882 3.45179 24.7405C3.8589 25.8785 4.72862 25.8785 5.86667 25.6842C4.0532 28.0343 5.59835 30.4492 2.77637 31.3929C3.04469 32.3367 3.58133 33.0676 4.58984 32.7993C4.32152 33.2712 4.11797 33.2712 3.64609 33.7431C5.19124 34.6868 7.00472 34.0114 7.40257 30.9211C7.46734 30.3844 8.2723 30.7175 8.00398 31.2542C6.25527 34.8811 10.6872 37.6383 9.14202 40.3215C10.5484 40.2568 11.5569 40.1827 12.1676 39.7201C12.4359 40.2568 12.6394 40.8582 12.5747 41.3948C13.3149 41.256 13.6479 40.7934 13.6479 40.2568C14.1198 41.7371 15.9333 43.2823 18.82 43.2823C17.4784 40.9322 18.8848 38.7856 16.7382 36.2967L16.7475 36.2875Z" fill="#2B2A29"/>
<path fill-rule="evenodd" clip-rule="evenodd" d="M9.96585 30.2364C10.5025 30.7731 11.1039 30.8378 12.316 30.7731C10.9744 30.6343 10.2342 30.3012 9.76229 29.4315C9.69753 28.9596 9.62351 28.4877 9.62351 27.9511C9.55874 26.5447 10.0306 24.9256 11.0299 23.0473C11.0299 24.1854 11.8996 25.9988 13.9166 26.2672C12.1032 25.4622 11.0299 23.7135 11.6313 21.9648C12.0384 21.3634 12.4362 20.7527 12.9081 20.0865C13.1764 19.7535 13.38 19.4851 13.5835 19.2168C13.3152 20.0865 14.3885 21.0303 15.1287 21.1598C14.7216 20.7527 13.9166 19.5499 15.8041 17.5329C15.2675 17.8012 14.6661 18.1343 14.259 18.4766C17.7471 14.7201 20.5691 14.5814 21.9107 12.7031C20.0325 13.98 14.9899 14.7201 12.7138 14.1095C13.9906 14.9144 16.9422 14.8497 17.6824 14.7109C15.1935 17.1258 9.89183 19.5499 8.94808 21.7612C10.2249 20.3549 11.0946 20.0865 12.2419 19.6794C11.3722 21.021 10.5673 22.1683 10.0214 23.5099C8.61499 26.6002 6.66274 26.665 6.5332 29.2187C7.20863 27.2757 8.47621 26.7298 9.41995 25.4622C9.28117 26.2672 9.15163 27.2109 9.2164 28.2842C9.2164 29.4222 9.48472 30.4307 9.81781 31.3745C9.75304 32.6513 9.81781 34.7979 11.2982 36.2135C10.2897 34.9367 10.0861 32.9196 10.2249 32.1887C11.363 34.4093 14.592 37.4256 16.1372 39.4426C14.592 36.8241 10.7616 33.7338 9.95659 30.2457L9.96585 30.2364Z" fill="#2B2A29"/>
<path fill-rule="evenodd" clip-rule="evenodd" d="M45.7643 19.7634C46.9023 20.0965 47.7073 20.3648 49.0581 21.8452C48.1144 19.6246 42.748 17.2098 40.3239 14.7949C41.064 14.9337 44.0803 14.9984 45.2924 14.1935C43.0071 14.7949 37.9737 14.0547 36.0215 12.7871C37.3631 14.6653 40.1851 14.8041 43.6732 18.5606C43.2014 18.2275 42.6647 17.8204 42.1281 17.6169C44.0063 19.6987 43.2014 20.9107 42.8035 21.2438C43.5437 21.105 44.5522 20.1705 44.3486 19.3008C44.5522 19.5691 44.8205 19.8374 45.0241 20.1705C45.4959 20.7719 45.8938 21.4474 46.3009 22.0488C46.9023 23.7975 45.829 25.5369 44.0156 26.3511C46.0326 26.0828 46.9023 24.2693 46.9023 23.1313C47.8461 24.9448 48.3087 26.6195 48.3087 28.0351C48.3087 28.5717 48.2439 29.0436 48.1699 29.5155C47.698 30.3852 46.9578 30.7275 45.6162 30.8571C46.8283 30.9218 47.4297 30.8571 47.9663 30.3204C47.1614 33.8086 43.3309 36.8989 41.721 39.5173C43.2661 37.5003 46.486 34.484 47.6333 32.2634C47.698 33.0684 47.4945 35.0854 46.56 36.2882C48.0404 34.8819 48.1051 32.726 48.0404 31.4492C48.3734 30.5055 48.6418 29.5062 48.6418 28.3589C48.7065 27.2856 48.577 26.3419 48.4382 25.5369C49.382 26.8138 50.6588 27.3504 51.325 29.2934C51.1862 26.7397 49.3079 26.675 47.8368 23.5847C47.4297 22.2431 46.6247 21.031 45.755 19.7542L45.7643 19.7634Z" fill="#2B2A29"/>
<path fill-rule="evenodd" clip-rule="evenodd" d="M52.1388 31.7169C52.2035 31.7817 52.3423 32.855 52.7402 33.3268C50.6584 33.1881 51.6669 28.8949 49.5851 29.9034C48.9837 30.1718 48.8449 30.8472 49.1132 31.4486C50.4548 34.2058 47.3645 36.6855 47.5681 39.1003C46.8279 39.1003 46.0229 39.1003 45.551 38.0271C45.2827 38.5637 44.8756 39.2391 44.6813 39.9053L44.0799 38.9616C43.6728 40.7103 42.0629 42.3202 39.9163 42.4497C40.9248 40.8398 39.7128 38.5544 42.2664 36.2043C41.9334 35.936 41.1932 35.4641 40.9896 35.1311C44.0799 35.4641 47.2997 33.0493 45.8286 31.9112C44.8849 31.171 44.4222 32.7162 42.9419 32.4479L43.5433 31.976C43.3397 31.7724 43.0714 31.5041 42.8678 31.3006C43.4693 31.2358 44.2094 30.8287 44.2094 30.8287L43.8023 30.2273C47.4293 30.2273 47.494 27.4701 46.0229 27.3405C45.3475 27.2758 44.413 28.5526 42.1924 28.2843C42.4607 27.9512 42.5995 27.4146 42.7291 27.0074C42.1924 26.9427 41.517 26.9427 41.0544 26.7391C42.1277 26.6003 42.396 26.2025 43.3397 25.5271L42.2664 25.12C43.8116 24.3798 43.6728 23.0382 43.7468 21.6318C42.9419 22.1037 41.9981 22.7698 40.9896 22.5015C40.7213 22.4368 40.5825 22.298 40.5825 22.0297C41.9889 21.493 42.9326 19.2724 39.5092 17.3942C37.2886 16.1821 31.987 13.6377 35.614 10.8157C36.0858 10.4086 36.6225 10.0755 37.0943 9.67769C37.631 10.1496 36.8908 11.2228 36.6872 11.6207C36.6872 11.6207 37.8993 11.7595 38.1676 11.7595C40.0459 11.7595 41.9981 10.6214 40.9896 8.53965C41.7298 8.67843 41.7946 9.40937 42.0629 10.02C42.5348 9.68695 43.3397 9.01152 44.0059 9.07629C43.4693 10.751 41.3227 12.2314 39.6388 12.5644C41.3134 13.5082 44.5425 14.1744 46.2172 12.1573C47.3553 14.4427 45.7453 15.3772 44.1354 16.5245C50.242 19.2817 49.3075 22.4368 53.3323 24.8516C52.7957 25.12 50.5103 24.5833 50.3068 24.5833C51.1765 25.7214 51.5836 26.1932 51.8519 26.7299C52.1202 27.2665 52.185 27.8032 52.4533 29.08C52.6569 30.0885 52.99 31.023 54.202 31.6984C53.6006 32.5034 52.5921 31.8372 52.1202 31.6984L52.1388 31.7169ZM51.9352 25.5363C53.0732 25.7399 53.9522 25.7399 54.3501 24.5926C50.2513 22.6496 50.2513 18.486 45.4863 16.3302C48.1047 14.3872 47.3645 12.5737 46.1617 10.7602C44.8849 13.0456 42.6735 13.3139 41.3227 12.5737C43.2009 11.8983 43.9411 9.54816 45.0792 8.81722C44.4037 8.07703 43.4692 8.07703 42.396 8.75245C41.7946 7.2073 39.9071 7.67917 39.574 7.67917C40.0459 8.15105 40.5825 8.81722 40.4437 9.55741C40.2402 11.1026 37.6865 10.899 37.6865 10.899C38.2231 9.82573 37.9548 9.22433 36.8168 8.67843C36.4837 9.54816 33.7265 10.6214 33.5229 12.3054C33.2546 14.9238 36.3449 16.469 39.0281 17.9493C41.9796 19.5593 40.9063 21.308 39.8331 21.3727C39.2317 23.251 41.5077 23.5933 42.8586 22.7791C42.8586 23.0474 42.655 24.5278 40.712 24.6573C40.9156 25.2587 41.1839 25.4623 41.7205 25.6011C41.3134 25.8694 40.1754 25.9342 39.574 25.9342C39.6388 26.7391 40.5177 27.4146 41.591 27.4793C41.5262 27.7476 40.9896 28.0807 40.5825 28.2195C41.7946 29.4316 44.9496 28.6266 45.6158 27.9512C45.8841 27.6181 46.2912 28.09 45.9489 28.5526C45.6158 29.0245 44.0059 29.5611 42.7291 29.154C42.5903 29.8942 42.7938 30.1625 43.0621 30.3661C43.0621 30.3661 41.7853 30.5049 41.4522 30.6992C41.591 31.2358 42.1924 31.5689 42.396 31.7724C42.1924 31.976 41.9241 32.3738 41.8593 32.7162C42.4607 32.9845 44.0059 33.4564 44.8849 32.4479C45.218 32.0408 45.6251 32.3091 45.218 32.7809C43.9411 34.5297 40.9896 34.5297 39.9163 33.993C39.9163 35.3346 40.453 35.6029 41.1932 36.1396C39.0466 38.6285 40.453 40.8398 38.9078 42.9863C41.7946 42.9863 43.608 41.4412 44.0799 39.9608C44.1447 40.4975 44.413 40.9693 45.1532 41.0989C45.0884 40.5622 45.292 40.0256 45.5603 39.4242C46.1617 39.896 47.1702 40.0256 48.5858 40.0256C47.0407 37.3424 51.4726 34.5852 49.7239 30.9582C49.4556 30.4216 50.2605 30.0885 50.3253 30.6251C50.7324 33.7154 52.5459 34.4556 54.0818 33.4471C53.6099 32.9105 53.4063 32.9752 53.138 32.5034C54.1465 32.7717 54.6832 32.0315 54.9515 31.097C52.1943 30.2921 53.7394 27.8032 51.9259 25.5271L51.9352 25.5363Z" fill="#2B2A29"/>
<path fill-rule="evenodd" clip-rule="evenodd" d="M23.1973 36.8892L24.067 36.2138C24.2058 36.075 24.3354 36.0102 24.4741 36.075L25.6862 36.2138C25.751 36.4821 25.9545 36.7504 25.9545 36.7504L24.6777 36.4821C24.542 36.4821 24.4063 36.5283 24.2706 36.6209L23.6692 37.0927C23.5304 37.1575 23.5304 37.3611 23.6044 37.4998L23.6692 37.7034L23.2621 38.0365L23.1233 37.7682C22.9197 37.3611 22.9197 37.0927 23.1881 36.8984L23.1973 36.8892ZM25.1403 34.6686C25.2791 34.5298 26.2136 34.9369 26.2136 34.132C26.2784 34.6686 25.6122 35.8807 26.01 36.5469L26.5467 37.4166H24.7332C24.5297 37.4166 24.4649 37.5554 24.4001 37.6201L23.9282 38.6286C23.7895 38.897 23.7895 39.1653 23.993 39.3041L24.3261 39.6372C24.3261 39.6372 24.5944 39.4336 24.6592 39.1005L24.5204 38.9617C24.3816 38.8229 24.3816 38.7582 24.4556 38.6286L24.724 38.0272C24.8627 37.8237 24.9275 37.7589 25.1958 37.8237L26.6762 38.1568C26.815 38.1568 26.9445 38.2215 27.0833 38.092C27.2869 37.7589 27.5552 37.7589 27.8883 37.8237C28.6932 37.9625 30.5067 38.1568 31.1821 37.3518C31.9223 38.3603 33.4675 38.3603 33.3287 38.897L33.0604 40.6457H33.5322L33.8006 38.8322C33.8006 38.6286 33.9394 38.3603 33.7358 38.1568C33.671 38.092 33.597 38.018 33.4027 37.6849C33.1344 37.213 33.1344 36.4728 32.8661 35.8714C33.1344 35.6031 33.4027 35.4643 33.6063 35.5383C34.1429 35.6771 34.2817 36.5468 35.0126 37.3518C34.9479 37.0187 34.8738 36.6764 34.7443 36.3433C34.7443 36.3433 35.281 36.7504 35.4197 37.213C35.4845 37.4813 35.6233 37.7497 35.8916 37.8884C36.0952 37.9532 36.2987 37.8884 36.493 37.6201C36.493 37.6201 36.0211 36.9447 35.6233 36.4821C35.1514 35.8807 34.4852 35.2053 33.5415 35.27C33.2732 35.27 33.0049 35.4088 32.7365 35.6031C31.728 35.0017 30.9231 35.6031 30.59 35.6031L28.647 35.4643C28.2399 35.4643 27.9716 34.9924 27.9716 34.9924C27.9068 33.3825 26.63 32.7071 26.1581 32.7071C26.1581 32.7071 26.2228 32.4388 26.0933 32.3L25.6862 32.8366L24.5482 32.4295L25.4179 33.1697L24.4741 34.243C24.4094 34.3818 24.4094 34.5113 24.4094 34.5761L24.4741 34.7149C24.6129 34.8537 24.6777 34.8537 24.8072 34.7796L25.1403 34.6409V34.6686ZM32.5978 38.7674L31.8576 40.6457H31.3857L32.1259 38.8322C32.1906 38.5639 32.0611 38.4991 31.8576 38.2308C32.1259 38.3696 32.3294 38.4991 32.6625 38.6379C32.6625 38.6379 32.5978 38.7027 32.5978 38.7767V38.7674ZM23.1973 38.5639L24.067 37.8237L23.9282 37.5554C23.8851 37.4197 23.9067 37.3302 23.993 37.287L24.4649 36.954C24.6037 36.8892 24.6684 36.8892 24.798 36.8892L26.1396 37.2223H24.6592C24.3261 37.2223 24.2521 37.3611 24.1226 37.6294L24.0578 37.8329L23.6507 38.5731C23.5119 38.8414 23.4471 39.1745 23.7895 39.5816L24.0578 39.9147L23.5211 40.988H23.993L24.4001 40.2478C24.4001 40.2478 25.0015 39.7112 25.0755 39.1745C24.9368 39.0357 24.8072 38.971 24.872 38.7674L25.0755 38.4343C25.1403 38.2956 25.1403 38.2308 25.2791 38.2956L26.7595 38.6286C26.963 38.6934 27.2314 38.7674 27.3609 38.4899C27.4966 38.311 27.7217 38.2431 28.0363 38.2863L28.7765 38.3511C29.785 38.4158 30.7935 38.2123 31.1914 37.8792C31.3302 38.2123 31.5985 38.4158 31.728 38.6842C31.7928 38.7489 31.728 38.8877 31.6633 39.0913L30.7935 40.9695H32.0704L32.8106 39.156C32.8753 38.9525 32.9493 38.8229 33.0789 38.7489L32.607 40.9695H33.8191L34.1522 38.8229C34.2169 38.3511 34.1522 38.2215 33.9486 38.018C33.412 37.6109 33.412 36.6764 33.2732 36.1397C33.3379 36.075 33.4767 36.075 33.6063 36.075C33.8746 36.075 34.0781 36.8152 34.4112 37.213C35.0126 38.0828 35.8916 39.0913 36.9001 37.6849C36.8354 37.5461 36.6966 37.4166 36.567 37.213L36.2987 36.8799C36.1599 36.6764 35.355 35.8067 35.0219 35.5383C34.2817 34.7981 33.2084 34.9369 32.7365 35.27C31.728 34.7334 30.6547 35.27 30.3864 35.27L28.6377 35.1312C28.573 35.1312 28.4342 35.1312 28.3694 34.9924L28.7025 34.8537C28.4342 33.5768 27.6292 32.5683 26.2876 32.3648C26.2876 32.3648 26.2228 31.9577 26.0193 31.8929L25.6862 32.3648C25.5474 32.3648 25.4827 32.4295 25.3531 32.4295L23.6784 31.8281L24.9553 33.105C24.9553 33.105 24.2798 34.0487 24.0855 34.243C23.9468 34.4466 23.9468 34.5761 24.0855 34.7149L24.3539 35.048C24.4926 35.2515 24.6222 35.1867 24.8257 35.1127L25.0941 34.9739C25.2328 34.8352 25.6307 35.0387 25.7695 34.9092C25.6307 35.2423 25.6307 35.6494 25.5659 35.9177L24.4279 35.7789C24.1596 35.7141 24.0948 35.7789 23.8912 35.9177L23.0215 36.6579C22.6884 36.9262 22.6144 37.3333 22.818 37.7312L23.2251 38.5361L23.1973 38.5639Z" fill="#2B2A29"/>
<path fill-rule="evenodd" clip-rule="evenodd" d="M26.8889 13.9155C27.3608 14.2486 28.1658 14.591 28.1658 14.591V14.0543L26.3523 13.3789C26.3523 13.3789 26.3523 13.5825 26.8889 13.9155Z" fill="#2B2A29"/>
<path fill-rule="evenodd" clip-rule="evenodd" d="M28.1655 13.3139V12.7773L26.1484 12.0371C26.1484 12.0371 26.4168 12.3054 26.8886 12.6385C27.3605 12.9716 28.1655 13.3139 28.1655 13.3139Z" fill="#2B2A29"/>
<path fill-rule="evenodd" clip-rule="evenodd" d="M28.1659 12.0369V11.5003L25.9453 10.6953C25.9453 10.6953 26.4172 11.0284 26.8891 11.4355C27.3609 11.7038 28.1659 12.0369 28.1659 12.0369Z" fill="#2B2A29"/>
<path fill-rule="evenodd" clip-rule="evenodd" d="M34.4756 19.4948H36.7609C36.6962 19.1617 36.2891 18.8193 35.6229 18.8193C35.0215 18.8193 34.6144 19.1524 34.4848 19.4948H34.4756Z" fill="#2B2A29"/>
<path fill-rule="evenodd" clip-rule="evenodd" d="M32.0614 10.6958L29.8408 11.5007V12.0374C29.8408 12.0374 30.6458 11.7043 31.1177 11.3619C31.6543 11.0289 32.0614 10.6865 32.0614 10.6865V10.6958Z" fill="#2B2A29"/>
<path fill-rule="evenodd" clip-rule="evenodd" d="M31.6631 13.3789L29.8496 14.0543V14.591C29.8496 14.591 30.6546 14.2579 31.1264 13.9155C31.6631 13.5825 31.6631 13.3789 31.6631 13.3789Z" fill="#2B2A29"/>
<path fill-rule="evenodd" clip-rule="evenodd" d="M31.8578 12.0371L29.8408 12.7773V13.3139C29.8408 13.3139 30.6458 12.9809 31.1177 12.6385C31.6543 12.2314 31.8578 12.0371 31.8578 12.0371Z" fill="#2B2A29"/>
<path fill-rule="evenodd" clip-rule="evenodd" d="M22.3277 18.8193C21.6523 18.8193 21.3192 19.1524 21.1897 19.4948H23.475C23.3363 19.1617 23.0032 18.8193 22.337 18.8193H22.3277Z" fill="#2B2A29"/>
<path fill-rule="evenodd" clip-rule="evenodd" d="M28.9706 10.4278L25.2789 8.94739C25.612 8.2072 27.0276 7.60579 28.9706 7.60579C30.9136 7.60579 32.3293 8.2072 32.6624 8.94739L28.9706 10.4278ZM31.7279 14.9244L32.5976 9.81712L29.239 10.9552V16.2568L31.7279 14.9152V14.9244ZM34.6146 17.145C33.6709 17.2838 32.8659 18.4219 32.1997 19.4951L32.135 19.6339H31.4595V19.7727C31.3948 20.5777 30.6546 21.6509 28.9706 21.6509C28.2304 21.6509 27.629 21.3826 27.2219 21.1143C26.8889 20.846 26.6853 20.5129 26.5465 20.1706C26.4817 20.0318 26.4817 19.9022 26.4817 19.8375V19.6987H25.8063L25.7416 19.4951C25.0661 18.4866 24.2612 17.3486 23.3267 17.145L25.8803 15.6646L28.9706 17.3393L32.0609 15.6646L34.6146 17.145ZM38.038 21.0403H31.7926C31.4595 21.5122 30.9877 21.8452 30.451 22.0488H30.5158C30.7841 22.3819 31.3208 22.5207 31.7926 22.5207C31.5891 22.9925 31.6538 23.7327 31.9962 24.1306C31.5243 24.6025 31.7279 25.6757 32.4033 26.0088C32.0702 26.9526 32.7364 27.4892 33.6154 27.4892C32.7456 28.0906 32.7456 29.3027 33.8837 29.3027L33.5506 29.571C33.2823 29.571 33.1435 29.571 32.9492 29.3674C32.9492 29.8393 33.4211 30.0429 33.8189 30.1076C33.8189 30.1076 33.6801 30.709 33.6801 31.3197H34.4851C34.2815 30.9866 34.0132 29.9133 34.4203 29.5062C34.4203 29.5062 34.6886 30.9126 34.9569 31.3197H36.169C35.9007 31.0514 35.6324 30.0429 35.9007 29.5062C35.9007 29.5062 36.2338 30.8478 36.7057 31.3197H37.6494V23.2609C37.5846 22.4559 37.7882 21.7157 38.0565 21.0403H38.038ZM37.5661 37.0192C37.5661 38.6939 36.7612 39.9707 35.4843 40.7109L35.9562 39.7672H35.4843L34.9477 40.9792C34.3463 41.1828 33.6061 41.3123 32.8659 41.3123C30.5158 41.3123 29.9144 41.3771 29.0354 42.2561C28.1657 41.3863 27.555 41.3123 25.2049 41.3123C24.4647 41.3123 23.7245 41.1735 23.1231 40.9792L23.7245 39.7672H23.2527L22.716 40.8404C22.5772 40.7757 22.4477 40.7016 22.3829 40.6369L22.79 39.7672H22.3182L21.9851 40.4426C20.9766 39.7024 20.3752 38.5643 20.3752 37.084V31.7823H37.5661V37.0192ZM25.8803 27.4152L26.6205 27.48C26.6853 27.8871 26.5558 28.5532 26.2874 28.8863L25.612 28.6828C25.8156 28.2757 25.8156 27.8778 25.8803 27.4059V27.4152ZM24.8718 26.8786C24.8718 26.8786 25.5473 26.8785 25.7416 26.9433C25.8803 27.0081 25.8063 27.2116 25.6028 27.2116C25.3992 27.1469 24.8626 26.8786 24.8626 26.8786H24.8718ZM24.8071 24.2601L24.2057 26.4067L24.4092 22.9185L25.353 22.1136L25.8248 23.1221L24.6128 26.5455L24.9458 24.2601C24.9458 24.0566 24.8071 24.0566 24.8071 24.2601ZM24.3352 27.8871C24.0021 28.0258 23.7338 27.8223 23.7985 27.6187C23.9373 27.7575 24.3352 27.6835 24.3352 27.6835V27.8871ZM23.7338 28.1554C23.9373 28.2942 24.3352 28.2201 24.3352 28.2201V28.2849C24.1964 28.5532 23.6598 28.4885 23.7338 28.1461V28.1554ZM23.0584 26.749C22.9196 26.6102 22.9936 26.4159 23.1231 26.4159C23.3267 26.4159 23.595 26.6195 23.8633 26.749C23.9281 26.749 23.1879 26.8138 23.0584 26.749ZM23.7338 28.692C23.7338 28.692 23.9373 28.7568 24.2057 28.8308C24.2057 28.9696 24.0669 29.0991 23.8726 29.0991C23.7338 28.9603 23.669 28.8308 23.7338 28.692ZM24.2057 27.3504C24.474 27.2857 24.6128 27.2857 24.7423 27.4892C24.474 27.8223 24.5387 28.433 25.2142 28.6273C25.2789 28.3589 25.4177 27.9518 25.4177 27.6835C25.1494 27.48 25.0106 27.1469 24.8811 27.0821C24.6775 26.9433 24.4092 26.8138 23.743 27.0173C23.743 27.2209 23.8818 27.4892 24.2149 27.3504H24.2057ZM27.1572 27.554L27.8974 27.6187C27.9621 28.0258 27.8326 28.8308 27.5643 29.2287L26.8241 29.0251C27.0924 28.692 27.1572 28.0166 27.1572 27.5447V27.554ZM28.3692 27.6928L28.9706 27.7575C29.0354 28.2294 28.9706 29.0991 28.7023 29.571L28.0269 29.3674C28.2952 29.0344 28.434 28.1554 28.36 27.6928H28.3692ZM29.4425 27.8315C29.6461 27.8315 29.7756 27.8315 29.9144 27.7668C30.2475 28.2387 30.5158 29.2472 30.1179 29.9133C29.9144 29.9133 29.7108 29.8486 29.5165 29.8486L29.3777 29.7838C29.6461 29.3119 29.5813 28.4422 29.4425 27.8408V27.8315ZM30.3122 27.4985L30.7193 27.0914C31.1265 27.4985 31.7279 28.3034 31.5243 29.1084L31.0524 29.5155C30.9877 29.5803 30.8489 29.6543 30.7841 29.719C31.1172 29.0436 30.7841 27.9056 30.3122 27.4985ZM32.8011 27.7668C32.7364 27.9056 32.6624 28.0351 32.5976 28.1739L32.0609 28.6458C32.1997 27.9056 31.6538 27.0358 31.1912 26.6287L31.7279 26.0921L31.8666 26.2309C31.7279 26.7028 32.0702 27.6372 32.8104 27.776L32.8011 27.7668ZM31.4595 24.1398C31.1912 24.6765 31.1912 25.2131 31.5243 25.7498L31.3208 25.9533C30.377 25.8145 30.0439 24.4729 30.0439 24.4729V24.806C29.5073 24.6025 29.1742 24.1306 29.1742 23.4644C29.3777 23.6032 29.5813 23.668 29.8496 23.668L29.9144 23.2609C29.239 23.1221 28.9059 22.7242 28.7763 22.2523H28.7116H29.0447C29.4518 22.2523 29.7849 22.1876 30.1179 22.1136C30.3863 22.5207 30.8581 22.789 31.33 22.789C31.2652 23.1961 31.2652 23.5939 31.4688 24.1306L31.4595 24.1398ZM26.2227 21.0495H19.9773C20.2456 21.725 20.4492 22.4559 20.4492 23.2701V31.329H33.2082C33.2082 31.0606 33.273 30.3852 33.273 30.3852C32.7364 30.1817 32.4681 29.5155 32.5976 28.7753L31.3208 29.9133C30.7193 30.45 30.2475 30.5147 29.572 30.3204L24.6683 28.7753C24.6035 29.0436 24.2612 29.5155 23.8633 29.4507C23.3267 29.3119 23.3267 28.7105 23.5302 28.4422C23.3914 28.3034 23.3914 28.0351 23.595 27.9703C23.3914 27.9056 23.4562 27.6372 23.595 27.5632C23.4562 27.4985 23.4562 27.3597 23.4562 27.2301H23.1879C22.4477 27.2301 22.6513 25.7498 23.4562 26.1569L24.0576 26.4252L24.1964 22.7982L25.6028 21.5862L26.343 23.1961L25.0014 26.5547C26.0099 26.3512 26.343 26.7583 26.2134 27.1561L29.3685 27.4892C29.6368 27.554 30.0439 27.4244 30.3122 27.0821L30.9877 26.2771C30.5158 26.0736 30.1827 25.7405 30.1179 25.2686C29.1094 25.0651 28.7116 24.1306 28.8411 23.1868C28.508 22.9185 28.3045 22.5854 28.2397 22.2431C27.37 22.1043 26.6298 21.6417 26.2227 21.031V21.0495ZM25.353 9.83562L26.2227 14.9429L28.7116 16.2198V10.9182L25.353 9.84487V9.83562ZM33.5506 9.23421C33.5506 7.95738 31.404 6.81934 28.9799 6.81934C26.5558 6.81934 24.4092 7.95738 24.4092 9.23421L24.474 9.5673L25.4177 15.0725L20.921 17.6909C20.4492 17.9592 19.8478 18.7642 19.783 19.5044H20.588C20.7268 18.6994 21.3282 17.8297 22.4662 17.8945C23.5395 17.9592 24.1409 18.5699 24.7515 19.5044L24.8903 19.7727L25.0939 20.1058H18.4414C18.9133 21.1143 19.3852 22.1228 19.3852 23.2609V37.0932C19.3852 40.6554 22.1424 42.3301 25.0939 42.3301C27.3792 42.3301 27.7123 42.1913 28.9244 43.4681C30.2012 42.1913 30.4695 42.3301 32.7549 42.3301C35.7064 42.3301 38.4636 40.6554 38.4636 37.0932V23.2609C38.4636 22.1228 38.9355 21.1143 39.4074 20.1058H32.7549L32.9584 19.7727L33.0972 19.5044C33.6986 18.5606 34.3093 17.9592 35.3826 17.8945C36.5206 17.8297 37.1313 18.6994 37.2608 19.5044H38.0658C38.001 18.6994 37.3903 17.9592 36.9277 17.6909L32.431 15.0725L33.3748 9.5673L33.5783 9.23421H33.5506Z" fill="#2B2A29"/>
<path fill-rule="evenodd" clip-rule="evenodd" d="M37.168 26.2771V25.87C35.9559 25.87 35.6228 24.3896 35.6228 24.3896C35.2897 25.3982 36.2982 26.2031 37.168 26.2679V26.2771Z" fill="#2B2A29"/>
<path fill-rule="evenodd" clip-rule="evenodd" d="M35.6229 28.6914L35.4841 28.2843C34.4108 28.5526 33.8742 26.8779 33.8742 26.8779C33.5411 28.1548 34.7439 29.0245 35.6229 28.6914Z" fill="#2B2A29"/>
<path fill-rule="evenodd" clip-rule="evenodd" d="M36.3634 27.1469C35.0865 27.3505 34.5499 25.8701 34.5499 25.8701C34.4111 26.6751 34.957 27.48 35.762 27.5448C35.5584 28.6181 36.5669 29.1547 37.3719 28.7569L37.2331 28.4238C36.5577 28.6921 35.8915 27.9519 36.3634 27.1469Z" fill="#2B2A29"/>
<path fill-rule="evenodd" clip-rule="evenodd" d="M35.6228 22.9832V22.5761C33.9481 22.243 34.0776 21.0957 34.0776 21.0957C33.7445 22.169 34.679 22.9739 35.6228 22.9739V22.9832Z" fill="#2B2A29"/>
<path fill-rule="evenodd" clip-rule="evenodd" d="M25.0112 39.7764L24.4746 40.9884H24.8725L25.4831 39.7764H25.0112Z" fill="#2B2A29"/>
<path fill-rule="evenodd" clip-rule="evenodd" d="M25.9544 39.7764L25.3438 40.9884H25.8156L26.417 39.7764H25.9544Z" fill="#2B2A29"/>
<path fill-rule="evenodd" clip-rule="evenodd" d="M29.5814 39.7764L28.9707 40.9884H29.3778L29.9792 39.7764H29.5814Z" fill="#2B2A29"/>
<path fill-rule="evenodd" clip-rule="evenodd" d="M30.451 39.7764L29.8496 40.9884H30.3122L30.9229 39.7764H30.451Z" fill="#2B2A29"/>
<path fill-rule="evenodd" clip-rule="evenodd" d="M28.6375 39.7764L28.0361 40.9884H28.4988L29.1094 39.7764H28.6375Z" fill="#2B2A29"/>
<path fill-rule="evenodd" clip-rule="evenodd" d="M33.9395 40.9884H34.3466L34.948 39.7764H34.5501L33.9395 40.9884Z" fill="#2B2A29"/>
<path fill-rule="evenodd" clip-rule="evenodd" d="M26.8241 39.7764L26.2227 40.9884H26.6853L27.2959 39.7764H26.8241Z" fill="#2B2A29"/>
<path fill-rule="evenodd" clip-rule="evenodd" d="M27.7679 39.7764L27.1572 40.9884H27.6291L28.1657 39.7764H27.7679Z" fill="#2B2A29"/>
<path fill-rule="evenodd" clip-rule="evenodd" d="M25.6857 33.2627C25.6209 33.2627 25.5469 33.3275 25.5469 33.4662C25.5469 33.531 25.6116 33.6698 25.6857 33.6698C25.7597 33.6698 25.8244 33.605 25.8244 33.4662C25.8892 33.3275 25.8244 33.2627 25.6857 33.2627Z" fill="#2B2A29"/>
<path fill-rule="evenodd" clip-rule="evenodd" d="M25.5468 5.25476L26.287 3.77438L27.6286 4.44981L29.109 3.04344L30.5894 4.44981L31.931 3.77438L32.6064 5.25476L33.4761 5.11598C33.2726 5.52308 33.069 5.92094 32.9395 6.39281C31.9957 5.85617 30.5894 5.3843 29.109 5.3843C27.6286 5.3843 26.287 5.7914 25.2785 6.39281C25.1397 5.85617 24.9454 5.52308 24.7419 5.11598L25.5468 5.25476ZM28.9702 5.93019C30.8484 5.93019 32.3288 6.5316 33.1338 7.20702C33.1338 7.20702 33.4021 5.72664 34.2071 4.44981L32.7267 4.58859L31.9217 2.91391L30.4413 3.71887L28.961 2.3125L27.4806 3.71887L26.0002 2.91391L25.1952 4.58859L23.7148 4.44981C24.5198 5.72664 24.7881 7.20702 24.7881 7.20702C25.6578 6.5316 27.1382 5.93019 28.9517 5.93019H28.9702Z" fill="#2B2A29"/>
<path fill-rule="evenodd" clip-rule="evenodd" d="M30.5163 2.97008C30.7198 2.97008 30.9234 2.83129 30.9234 2.63699C30.9234 2.44269 30.655 1.83203 30.655 1.83203C30.655 1.83203 30.1832 2.36867 30.1832 2.57222C30.1184 2.77578 30.322 2.97933 30.5163 2.97933V2.97008Z" fill="#2B2A29"/>
<path fill-rule="evenodd" clip-rule="evenodd" d="M32.9306 3.84933C33.1342 3.98812 33.3377 3.84933 33.4673 3.71055C33.606 3.50699 33.532 2.84082 33.532 2.84082C33.532 2.84082 32.9306 3.10914 32.7918 3.31269C32.7271 3.51625 32.7918 3.78457 32.9306 3.84933Z" fill="#2B2A29"/>
<path fill-rule="evenodd" clip-rule="evenodd" d="M27.4992 2.96956C27.7028 2.96956 27.9063 2.76601 27.8323 2.56246C27.8323 2.35891 27.3604 1.82227 27.3604 1.82227C27.3604 1.82227 27.0273 2.42367 27.0273 2.62722C27.0921 2.83078 27.2957 2.96031 27.4992 2.96031V2.96956Z" fill="#2B2A29"/>
<path fill-rule="evenodd" clip-rule="evenodd" d="M25.0112 3.84933C25.2147 3.71055 25.2795 3.51625 25.1499 3.31269C25.0204 3.10914 24.4097 2.84082 24.4097 2.84082C24.4097 2.84082 24.345 3.51625 24.4745 3.71055C24.6133 3.9141 24.8816 3.97887 25.0112 3.84933Z" fill="#2B2A29"/>
<path fill-rule="evenodd" clip-rule="evenodd" d="M52.0744 17.6165C52.2132 17.9496 52.5463 19.2264 51.8061 20.1702C50.9364 18.4215 49.7243 16.9503 48.7806 16.2749C48.577 16.1361 48.9194 15.8678 49.5208 15.803C51.3342 15.4699 53.416 16.2101 54.4245 16.4785C53.9527 16.8115 53.5548 17.0151 53.083 17.0151C53.8231 17.6165 54.3598 18.1531 54.6929 18.6898C53.9527 18.9581 53.5548 18.4862 52.0744 17.6165ZM54.3598 17.2834C54.8964 17.0799 55.3035 16.608 55.4978 16.1454C54.1562 15.9418 50.6588 14.4707 47.7721 15.6735C48.8453 14.665 49.8539 14.5355 49.9186 13.0551C50.3905 13.3882 51.1307 13.5917 51.5285 12.7867C51.2602 11.917 50.4553 12.648 50.3905 12.3796C50.2517 12.0466 51.3342 12.5184 51.6026 11.3711C50.7328 11.1028 50.4645 11.7782 50.3257 11.6395C50.1869 11.5007 50.8624 11.1676 50.3905 10.2979C49.5208 10.8345 49.9834 11.3711 49.7891 11.4359C49.456 11.4359 49.6503 10.7605 48.651 10.7605C48.5863 11.8338 49.5948 11.8338 49.3912 12.0373C49.1877 12.2409 48.9194 11.4359 48.1792 11.8338C48.1792 12.7035 48.8546 13.1753 49.5855 12.9718C49.4468 14.5817 47.9756 14.3134 46.9023 16.1269C49.2525 17.3389 50.3257 19.4207 51.7414 20.8919C52.2132 20.5588 53.0182 19.0784 53.0182 19.0784C54.5633 20.2904 55.7014 19.0784 55.7014 19.0784C55.1647 18.477 55.1647 18.0051 54.3598 17.2649V17.2834Z" fill="#2B2A29"/>
<path fill-rule="evenodd" clip-rule="evenodd" d="M33.6058 46.9655L32.8008 44.3471C34.4755 44.014 35.6876 43.6069 36.5573 43.2738V44.8837L37.9637 45.4204C36.8256 46.0218 35.3453 46.5584 33.5966 46.9655H33.6058ZM28.9704 48.4459C30.5155 48.4459 32.0607 48.1776 33.4023 47.9092L32.5325 45.2261C31.9959 45.3648 30.5895 45.4944 28.9056 45.4944C27.2216 45.4944 25.88 45.2908 25.2786 45.2261L24.4737 47.9092C25.88 48.2423 27.4252 48.4459 28.9704 48.4459ZM20.0418 45.4944L21.4481 44.9577V43.3478C22.3179 43.6809 23.5299 44.088 25.2046 44.4211L24.3997 46.9748C22.651 46.5677 21.1798 46.031 20.0325 45.4944H20.0418ZM37.0292 44.6246V42.6816C35.484 43.3571 33.541 43.9585 31.0521 44.162L30.9134 44.9022C31.1169 44.9022 31.3852 44.967 31.7831 44.967C30.8393 45.1058 29.6365 45.1705 29.0259 45.1705C28.3504 45.1705 27.1476 45.1058 26.2686 44.967C26.6017 44.967 26.8701 44.9022 27.0736 44.9022L26.9348 44.162C24.4459 43.9585 22.5029 43.3571 20.9578 42.6816V44.6246L18.876 45.4944C20.4211 46.2993 22.1698 46.9748 24.2516 47.4374L23.9833 48.2423C25.1214 48.5754 27.0088 48.9178 28.9518 48.9178C30.8948 48.9178 32.7823 48.5847 33.9204 48.2423L33.7168 47.4374C35.7339 46.9007 37.5473 46.2253 39.0925 45.4944L37.0107 44.6246H37.0292Z" fill="#2B2A29"/>
<path fill-rule="evenodd" clip-rule="evenodd" d="M3.32245 18.7542C3.72956 18.1528 4.2662 17.6809 4.93237 17.0795C4.4605 17.0147 4.06264 16.876 3.59077 16.5429C4.59928 16.2746 6.68107 15.5344 8.49455 15.8674C9.09595 15.9322 9.43829 16.2005 9.23474 16.3393C8.29099 17.0147 7.08818 18.4859 6.2092 20.2346C5.46901 19.2908 5.73733 18.014 5.94088 17.6809C4.39573 18.4859 3.99788 18.9578 3.32245 18.7542ZM4.93237 19.0225C4.93237 19.0225 5.73733 20.5029 6.2092 20.836C7.61557 19.3556 8.6981 17.2738 11.0482 16.071C9.97493 14.2575 8.42978 14.5259 8.36501 12.9159C9.10521 13.1195 9.77138 12.6476 9.77138 11.7779C9.03119 11.3708 8.76287 12.185 8.55931 11.9814C8.42053 11.7779 9.42904 11.7779 9.29951 10.7046C8.29099 10.7046 8.49455 11.38 8.29099 11.306C8.08744 11.232 8.55931 10.6306 7.68959 10.168C7.21771 11.1117 7.89314 11.38 7.75435 11.5096C7.61557 11.6484 7.34725 10.9729 6.47752 11.2412C6.68108 12.3793 7.81912 11.9167 7.68959 12.2498C7.5508 12.6569 6.81986 11.9167 6.47752 12.7864C6.88463 13.5266 7.68959 13.3878 8.08744 13.0547C8.15221 14.5351 9.16072 14.6646 10.234 15.6731C7.41201 14.4611 3.84984 15.9415 2.50824 16.145C2.71179 16.6169 3.10965 17.0888 3.64629 17.2831C2.84133 18.0233 2.84133 18.4951 2.30469 19.0318C2.30469 19.0318 3.37797 20.2438 4.92312 19.0318L4.93237 19.0225Z" fill="#2B2A29"/>
<path fill-rule="evenodd" clip-rule="evenodd" d="M27.768 17.8848V18.7545C28.0364 18.4214 28.6378 18.4862 28.6378 18.4862V19.763C28.6378 19.763 28.6378 20.3644 28.3694 20.6327H29.6463C29.4427 20.3644 29.378 19.763 29.378 19.763V18.4862C29.378 18.4862 29.9794 18.4214 30.2477 18.7545V17.8848H27.7588H27.768Z" fill="#2B2A29"/>
</svg>
