<svg width="124" height="146" viewBox="0 0 124 146" fill="none" xmlns="http://www.w3.org/2000/svg">
<g filter="url(#filter0_bd_1849_2850)">
<path d="M62 0L120 34.5V103.5L62 138L4 103.5V34.5L62 0Z" fill="url(#paint0_linear_1849_2850)" fill-opacity="0.5" shape-rendering="crispEdges"/>
<path d="M5 35.0687L62 1.16354L119 35.0687V102.931L62 136.836L5 102.931V35.0687Z" stroke="url(#paint1_linear_1849_2850)" stroke-opacity="0.5" stroke-width="2" shape-rendering="crispEdges"/>
</g>
<path d="M83.7656 76.0156C79.1062 76.0156 74.3906 77.6258 74.3906 80.7031V86.8766C69.2344 84.0746 57.9844 85.3062 57.9844 90.0781V101.797C57.9844 104.874 62.7 106.484 67.3594 106.484C72.0188 106.484 76.7344 104.874 76.7344 101.797V101.463C78.7594 102.576 81.4629 102.969 83.7656 102.969C88.425 102.969 93.1406 101.359 93.1406 98.2812V80.7031C93.1406 77.6258 88.425 76.0156 83.7656 76.0156ZM90.7969 92.4219C90.7969 94.1012 83.1445 95.9551 78.3035 93.7777C77.2195 93.2891 76.7344 92.7441 76.7344 92.4219C76.7156 89.9902 76.7719 90.309 76.7004 89.7266C78.7313 90.8563 81.4605 91.25 83.7656 91.25C86.3695 91.25 88.991 90.7461 90.7969 89.7641V92.4219ZM60.3281 93.2797C63.9703 95.2578 70.7473 95.259 74.3906 93.2797V95.9375C74.3906 96.7637 71.7211 98.2812 67.3594 98.2812C62.9977 98.2812 60.3281 96.7637 60.3281 95.9375V93.2797ZM90.7969 86.5625C90.7969 88.2102 83.3238 90.0875 78.4078 87.9629H78.4066C77.2512 87.4637 76.7344 86.9 76.7344 86.5625V83.9047C80.3766 85.8828 87.1535 85.884 90.7969 83.9047V86.5625ZM83.7656 78.3594C88.1273 78.3594 90.7969 79.877 90.7969 80.7031C90.7969 81.5293 88.1273 83.0469 83.7656 83.0469C79.4039 83.0469 76.7344 81.5293 76.7344 80.7031C76.7344 79.877 79.4039 78.3594 83.7656 78.3594ZM67.3594 87.7344C71.7211 87.7344 74.3906 89.252 74.3906 90.0781C74.3906 90.9043 71.7211 92.4219 67.3594 92.4219C62.9977 92.4219 60.3281 90.9043 60.3281 90.0781C60.3281 89.252 62.9977 87.7344 67.3594 87.7344ZM67.3594 104.141C62.9977 104.141 60.3281 102.623 60.3281 101.797V99.1391C63.9703 101.117 70.7473 101.118 74.3906 99.1391V101.797C74.3906 102.623 71.7211 104.141 67.3594 104.141ZM78.4266 99.6898C77.2641 99.1918 76.7344 98.6105 76.7344 98.2812V95.5988C80.4727 97.6625 87.2402 97.5559 90.7969 95.6246V98.2812C90.7969 99.9324 83.332 101.792 78.4266 99.6898Z" fill="white"/>
<path d="M54.4688 92.4221H38.0625C36.1242 92.4221 34.5469 90.8447 34.5469 88.9064V54.9221H79.0781V72.5002C79.0781 72.811 79.2016 73.1091 79.4214 73.3288C79.6411 73.5486 79.9392 73.6721 80.25 73.6721C80.5608 73.6721 80.8589 73.5486 81.0786 73.3288C81.2984 73.1091 81.4219 72.811 81.4219 72.5002V54.7064C82.1053 54.4655 82.6975 54.019 83.1172 53.4282C83.5368 52.8373 83.7633 52.1311 83.7656 51.4064V46.7189C83.7656 44.7807 82.1883 43.2033 80.25 43.2033H73.2188V42.0314C73.2188 37.3791 66.1875 37.3838 66.1875 42.0314V43.2033H47.4375V42.0314C47.4375 37.3791 40.4062 37.3838 40.4062 42.0314V43.2033H33.375C31.4367 43.2033 29.8594 44.7807 29.8594 46.7189V51.4064C29.8594 52.9322 30.8426 54.2213 32.2031 54.7064V88.9064C32.2031 92.1373 34.8316 94.7658 38.0625 94.7658H54.4688C56.018 94.7658 56.0203 92.4221 54.4688 92.4221ZM68.5312 42.0314C68.5312 40.4799 70.875 40.4822 70.875 42.0314V47.8908C70.875 49.4424 68.5312 49.44 68.5312 47.8908V42.0314ZM42.75 42.0314C42.75 40.4799 45.0938 40.4822 45.0938 42.0314V47.8908C45.0938 49.4424 42.75 49.44 42.75 47.8908V42.0314ZM32.2031 46.7189C32.2031 46.0732 32.7293 45.5471 33.375 45.5471H40.4062V47.8908C40.4062 52.5432 47.4375 52.5385 47.4375 47.8908V45.5471H66.1875V47.8908C66.1875 52.5432 73.2188 52.5385 73.2188 47.8908V45.5471H80.25C80.8957 45.5471 81.4219 46.0732 81.4219 46.7189V51.4064C81.4219 52.0521 80.8957 52.5783 80.25 52.5783H33.375C32.7293 52.5783 32.2031 52.0521 32.2031 51.4064V46.7189Z" fill="white"/>
<path d="M54.4688 86.5625V81.875H59.1562V83.0469C59.1562 84.5961 61.5 84.5984 61.5 83.0469V81.875H66.1875C66.1875 83.4242 68.5312 83.4266 68.5312 81.875H70.875C71.1858 81.875 71.4839 81.7515 71.7036 81.5318C71.9234 81.312 72.0469 81.0139 72.0469 80.7031C72.0469 80.3923 71.9234 80.0943 71.7036 79.8745C71.4839 79.6547 71.1858 79.5312 70.875 79.5312H68.5312V74.8438H73.2188C73.2188 76.393 75.5625 76.3953 75.5625 74.8438V59.6094C75.5625 59.2986 75.439 59.0005 75.2193 58.7807C74.9995 58.561 74.7014 58.4375 74.3906 58.4375H39.2344C38.9236 58.4375 38.6255 58.561 38.4057 58.7807C38.186 59.0005 38.0625 59.2986 38.0625 59.6094V87.7344C38.0625 88.0452 38.186 88.3432 38.4057 88.563C38.6255 88.7828 38.9236 88.9062 39.2344 88.9062H54.4688C56.018 88.9062 56.0203 86.5625 54.4688 86.5625ZM52.125 86.5625H47.4375V81.875H52.125V86.5625ZM61.5 67.8125H66.1875V72.5H61.5V67.8125ZM59.1562 72.5H54.4688V67.8125H59.1562V72.5ZM61.5 65.4688V60.7812H66.1875V65.4688H61.5ZM59.1562 65.4688H54.4688V60.7812H59.1562V65.4688ZM52.125 65.4688H47.4375V60.7812H52.125V65.4688ZM52.125 67.8125V72.5H47.4375V67.8125H52.125ZM45.0938 72.5H40.4062V67.8125H45.0938V72.5ZM40.4062 74.8438H45.0938V79.5312H40.4062V74.8438ZM47.4375 74.8438H52.125V79.5312H47.4375V74.8438ZM54.4688 79.5312V74.8438H59.1562V79.5312H54.4688ZM66.1875 79.5312H61.5V74.8438H66.1875V79.5312ZM68.5312 72.5V67.8125H73.2188V72.5H68.5312ZM73.2188 65.4688H68.5312V60.7812H73.2188V65.4688ZM40.4062 60.7812H45.0938V65.4688H40.4062V60.7812ZM40.4062 81.875H45.0938V86.5625H40.4062V81.875Z" fill="white"/>
<defs>
<filter id="filter0_bd_1849_2850" x="-8" y="-12" width="140" height="162" filterUnits="userSpaceOnUse" color-interpolation-filters="sRGB">
<feFlood flood-opacity="0" result="BackgroundImageFix"/>
<feGaussianBlur in="BackgroundImageFix" stdDeviation="6"/>
<feComposite in2="SourceAlpha" operator="in" result="effect1_backgroundBlur_1849_2850"/>
<feColorMatrix in="SourceAlpha" type="matrix" values="0 0 0 0 0 0 0 0 0 0 0 0 0 0 0 0 0 0 127 0" result="hardAlpha"/>
<feOffset dy="4"/>
<feGaussianBlur stdDeviation="2"/>
<feComposite in2="hardAlpha" operator="out"/>
<feColorMatrix type="matrix" values="0 0 0 0 0 0 0 0 0 0 0 0 0 0 0 0 0 0 0.1 0"/>
<feBlend mode="normal" in2="effect1_backgroundBlur_1849_2850" result="effect2_dropShadow_1849_2850"/>
<feBlend mode="normal" in="SourceGraphic" in2="effect2_dropShadow_1849_2850" result="shape"/>
</filter>
<linearGradient id="paint0_linear_1849_2850" x1="122.113" y1="118.594" x2="10.2771" y2="13.8752" gradientUnits="userSpaceOnUse">
<stop offset="0.0145959" stop-color="#0BB0EB" stop-opacity="0.77"/>
<stop offset="1" stop-color="#B6F2FF" stop-opacity="0.09"/>
</linearGradient>
<linearGradient id="paint1_linear_1849_2850" x1="13.9799" y1="14.4948" x2="91.6398" y2="135.924" gradientUnits="userSpaceOnUse">
<stop stop-color="white"/>
<stop offset="1" stop-opacity="0"/>
</linearGradient>
</defs>
</svg>
