<svg width="123" height="140" viewBox="0 0 123 140" fill="none" xmlns="http://www.w3.org/2000/svg">
<g filter="url(#filter0_d_1849_2835)">
<path d="M61.1577 0L118.315 33V99L61.1577 132L4 99V33L61.1577 0Z" fill="url(#paint0_linear_1849_2835)" fill-opacity="0.4" shape-rendering="crispEdges"/>
<path d="M5 33.5774L61.1577 1.1547L117.315 33.5774V98.4226L61.1577 130.845L5 98.4226V33.5774Z" stroke="url(#paint1_linear_1849_2835)" stroke-opacity="0.3" stroke-width="2" shape-rendering="crispEdges"/>
</g>
<g filter="url(#filter1_d_1849_2835)">
<path d="M97.0896 48.6838H97.0893L97.0868 48.6813L92.2458 47.9906C92.002 47.9559 91.7741 47.8497 91.5908 47.6854C91.4074 47.5211 91.2769 47.3062 91.2158 47.0677C91.1546 46.8293 91.1656 46.578 91.2472 46.3458C91.3289 46.1135 91.4776 45.9107 91.6745 45.763L95.5872 42.8285C95.8512 42.6305 96.0258 42.3357 96.0725 42.009C96.1191 41.6822 96.0341 41.3503 95.8361 41.0863L91.356 35.1128C91.1579 34.8487 90.8631 34.6742 90.5364 34.6275C90.2096 34.5808 89.8777 34.6658 89.6137 34.8639L85.7023 37.7984C85.5055 37.9477 85.2687 38.0351 85.0221 38.0494C84.7754 38.0637 84.5301 38.0042 84.3174 37.8787C84.1046 37.7531 83.9341 37.567 83.8274 37.3441C83.7208 37.1213 83.6829 36.8718 83.7186 36.6273L84.4105 31.7863C84.4337 31.6245 84.4248 31.4597 84.3844 31.3014C84.3439 31.1431 84.2726 30.9942 84.1747 30.8634C84.0767 30.7326 83.9539 30.6224 83.8133 30.5391C83.6727 30.4557 83.5171 30.4009 83.3553 30.3777L83.3539 30.3775L75.9667 29.3222C75.8049 29.299 75.6402 29.3078 75.4818 29.3483C75.3235 29.3887 75.1747 29.46 75.0438 29.5579C74.913 29.6559 74.8028 29.7787 74.7194 29.9193C74.6361 30.0598 74.5812 30.2154 74.558 30.3772V30.3775L73.866 35.2186C73.8313 35.4623 73.7251 35.6902 73.5608 35.8736C73.3965 36.0569 73.1816 36.1874 72.9431 36.2485C72.7046 36.3097 72.4534 36.2987 72.2212 36.2171C71.9889 36.1354 71.7861 35.9867 71.6384 35.7898L68.7052 31.8771C68.5071 31.6131 68.2123 31.4385 67.8856 31.3918C67.5589 31.3452 67.227 31.4302 66.9629 31.6282L63.2232 34.4345C61.5314 34.2547 59.8252 34.2547 58.1333 34.4345C47.0534 35.7009 38.3646 44.5371 37.2846 55.6367C37.251 55.9889 37.2385 56.3386 37.2211 56.6883H36.8477C36.5613 56.6888 36.2838 56.7882 36.062 56.9695C35.8403 57.1509 35.6879 57.4032 35.6306 57.6839L34.7707 61.7733L31.326 59.3975C31.0864 59.2322 30.7964 59.1561 30.5065 59.1825C30.2166 59.2089 29.9451 59.3361 29.7393 59.5419L26.0058 63.2753C25.8003 63.4811 25.6733 63.7523 25.647 64.042C25.6206 64.3316 25.6965 64.6213 25.8615 64.8608L28.226 68.2993L24.1354 69.1592C23.8577 69.2201 23.6092 69.3741 23.4313 69.5958C23.2533 69.8174 23.1566 70.0933 23.1572 70.3776V75.3555C23.1571 75.6411 23.2552 75.9181 23.4352 76.14C23.6151 76.3618 23.8658 76.515 24.1453 76.5739L28.236 77.4338L25.8714 80.8723C25.7065 81.1118 25.6306 81.4015 25.6569 81.6911C25.6833 81.9807 25.8103 82.252 26.0158 82.4578L29.7492 86.1912C29.9551 86.397 30.2266 86.5242 30.5165 86.5506C30.8064 86.577 31.0963 86.5009 31.3359 86.3356L34.7744 83.9648L35.6344 88.0554C35.6917 88.3361 35.844 88.5884 36.0658 88.7698C36.2875 88.9512 36.565 89.0505 36.8515 89.051H41.8294C42.115 89.0511 42.392 88.953 42.6139 88.7731C42.8357 88.5932 42.9889 88.3424 43.0477 88.0629L43.9077 83.9723L47.3462 86.3368C47.5857 86.5018 47.8754 86.5777 48.165 86.5513C48.4546 86.5249 48.7259 86.398 48.9316 86.1924L50.8643 84.2535V87.8003C50.8671 88.6702 51.0985 89.5241 51.5353 90.2763C51.9722 91.0286 52.5991 91.6528 53.3533 92.0863V99.0006C53.3533 101.75 55.582 103.979 58.3312 103.979H63.3091C66.0583 103.979 68.287 101.75 68.287 99.0006V92.0863C69.0412 91.6528 69.6682 91.0286 70.105 90.2763C70.5418 89.5241 70.7732 88.6702 70.776 87.8003V82.8747C70.7926 81.8547 71.0648 80.8553 71.5677 79.9678C72.0706 79.0803 72.7881 78.3331 73.6545 77.7947C74.6873 77.1246 75.6667 76.3757 76.584 75.5546L74.9238 73.7004C74.1033 74.4358 73.2266 75.1061 72.3017 75.7052C71.0857 76.4684 70.0808 77.5248 69.3793 78.7775C68.6779 80.0302 68.3023 81.439 68.287 82.8747V87.8003C68.287 89.175 67.1728 90.2893 65.7981 90.2893H55.8422C54.4676 90.2893 53.3533 89.175 53.3533 87.8003V82.7714C53.3391 81.3631 52.9699 79.9811 52.2799 78.7534C51.5899 77.5257 50.6014 76.4918 49.4058 75.7475C39.5422 69.5497 36.5704 56.5295 42.7682 46.6659C44.6602 43.6549 47.2827 41.171 50.392 39.4453C53.5013 37.7196 56.9965 36.808 60.5526 36.7953C60.534 36.8396 60.5178 36.8849 60.5041 36.931C60.4579 37.2577 60.5434 37.5894 60.7418 37.8531L63.675 41.7645C63.826 41.96 63.9141 42.1969 63.9274 42.4436C63.9407 42.6903 63.8788 42.9352 63.7497 43.1459C63.6253 43.3581 63.4404 43.5284 63.2187 43.635C62.9971 43.7416 62.7486 43.7797 62.5052 43.7445L57.6642 43.0526C57.5024 43.0293 57.3376 43.0382 57.1793 43.0787C57.0209 43.1192 56.8721 43.1904 56.7413 43.2884C56.6105 43.3864 56.5003 43.5092 56.417 43.6497C56.3336 43.7903 56.2788 43.9459 56.2556 44.1077L56.2554 44.1091L55.1988 51.5001C55.152 51.8268 55.2369 52.1587 55.4347 52.4229C55.6326 52.687 55.9273 52.8618 56.254 52.9087L56.2554 52.9088L61.0964 53.6008C61.3401 53.6355 61.5681 53.7417 61.7514 53.906C61.9348 54.0703 62.0653 54.2852 62.1264 54.5237C62.1876 54.7622 62.1766 55.0134 62.095 55.2456C62.0133 55.4779 61.8646 55.6807 61.6676 55.8284L57.7562 58.7616C57.4922 58.9597 57.3176 59.2545 57.271 59.5812C57.2243 59.9079 57.3093 60.2398 57.5074 60.5039L61.9875 66.4774C62.1855 66.7414 62.4803 66.916 62.8071 66.9627C63.1338 67.0094 63.4657 66.9243 63.7298 66.7263L67.6424 63.793C67.8393 63.6458 68.0754 63.5602 68.3209 63.547C68.5664 63.5338 68.8103 63.5936 69.0218 63.7189C69.2333 63.8442 69.403 64.0293 69.5095 64.2509C69.6159 64.4725 69.6543 64.7207 69.6199 64.9641L68.9292 69.8051C68.906 69.9669 68.9148 70.1317 68.9553 70.29C68.9957 70.4484 69.067 70.5972 69.1649 70.728C69.2629 70.8588 69.3857 70.9691 69.5262 71.0524C69.6668 71.1358 69.8224 71.1907 69.9842 71.2139H69.9845L77.3767 72.2704C77.4349 72.2779 77.4935 72.2816 77.5522 72.2816C77.8519 72.282 78.1416 72.1742 78.3682 71.978C78.5947 71.7819 78.7429 71.5105 78.7855 71.2139L79.4762 66.3729C79.5109 66.1291 79.6171 65.9012 79.7814 65.7178C79.9457 65.5345 80.1606 65.404 80.3991 65.3429C80.6375 65.2817 80.8888 65.2927 81.121 65.3743C81.3533 65.456 81.5561 65.6047 81.7038 65.8016L84.6383 69.713C84.8363 69.9771 85.1311 70.1516 85.4578 70.1983C85.7846 70.245 86.1165 70.16 86.3805 69.9619L92.354 65.4818C92.6181 65.2838 92.7926 64.989 92.8393 64.6622C92.886 64.3355 92.801 64.0036 92.6029 63.7395L89.6697 59.8281C89.5193 59.6323 89.4316 59.3956 89.4183 59.149C89.405 58.9025 89.4666 58.6576 89.595 58.4468C89.7166 58.232 89.9011 58.0597 90.1236 57.9529C90.346 57.8461 90.5959 57.81 90.8395 57.8494L95.6805 58.5401C95.8423 58.5633 96.0071 58.5545 96.1654 58.514C96.3238 58.4736 96.4726 58.4023 96.6034 58.3044C96.7342 58.2064 96.8445 58.0836 96.9278 57.9431C97.0112 57.8025 97.066 57.6469 97.0893 57.4851V57.4848L98.1446 50.0926C98.1678 49.9308 98.159 49.766 98.1185 49.6077C98.0781 49.4493 98.0068 49.3005 97.9089 49.1697C97.8109 49.0389 97.6881 48.9286 97.5475 48.8453C97.407 48.7619 97.2514 48.707 97.0896 48.6838ZM55.8422 92.7782H65.7981V95.2672H55.8422V92.7782ZM55.8422 97.7561H65.7981V99.0006C65.7981 100.375 64.6838 101.49 63.3091 101.49H58.3312C56.9565 101.49 55.8422 100.375 55.8422 99.0006V97.7561ZM45.9349 76.2951C46.6144 76.8508 47.3245 77.3681 48.0618 77.8445C49.2376 78.5876 50.1228 79.7118 50.5694 81.0291L47.9 83.6935L45.3152 81.9114C44.1833 81.1315 42.6335 81.4167 41.8534 82.5486C41.6664 82.82 41.5351 83.1258 41.4673 83.4484L40.8151 86.5558H37.857L37.2049 83.4533C36.9218 82.1082 35.6019 81.2472 34.2567 81.5303C33.9342 81.5982 33.6284 81.7294 33.357 81.9164L30.771 83.6935L28.5035 81.4311L30.2844 78.8475C31.0651 77.7161 30.7808 76.1661 29.6494 75.3854C29.3778 75.1979 29.0716 75.0663 28.7487 74.9983L25.6462 74.345V71.3881L28.7487 70.7348C30.0933 70.4496 30.9523 69.1284 30.6672 67.7836C30.5996 67.4646 30.4699 67.162 30.2856 66.893L28.5035 64.302L30.771 62.0396L33.3582 63.8217C34.4905 64.6009 36.0404 64.3146 36.8196 63.1823C37.0063 62.9112 37.1372 62.6057 37.2049 62.2835L37.4227 61.2481C37.6221 62.682 37.9524 64.0945 38.4096 65.4681C34.3148 65.9563 31.391 69.6717 31.8792 73.7665C32.3673 77.8613 36.0827 80.785 40.1775 80.2969C41.3914 80.1521 42.5512 79.7115 43.5551 79.0137C44.559 78.316 45.3762 77.3824 45.9349 76.2951ZM44.0023 74.5416C43.0729 77.1247 40.2257 78.4653 37.6427 77.5361C35.0596 76.6068 33.719 73.7596 34.6481 71.1765C34.9951 70.2121 35.6317 69.3785 36.4708 68.7899C37.3098 68.2013 38.3104 67.8865 39.3353 67.8886H39.3826C40.527 70.3563 42.09 72.6071 44.0023 74.5416ZM94.7945 55.8968L91.1855 55.3816C89.1442 55.0901 87.2532 56.5086 86.9617 58.5497C86.8217 59.5299 87.0768 60.5257 87.6711 61.3178L89.8576 64.2336L85.8753 67.2203L83.6875 64.3058C82.4505 62.6561 80.1104 62.3215 78.4608 63.5585C77.6687 64.1525 77.1449 65.0368 77.0046 66.0169L76.5006 69.6309L71.5737 68.9265L72.0889 65.3175C72.3812 63.2764 70.9634 61.3848 68.9223 61.0927C68.4367 61.0231 67.9422 61.05 67.467 61.1716C66.9917 61.2933 66.5452 61.5075 66.1528 61.8019L63.2369 63.9884L60.2502 60.0061L63.1648 57.8183C64.8145 56.5813 65.1491 54.2412 63.9121 52.5916C63.3181 51.7995 62.4337 51.2757 61.4536 51.1354L57.8446 50.6202L58.549 45.6933L62.158 46.2086C64.1991 46.5008 66.0907 45.0831 66.3828 43.042C66.4524 42.5564 66.4256 42.0618 66.3039 41.5866C66.1822 41.1114 65.968 40.6648 65.6736 40.2724L63.4796 37.3541L67.4619 34.3673L69.6497 37.2831C70.8868 38.9329 73.2268 39.2675 74.8764 38.0305C75.6685 37.4364 76.1923 36.5521 76.3326 35.572L76.8478 31.963L81.7747 32.6661L81.2595 36.2751C80.968 38.3164 82.3864 40.2074 84.4276 40.4989C85.4078 40.6389 86.4035 40.3838 87.1957 39.7895L90.1115 37.603L93.0982 41.5853L90.1824 43.7731C88.5327 45.0101 88.1981 47.3502 89.4351 48.9998C90.0291 49.7919 90.9134 50.3157 91.8936 50.456L95.5026 50.9712L94.7945 55.8968Z" fill="white"/>
<path d="M76.6696 40.8387C71.1712 40.8387 66.7138 45.2961 66.7138 50.7946C66.7138 56.293 71.1712 60.7504 76.6696 60.7504C82.168 60.7504 86.6254 56.293 86.6254 50.7946C86.6192 45.2986 82.1655 40.8448 76.6696 40.8387ZM76.6696 58.2614C72.5457 58.2614 69.2027 54.9185 69.2027 50.7946C69.2027 46.6707 72.5457 43.3277 76.6696 43.3277C80.7935 43.3277 84.1365 46.6707 84.1365 50.7946C84.1316 54.9164 80.7915 58.2566 76.6696 58.2614ZM59.5754 84.067H62.0644V87.8004H59.5754V84.067ZM55.3765 71.8449C47.6942 68.8439 43.8993 60.1832 46.9005 52.5009C48.0635 49.5242 50.1506 46.999 52.8552 45.2965L51.5249 43.1908C43.3835 48.3198 40.9414 59.0775 46.0703 67.2189C48.0567 70.372 51.0018 72.8051 54.473 74.1609C57.5457 75.3382 59.5746 78.2876 59.5754 81.578H62.0644C62.0683 77.2609 59.4079 73.3892 55.3765 71.8449ZM84.465 75.3556H93.1764V77.8446H84.465V75.3556ZM82.4242 83.7778L84.0173 81.8655L91.4848 88.087L89.8916 89.9991L82.4242 83.7778ZM76.9981 85.3115H79.4871V94.0228H76.9981V85.3115ZM24.4277 50.502L34.3829 48.0136L34.9862 50.4268L25.031 52.9155L24.4277 50.502ZM26.495 37.7899L27.9409 35.7656L36.6515 41.9874L35.2057 44.0117L26.495 37.7899ZM37.1578 29.6165L39.569 29L42.1144 38.9551L39.7033 39.5715L37.1578 29.6165Z" fill="white"/>
</g>
<defs>
<filter id="filter0_d_1849_2835" x="0" y="0" width="122.315" height="140" filterUnits="userSpaceOnUse" color-interpolation-filters="sRGB">
<feFlood flood-opacity="0" result="BackgroundImageFix"/>
<feColorMatrix in="SourceAlpha" type="matrix" values="0 0 0 0 0 0 0 0 0 0 0 0 0 0 0 0 0 0 127 0" result="hardAlpha"/>
<feOffset dy="4"/>
<feGaussianBlur stdDeviation="2"/>
<feComposite in2="hardAlpha" operator="out"/>
<feColorMatrix type="matrix" values="0 0 0 0 0 0 0 0 0 0 0 0 0 0 0 0 0 0 0.25 0"/>
<feBlend mode="normal" in2="BackgroundImageFix" result="effect1_dropShadow_1849_2835"/>
<feBlend mode="normal" in="SourceGraphic" in2="effect1_dropShadow_1849_2835" result="shape"/>
</filter>
<filter id="filter1_d_1849_2835" x="19.1572" y="29" width="83" height="82.9785" filterUnits="userSpaceOnUse" color-interpolation-filters="sRGB">
<feFlood flood-opacity="0" result="BackgroundImageFix"/>
<feColorMatrix in="SourceAlpha" type="matrix" values="0 0 0 0 0 0 0 0 0 0 0 0 0 0 0 0 0 0 127 0" result="hardAlpha"/>
<feOffset dy="4"/>
<feGaussianBlur stdDeviation="2"/>
<feComposite in2="hardAlpha" operator="out"/>
<feColorMatrix type="matrix" values="0 0 0 0 0 0 0 0 0 0 0 0 0 0 0 0 0 0 0.25 0"/>
<feBlend mode="normal" in2="BackgroundImageFix" result="effect1_dropShadow_1849_2835"/>
<feBlend mode="normal" in="SourceGraphic" in2="effect1_dropShadow_1849_2835" result="shape"/>
</filter>
<linearGradient id="paint0_linear_1849_2835" x1="120.397" y1="113.437" x2="13.2619" y2="10.0833" gradientUnits="userSpaceOnUse">
<stop offset="0.0145959" stop-color="#D744BF"/>
<stop offset="1" stop-color="white" stop-opacity="0.27"/>
</linearGradient>
<linearGradient id="paint1_linear_1849_2835" x1="13.8348" y1="13.8646" x2="87.1681" y2="132" gradientUnits="userSpaceOnUse">
<stop stop-color="white"/>
<stop offset="1" stop-opacity="0"/>
</linearGradient>
</defs>
</svg>
