<svg width="123" height="140" viewBox="0 0 123 140" fill="none" xmlns="http://www.w3.org/2000/svg">
<g filter="url(#filter0_bd_1849_2843)">
<path d="M61.1577 0L118.315 33V99L61.1577 132L4 99V33L61.1577 0Z" fill="url(#paint0_linear_1849_2843)" fill-opacity="0.4" shape-rendering="crispEdges"/>
<path d="M5 33.5774L61.1577 1.1547L117.315 33.5774V98.4226L61.1577 130.845L5 98.4226V33.5774Z" stroke="url(#paint1_linear_1849_2843)" stroke-opacity="0.3" stroke-width="2" shape-rendering="crispEdges"/>
</g>
<path d="M92.2979 45.5782H89.9541V44.4063H91.126C92.0584 44.4063 92.9526 44.0359 93.6119 43.3766C94.2712 42.7173 94.6416 41.8231 94.6416 40.8907C94.6416 39.9583 94.2712 39.0641 93.6119 38.4048C92.9526 37.7455 92.0584 37.3751 91.126 37.3751H89.9541V31.5157C89.9558 31.3322 89.913 31.1511 89.8293 30.9878C89.7456 30.8245 89.6236 30.684 89.4736 30.5782C89.3285 30.4683 89.1595 30.3941 88.9804 30.3615C88.8012 30.3289 88.6169 30.3389 88.4424 30.3907L73.3721 35.0313H65.3447C65.0339 35.0313 64.7359 35.1548 64.5161 35.3746C64.2963 35.5943 64.1729 35.8924 64.1729 36.2032V37.3751H61.8291C61.5183 37.3751 61.2202 37.4986 61.0005 37.7183C60.7807 37.9381 60.6572 38.2362 60.6572 38.547V43.2345C60.6572 43.5453 60.7807 43.8433 61.0005 44.0631C61.2202 44.2829 61.5183 44.4063 61.8291 44.4063H64.1729V45.5782H57.1416V35.0313C57.1416 34.7205 57.0181 34.4225 56.7984 34.2027C56.5786 33.9829 56.2805 33.8595 55.9697 33.8595H32.5322C32.2214 33.8595 31.9234 33.9829 31.7036 34.2027C31.4838 34.4225 31.3604 34.7205 31.3604 35.0313V45.5782H29.0166C28.0851 45.581 27.1925 45.9523 26.5338 46.611C25.875 47.2697 25.5038 48.1623 25.501 49.0938V86.5938C25.5038 87.5254 25.875 88.418 26.5338 89.0767C27.1925 89.7354 28.0851 90.1067 29.0166 90.1095H55.9697V93.6251H48.9385C48.6277 93.6251 48.3296 93.7486 48.1098 93.9683C47.8901 94.1881 47.7666 94.4862 47.7666 94.797V99.4845C47.7666 99.7953 47.8901 100.093 48.1098 100.313C48.3296 100.533 48.6277 100.656 48.9385 100.656H72.376C72.6868 100.656 72.9848 100.533 73.2046 100.313C73.4244 100.093 73.5479 99.7953 73.5479 99.4845V94.797C73.5479 94.4862 73.4244 94.1881 73.2046 93.9683C72.9848 93.7486 72.6868 93.6251 72.376 93.6251H65.3447V90.1095H92.2979C93.2294 90.1067 94.122 89.7354 94.7807 89.0767C95.4394 88.418 95.8107 87.5254 95.8135 86.5938V49.0938C95.8107 48.1623 95.4394 47.2697 94.7807 46.611C94.122 45.9523 93.2294 45.581 92.2979 45.5782ZM89.9541 39.7188H91.126C91.4368 39.7188 91.7348 39.8423 91.9546 40.0621C92.1744 40.2818 92.2979 40.5799 92.2979 40.8907C92.2979 41.2015 92.1744 41.4996 91.9546 41.7194C91.7348 41.9391 91.4368 42.0626 91.126 42.0626H89.9541V39.7188ZM74.7197 37.0704L87.6104 33.0977V48.6837L74.7197 44.711V37.0704ZM66.5166 37.3751H72.376V44.4063H66.5166V37.3751ZM69.8564 46.7501L69.0127 52.6095H67.6885V46.7501H69.8564ZM63.001 42.0626V39.7188H64.1729V42.0626H63.001ZM33.7041 36.2032H54.7979V52.6095H33.7041V36.2032ZM71.2041 95.9688V98.3126H50.1104V95.9688H71.2041ZM58.3135 93.6251V90.1095H63.001V93.6251H58.3135ZM93.4697 86.5938C93.4697 86.9046 93.3463 87.2027 93.1265 87.4225C92.9067 87.6423 92.6087 87.7657 92.2979 87.7657H29.0166C28.7058 87.7657 28.4077 87.6423 28.188 87.4225C27.9682 87.2027 27.8447 86.9046 27.8447 86.5938V85.422H93.4697V86.5938ZM93.4697 83.0782H27.8447V49.0938C27.8447 48.783 27.9682 48.485 28.188 48.2652C28.4077 48.0454 28.7058 47.922 29.0166 47.922H31.3604V53.7813C31.3604 54.0921 31.4838 54.3902 31.7036 54.61C31.9234 54.8298 32.2214 54.9532 32.5322 54.9532H55.9697C56.2805 54.9532 56.5786 54.8298 56.7984 54.61C57.0181 54.3902 57.1416 54.0921 57.1416 53.7813V47.922H65.3447V53.7813C65.3447 54.0921 65.4682 54.3902 65.688 54.61C65.9077 54.8298 66.2058 54.9532 66.5166 54.9532H70.0322C70.3146 54.9532 70.5874 54.8512 70.8006 54.666C71.0137 54.4809 71.1529 54.225 71.1924 53.9454L72.2236 46.7501H73.3721L88.4424 51.3907C88.5525 51.4243 88.6672 51.4401 88.7822 51.4376C89.0916 51.4331 89.3871 51.3081 89.6058 51.0893C89.8246 50.8705 89.9496 50.5751 89.9541 50.2657V47.922H92.2979C92.6087 47.922 92.9067 48.0454 93.1265 48.2652C93.3463 48.485 93.4697 48.783 93.4697 49.0938V83.0782Z" fill="white"/>
<path d="M31.3604 80.7344H61.8291C62.1399 80.7344 62.438 80.6109 62.6577 80.3911C62.8775 80.1714 63.001 79.8733 63.001 79.5625V60.8125C63.001 60.5017 62.8775 60.2036 62.6577 59.9839C62.438 59.7641 62.1399 59.6406 61.8291 59.6406H31.3604C31.0496 59.6406 30.7515 59.7641 30.5317 59.9839C30.3119 60.2036 30.1885 60.5017 30.1885 60.8125V79.5625C30.1885 79.8733 30.3119 80.1714 30.5317 80.3911C30.7515 80.6109 31.0496 80.7344 31.3604 80.7344ZM32.5322 78.3906V62.909L45.9807 71.1859C46.1653 71.2996 46.3779 71.3597 46.5947 71.3597C46.8115 71.3597 47.0241 71.2996 47.2088 71.1859L60.6572 62.909V78.3906H32.5322ZM35.5006 61.9844H57.6889L46.5947 68.8117L35.5006 61.9844ZM66.5166 73.7031H68.8604V77.2188C68.8604 77.5296 68.9838 77.8276 69.2036 78.0474C69.4234 78.2672 69.7214 78.3906 70.0322 78.3906H89.9541C90.2649 78.3906 90.563 78.2672 90.7827 78.0474C91.0025 77.8276 91.126 77.5296 91.126 77.2188V63.1562C91.126 62.8454 91.0025 62.5474 90.7827 62.3276C90.563 62.1078 90.2649 61.9844 89.9541 61.9844H88.7822V58.4688C88.7822 58.1579 88.6588 57.8599 88.439 57.6401C88.2192 57.4203 87.9212 57.2969 87.6104 57.2969H66.5166C66.2058 57.2969 65.9077 57.4203 65.688 57.6401C65.4682 57.8599 65.3447 58.1579 65.3447 58.4688V72.5312C65.3447 72.8421 65.4682 73.1401 65.688 73.3599C65.9077 73.5797 66.2058 73.7031 66.5166 73.7031ZM88.7822 76.0469H71.2041V64.3281H88.7822V76.0469ZM67.6885 59.6406H86.4385V61.9844H70.0322C69.7214 61.9844 69.4234 62.1078 69.2036 62.3276C68.9838 62.5474 68.8604 62.8454 68.8604 63.1562V71.3594H67.6885V59.6406Z" fill="white"/>
<path d="M73.5479 66.6724H75.8916V69.0162H73.5479V66.6724ZM78.2354 66.6724H86.4385V69.0162H78.2354V66.6724ZM73.5479 71.3599H78.2354V73.7037H73.5479V71.3599ZM80.5791 71.3599H86.4385V73.7037H80.5791V71.3599ZM41.2908 48.9197C41.4607 49.0248 41.6547 49.0846 41.8542 49.0937C42.0538 49.1027 42.2524 49.0606 42.4311 48.9713L49.4623 45.4556C49.6573 45.3584 49.8214 45.2088 49.936 45.0235C50.0507 44.8383 50.1114 44.6247 50.1114 44.4068C50.1114 44.1889 50.0507 43.9753 49.936 43.7901C49.8214 43.6048 49.6573 43.4552 49.4623 43.358L42.4311 39.8423C42.2523 39.753 42.0538 39.7109 41.8542 39.72C41.6546 39.729 41.4607 39.7889 41.2908 39.894C41.1209 39.9991 40.9807 40.1459 40.8835 40.3204C40.7862 40.4949 40.7353 40.6914 40.7354 40.8912V47.9224C40.7352 48.1222 40.7862 48.3187 40.8834 48.4933C40.9807 48.6678 41.1209 48.8146 41.2908 48.9197ZM43.0791 42.7873L46.3182 44.4068L43.0791 46.0263V42.7873Z" fill="white"/>
<defs>
<filter id="filter0_bd_1849_2843" x="-8" y="-12" width="138.315" height="156" filterUnits="userSpaceOnUse" color-interpolation-filters="sRGB">
<feFlood flood-opacity="0" result="BackgroundImageFix"/>
<feGaussianBlur in="BackgroundImageFix" stdDeviation="6"/>
<feComposite in2="SourceAlpha" operator="in" result="effect1_backgroundBlur_1849_2843"/>
<feColorMatrix in="SourceAlpha" type="matrix" values="0 0 0 0 0 0 0 0 0 0 0 0 0 0 0 0 0 0 127 0" result="hardAlpha"/>
<feOffset dy="4"/>
<feGaussianBlur stdDeviation="2"/>
<feComposite in2="hardAlpha" operator="out"/>
<feColorMatrix type="matrix" values="0 0 0 0 0 0 0 0 0 0 0 0 0 0 0 0 0 0 0.1 0"/>
<feBlend mode="normal" in2="effect1_backgroundBlur_1849_2843" result="effect2_dropShadow_1849_2843"/>
<feBlend mode="normal" in="SourceGraphic" in2="effect2_dropShadow_1849_2843" result="shape"/>
</filter>
<linearGradient id="paint0_linear_1849_2843" x1="120.397" y1="113.437" x2="13.2619" y2="10.0833" gradientUnits="userSpaceOnUse">
<stop offset="0.0145959" stop-color="#D744BF"/>
<stop offset="1" stop-color="white" stop-opacity="0.27"/>
</linearGradient>
<linearGradient id="paint1_linear_1849_2843" x1="13.8348" y1="13.8646" x2="87.1681" y2="132" gradientUnits="userSpaceOnUse">
<stop stop-color="white"/>
<stop offset="1" stop-opacity="0"/>
</linearGradient>
</defs>
</svg>
