<svg width="124" height="146" viewBox="0 0 124 146" fill="none" xmlns="http://www.w3.org/2000/svg">
<g filter="url(#filter0_bd_1849_2830)">
<path d="M62 0L120 34.5V103.5L62 138L4 103.5V34.5L62 0Z" fill="url(#paint0_linear_1849_2830)" fill-opacity="0.5" shape-rendering="crispEdges"/>
<path d="M5 35.0687L62 1.16354L119 35.0687V102.931L62 136.836L5 102.931V35.0687Z" stroke="url(#paint1_linear_1849_2830)" stroke-opacity="0.5" stroke-width="2" shape-rendering="crispEdges"/>
</g>
<path d="M91.0682 79.9655C87.9395 76.1021 75.7944 72.9081 70.9612 71.7654C70.7771 71.3319 70.607 70.8934 70.4511 70.4499L70.7367 69.8378C72.5269 71.107 74.0899 71.9762 77.2459 69.8718C80.8379 67.5182 83.6009 64.0968 85.1454 60.0897C86.8621 55.5829 84.4897 52.1045 83.0967 47.6005C79.7761 36.8539 77.4622 33.721 75.4557 31.9376C72.6589 29.4482 70.7027 28.496 68.0909 28.3763C65.6405 27.1439 62.8612 26.7241 60.1561 27.1778C46.7351 28.7939 39.9824 49.275 39.041 56.5528C37.8195 65.9881 42.4759 65.9445 45.5597 69.6161C48.8817 73.5733 50.8242 71.5613 52.7831 71.9069C48.075 73.2073 36.9869 76.5782 34.0459 80.2158C30.7389 84.3008 30.0656 98.8387 30.0003 100.485C29.9931 100.841 30.1259 101.185 30.37 101.445C30.6141 101.704 30.9501 101.857 31.3059 101.871C31.6617 101.885 32.0089 101.76 32.2729 101.521C32.537 101.282 32.6969 100.949 32.7182 100.594C32.8883 96.3738 33.8364 84.7974 36.1599 81.9271C37.795 79.9056 43.9586 77.4026 50.3875 75.4369L44.3599 85.2123C44.23 85.4232 44.1603 85.6657 44.1581 85.9134C44.1559 86.1611 44.2214 86.4048 44.3476 86.618C44.4737 86.8312 44.6557 87.006 44.8739 87.1233C45.092 87.2407 45.3381 87.2963 45.5856 87.284L50.2243 87.0528L60.0024 101.404C60.1318 101.597 60.3092 101.754 60.5171 101.858C60.725 101.962 60.9563 102.01 61.1885 101.998C61.4207 101.986 61.6458 101.914 61.8418 101.789C62.0378 101.664 62.198 101.49 62.3068 101.285C62.4158 101.49 62.5761 101.663 62.7721 101.788C62.968 101.913 63.193 101.985 63.4251 101.997C63.6571 102.009 63.8883 101.961 64.0962 101.857C64.3041 101.753 64.4815 101.597 64.6112 101.404L74.3906 87.0528L79.0279 87.284C79.2754 87.2963 79.5215 87.2407 79.7397 87.1233C79.9578 87.006 80.1398 86.8312 80.266 86.618C80.3921 86.4048 80.4576 86.1611 80.4554 85.9134C80.4533 85.6657 80.3835 85.4232 80.2536 85.2123L74.2001 75.3934C80.8957 77.2149 87.2729 79.605 88.9529 81.6781C91.0233 84.2328 91.8559 94.6081 91.894 100.546C91.8961 100.907 92.0415 101.252 92.2982 101.505C92.5548 101.759 92.9017 101.9 93.2624 101.898C93.6232 101.896 93.9684 101.751 94.222 101.494C94.4755 101.237 94.6168 100.89 94.6146 100.53C94.6037 98.8591 94.416 84.0968 91.0682 79.9655ZM66.7646 84.0628H57.849L55.0072 74.0167C55.1795 73.8787 55.315 73.7002 55.4017 73.4971L55.4221 73.5066C55.9833 72.3015 56.4385 71.0498 56.7825 69.7657C58.3003 71.2545 60.2881 72.17 62.4061 72.3558C64.3135 72.2117 66.1058 71.3877 67.457 70.0337C67.792 71.2217 68.221 72.3811 68.7398 73.5012L68.7738 73.4862C68.8479 73.6527 68.9554 73.8021 69.0898 73.9252C69.2241 74.0483 69.3823 74.1424 69.5546 74.2017L66.7646 84.0628ZM71.5271 49.4641C72.7429 49.5288 73.9347 49.8281 75.0367 50.3456C75.5605 50.785 74.8993 54.4021 72.8684 56.0291L72.7296 56.142C72.4592 56.3611 72.2834 56.6757 72.2385 57.0208C71.3503 60.9215 69.3529 64.4822 66.4871 67.2736C63.5311 69.9317 62.0891 70.6608 58.6162 67.7592C55.3966 65.0702 53.3225 61.2556 52.8157 57.0915C52.7868 56.9054 52.7195 56.7273 52.6181 56.5685C52.5167 56.4097 52.3834 56.2738 52.2267 56.1692C51.562 55.6711 51.0149 55.033 50.6242 54.3001C50.2335 53.5671 50.0088 52.7572 49.9658 51.9277C51.9099 51.2493 53.682 50.1538 55.1577 48.7179C56.6335 47.2821 57.7773 45.5408 58.5087 43.6161C62.0742 46.9634 66.6566 49.0211 71.5271 49.4641ZM47.6438 67.8653C43.994 63.5218 40.7224 64.7366 41.7399 56.9011C42.6976 49.4981 49.4503 31.2071 60.4812 29.8781C64.1949 29.4333 64.8506 30.0917 67.5631 31.082C69.3614 31.1309 70.7068 31.354 73.6478 33.97C74.7171 34.9222 76.9439 36.9015 80.4985 48.4031C81.8724 52.8677 83.8938 55.7353 82.6029 59.1211C81.2598 62.5998 78.8584 65.569 75.7373 67.6096C72.5147 69.7589 73.0779 66.8233 70.4252 67.0165C72.501 64.3276 73.9991 61.2391 74.8259 57.9444C77.3874 55.8305 79.1558 50.2545 76.7875 48.263C75.3233 47.349 73.6451 46.8349 71.9202 46.772C66.9561 46.3384 62.3457 44.0227 59.0338 40.2996C58.8478 40.0961 58.6094 39.9477 58.3446 39.8708C58.0799 39.7939 57.799 39.7915 57.533 39.8637C57.2669 39.9359 57.0259 40.0801 56.8364 40.2803C56.6469 40.4806 56.5162 40.7292 56.4587 40.9988C56.0181 43.0479 55.0194 44.9352 53.5729 46.452C52.1264 47.9689 50.2886 49.056 48.2627 49.5934C46.0712 50.1375 47.388 55.7448 50.2216 58.0641C50.795 61.5438 52.278 64.8101 54.5202 67.532C54.3924 68.1659 54.2414 68.7985 54.0564 69.4229C50.3875 68.2476 50.1944 70.9356 47.6438 67.8653ZM52.0417 84.8912C51.9172 84.708 51.7496 84.558 51.5538 84.4543C51.3579 84.3507 51.1397 84.2966 50.9181 84.2968L50.8501 84.2995L48.0328 84.4382L52.8974 76.551L57.5388 92.9593L52.0417 84.8912ZM62.3068 99.8168L58.6203 86.7834H65.9933L62.3068 99.8168ZM73.7635 84.2995C73.5304 84.2847 73.2975 84.3316 73.0883 84.4355C72.8791 84.5394 72.7009 84.6966 72.5718 84.8912L67.0747 92.9593L71.7162 76.551L76.5807 84.4382L73.7635 84.2995Z" fill="white"/>
<defs>
<filter id="filter0_bd_1849_2830" x="-8" y="-12" width="140" height="162" filterUnits="userSpaceOnUse" color-interpolation-filters="sRGB">
<feFlood flood-opacity="0" result="BackgroundImageFix"/>
<feGaussianBlur in="BackgroundImageFix" stdDeviation="6"/>
<feComposite in2="SourceAlpha" operator="in" result="effect1_backgroundBlur_1849_2830"/>
<feColorMatrix in="SourceAlpha" type="matrix" values="0 0 0 0 0 0 0 0 0 0 0 0 0 0 0 0 0 0 127 0" result="hardAlpha"/>
<feOffset dy="4"/>
<feGaussianBlur stdDeviation="2"/>
<feComposite in2="hardAlpha" operator="out"/>
<feColorMatrix type="matrix" values="0 0 0 0 0 0 0 0 0 0 0 0 0 0 0 0 0 0 0.1 0"/>
<feBlend mode="normal" in2="effect1_backgroundBlur_1849_2830" result="effect2_dropShadow_1849_2830"/>
<feBlend mode="normal" in="SourceGraphic" in2="effect2_dropShadow_1849_2830" result="shape"/>
</filter>
<linearGradient id="paint0_linear_1849_2830" x1="122.113" y1="118.594" x2="10.2771" y2="13.8752" gradientUnits="userSpaceOnUse">
<stop offset="0.0145959" stop-color="#0BB0EB" stop-opacity="0.77"/>
<stop offset="1" stop-color="#B6F2FF" stop-opacity="0.09"/>
</linearGradient>
<linearGradient id="paint1_linear_1849_2830" x1="13.9799" y1="14.4948" x2="91.6398" y2="135.924" gradientUnits="userSpaceOnUse">
<stop stop-color="white"/>
<stop offset="1" stop-opacity="0"/>
</linearGradient>
</defs>
</svg>
